/* XPM */
static char *result[] = {
/* columns rows colors chars-per-pixel */
"50 50 116 2 ",
"   c #0D0415",
".  c #160C1E",
"X  c #190E1F",
"o  c #12161D",
"O  c #280F1F",
"+  c #350F1D",
"@  c #271E1B",
"#  c #34101F",
"$  c #122C1A",
"%  c #1F3612",
"&  c #352E17",
"*  c #150E20",
"=  c #1A0F20",
"-  c #161121",
";  c #1B1222",
":  c #1E1925",
">  c #230F20",
",  c #241021",
"<  c #2B1121",
"1  c #201826",
"2  c #221C29",
"3  c #2B1D29",
"4  c #341221",
"5  c #3C1321",
"6  c #3A1A26",
"7  c #26232D",
"8  c #28262F",
"9  c #2A2D2B",
"0  c #2E3E2A",
"q  c #272831",
"w  c #2C2B33",
"e  c #362A31",
"r  c #342B3A",
"t  c #2F3036",
"y  c #303137",
"u  c #33363A",
"i  c #373C3E",
"p  c #3B3C3F",
"a  c #420E1F",
"s  c #561B1C",
"d  c #5D1D1F",
"f  c #65171D",
"g  c #55261E",
"h  c #431321",
"j  c #4C1422",
"k  c #441925",
"l  c #531522",
"z  c #5C1622",
"x  c #551B25",
"c  c #5C1925",
"v  c #631722",
"b  c #6C1622",
"n  c #631C25",
"m  c #6D1823",
"M  c #631F29",
"N  c #711520",
"B  c #711823",
"V  c #5B2020",
"C  c #5C252C",
"Z  c #452B31",
"A  c #4E2F35",
"S  c #522D32",
"D  c #4B3136",
"F  c #463539",
"G  c #4A3539",
"H  c #42393C",
"J  c #61212A",
"K  c #72212C",
"L  c #78222F",
"P  c #0F5914",
"I  c #155014",
"U  c #1E5915",
"Y  c #1B6614",
"T  c #196819",
"R  c #216C14",
"E  c #357B13",
"W  c #387E13",
"Q  c #2D4829",
"!  c #29542C",
"~  c #3B5535",
"^  c #3C5A31",
"/  c #277623",
"(  c #3D6534",
")  c #3D6933",
"_  c #5A4C3D",
"`  c #3E3644",
"'  c #3D3F41",
"]  c #3A334B",
"[  c #423947",
"{  c #483F4C",
"}  c #5F3A46",
"|  c #6F3C46",
" . c #7D3944",
".. c #374242",
"X. c gray26",
"o. c #534A56",
"O. c #5B525E",
"+. c #4C7643",
"@. c gray38",
"#. c #67616A",
"$. c gray46",
"%. c #6EA010",
"&. c #73A410",
"*. c #598A4A",
"=. c #64A951",
"-. c #788B73",
";. c #857F87",
":. c #868189",
">. c gray62",
",. c #B49095",
"<. c #B6A5B2",
"1. c #CFB6BC",
"2. c #CBBBBE",
"3. c #D8CDD0",
"4. c #EEEBEC",
"5. c #F1EEEE",
/* pixels */
"X.X.X.X.X.X.X.X.X.X.X.X.X.X.X.X.X.X.X.X.X.X.X.X.X.X.X.X.X.X.X.X.X.X.X.X.X.X.X.X.X.X.X.X.X.X.X.X.X.X.",
">.>.$.>.>.X.X.>.>.X.X.X.X.X.@.>.>.$.>.>.$.$.>.>.$.$.>.>.>.>.$.>.X.X.X.X.X.X.@.>.>.>.>.X.X.X.X.X.X.>.",
">.$.$.>.>.X.>.>.$.>.X.X.X.X.@.>.>.$.$.$.$.$.G S S S S S F ..$.>.>.X.X.X.X.@.@.$.>.$.$.$.>.X.X.>.$.>.",
"$.$.$.$.$.$.>.$.$.$.>.X.X.@.@.$.$.$.$.$.$.A m N b b b b n F $.$.$.X.X.X.X.@.@.$.$.$.$.$.>.>.$.$.$.$.",
"$.$.$.$.$.$.$.$.$.$.>.X.X.X.@.$.$.$.$.$.S m b m m h 4 < h n G $.>.>.X.X.X.@.@.$.$.$.$.$.$.>.$.$.$.$.",
"$.$.$.$.$.$.$.$.$.$.$.X.X.X.@.@.$.$.$.D b m m b m B m > . 5 m $.>.$.X.X.@.@.$.$.$.$.$.$.$.$.$.$.$.$.",
"$.$.$.$.$.$.$.$.$.$.>.X.X.X.@.@.$.$.$.n z m m m v v B v < , c $.$.>.X.X.@.$.$.$.$.$.$.$.$.$.$.$.$.$.",
"$.$.$.$.$.$.$.$.$.>.>.X.X.@.@.@.$.$.$.j j B m B j < v n , 6 C $.$.$.X.X.@.@.$.$.$.$.$.$.$.$.$.$.$.$.",
"$.$.$.$.$.$.$.$.$.$.$.X.X.@.@.$.$.$.$.j ; l B z > * v < * w C $.$.>.X.X.X.@.$.$.$.$.$.$.$.$.$.$.$.$.",
"$.$.$.$.$.$.$.$.$.$.>.X.X.@.@.$.$.$.$.l X , , , = * v l > ; x $.>.>.X.X.X.@.@.$.$.$.$.$.$.$.$.$.$.$.",
"$.$.$.$.$.$.$.$.$.>.>.X.X.@.@.$.$.$.S z .   .   . * v N h * 5 $.>.$.X.X.@.@.@.$.$.$.$.$.$.$.$.$.$.$.",
"$.$.$.$.$.X.$.$.$.$.X.X.X.@.@.$.$.$.f + o.;.` :.O.. 5 b c < ; $.$.>.X.X.@.@.$.$.$.$.$.$.$.$.$.$.$.$.",
"$.$.$.$.$.X.X.$.$.>.X.X.X.X.@.@.$.$.m = [ #.r #.{ X * h B h * 7 $.>.X.X.@.@.$.$.$.$.$.$.$.$.$.$.$.$.",
"$.$.$.$.$.X.X.$.$.>.X.X.X.X.@.@.$.$.m = . . X . X = * < B 5 * ; $.>.X.X.@.$.$.$.$.$.$.$.$.$.$.$.$.$.",
"$.$.$.$.$.X.X.$.$.$.X.X.X.X.@.@.$.F m , = = * = = = = 5 B 5 * = u $.X.X.@.@.$.$.$.$.$.$.$.$.$.$.$.$.",
"$.$.$.$.$.>.>.$.$.$.>.X.X.X.@.@.$.C m l * = ; = = * 5 m z < = * 7 >.X.X.@.@.$.$.$.$.X.$.$.$.$.$.$.$.",
"$.$.$.$.$.$.$.$.$.$.>.>.X.X.@.$.$.J m m 4 * * = * h m B j * = z c D X.X.@.$.$.$.$.X.X.$.$.$.$.$.$.$.",
"$.$.$.$.$.$.$.$.$.$.$.$.X.X.@.' e , n m b # * = 5 b m l > = l m b S X.X.@.@.@.$.$.X.>.$.$.$.$.$.$.$.",
"$.$.$.$.$.$.$.$.$.$.$.>.X.X...F b 5 = z B 4 > < b m m > = l m m m m S X.X.X.@.$.$.>.$.$.$.$.$.$.$.$.",
"$.$.$.$.$.$.$.$.$.$.>.>.X.X.' C b m 5 > v 5 l 5 l B l > z c v m m m b F X.X.@.@.$.$.$.$.$.$.$.$.$.$.",
"@.@.$.$.$.$.@.@.$.$.$.>.X.X.F m m m B j h , z z 4 l = j N 5 l m m m m S X.X.X.@.@.$.$.$.$.$.$.$.$.$.",
"X.@.@.@.@.@.@.@.@.@.@.X.X.H J m b m m m h = z c 4 v c b B h < v m v b J X.X.X.X.@.@.@.$.$.$.$.@.@.X.",
"X.X.X.@.@.@.@.X.X.X.X.X...J m B h l m l j B m z 4 m m m b 5 * * X , l M p [ X.X.X.X.@.@.@.@.@.@.X.X.",
"X.X.X.X.X.X.X.X.X.X.X.X.F n b B h l j b m m m v j m m v 4 * 4 5 , z j f C ..X.X.X.X.X.X.X.X.X.X.X.X.",
"X.X.X.X.X.X.X.X.X.X.X.X.C b m B j j ; m m m m m m m N < * 4 b b 5 j m m C ' X.X.X.X.X.X.X.X.X.X.X.X.",
"X.X.X.>.$.>.$.>.>.>.>.$.C b m m j l > 5 m m m m b b + l z v m m l j B m C ..>.>.>.>.>.X.X.X.X.X.X.X.",
"X.X.X.>.$.$.$.$.$.>.>.$.C m m m j l j 4 5 l m b K } |  .M v m m b b N l 3 $.$.>.$.$.$.$.>.>.>.X.X.X.",
"X.X.@.@.$.$.$.$.$.$.$.$.D m b h 5 4 . 4 5 j N L ,.3.3.<.] h m m m B l = 2 $.$.$.$.$.$.$.$.>.>.X.X.X.",
"X.@.@.@.$.$.$.$.$.$.$.$...J j h j h X h < j f _ 4.5.5.-...a B m m l = . 2 $.$.$.$.$.$.$.$.$.$.X.X.X.",
"X.@.@.$.$.$.$.$.$.$.$.$...J j , 4 l l l 5 v s ! 1.2.2.~ ) h m m z , = : u $.$.$.$.$.$.$.$.$.>.>.X.X.",
"X.@.@.$.$.$.$.$.$.$.$.$...C , 4 B b = j j 4 o % b 4 . 0 ( a B m j = = : $.$.$.$.$.$.$.$.$.$.$.>.X.X.",
"X.@.$.$.$.$.$.$.$.$.$.$.$.y 5 b m b = * j # O n & @ 0 ^ = h m j * = = 8 $.$.$.$.X.$.$.$.$.$.$.>.>.X.",
"X.@.$.$.$.$.$.$.$.X.X.X.$.: v m b m j = j 4 O m d % Q - < z j = = = * u $.$.$.$.X.X.$.$.$.$.$.$.$.X.",
"X.@.$.$.$.$.$.$.$.X.X.X.$.u 5 b b h m = = j # N g I *.: 5 B < = = = = u $.$.$.$.X.X.$.$.$.$.$.$.>.X.",
"X.@.$.$.$.$.$.$.$.>.>.X.X.$.y k l ; m j * l 5 J U R / +.5 h = * = = w $.$.$.$.$.X.X.$.$.$.$.$.>.>.X.",
"X.@.@.$.$.$.$.$.$.$.$.X.X.$.$.G b 4 m l * 5 # x W %.Y *.; = = = * = u $.$.$.$.$.>.>.$.$.$.$.$.$.$.X.",
"X.@.@.$.$.$.$.$.$.$.$.>.>.$.$.G N 4 b l < , > V W &.Y *.X o = = = . y $.$.$.$.$.$.$.$.$.$.$.$.>.>.X.",
"X.@.@.$.$.$.$.$.$.$.$.$.$.$.$.p C 4 v l 4 , > V Y E T *.; ; 7 X = = u $.$.$.$.$.$.$.$.$.$.$.$.>.>.X.",
"X.@.@.$.$.$.$.$.$.$.$.$.$.$.$.$.i 2 > j h 4 , v $ P =.9 . 8 i . . w $.$.$.$.$.$.$.$.$.$.$.$.$.$.>.X.",
"X.X.@.$.$.$.$.$.$.$.$.$.$.$.$.$.$.7 = l l 5 , z # 4 X X X w 7 = ; w $.$.$.$.$.$.$.$.$.$.$.$.$.$.>.X.",
"X.X.@.@.$.$.$.$.$.$.$.$.$.$.$.$.$.$.8 l B 4 , z 4 4 = . . w i . 2 $.$.$.$.$.$.$.$.$.$.$.X.$.$.$.>.X.",
"X.X.X.@.$.$.$.$.$.$.$.$.$.$.$.$.X.X.$.; l 4 > z 4 4 * 8 1 i 8 . u $.$.$.$.$.$.$.$.$.$.$.X.X.$.$.$.X.",
"X.@.@.@.$.$.$.$.$.$.$.$.$.$.$.X.X.>.$.q h 4 , n Z # . 8 i t : u $.$.$.$.$.$.$.$.$.$.$.$.X.X.$.$.>.X.",
"X.@.@.$.$.$.$.$.$.$.$.$.$.$.$.>.>.$.$.u , = < M S 6 = i i 2 t $.$.$.$.$.$.$.$.$.$.$.$.$.>.>.$.>.>.X.",
"X.@.@.$.$.$.$.$.$.$.$.$.$.$.$.$.$.$.$.$.w 2 = l B G : i r : u $.$.$.$.$.$.$.$.$.$.$.$.$.$.$.$.$.$.X.",
"X.@.$.$.$.$.$.$.$.$.$.$.$.$.@.@.$.$.$.$.$.$.w q J C w i @.$.$.$.$.$.$.$.$.$.$.$.$.$.$.$.$.$.$.>.>.X.",
"X.@.$.$.$.$.$.$.$.$.$.$.@.@.@.@.@.$.$.$.$.$.@.>.p J H @.@.@.$.$.$.$.@.@.@.@.$.$.$.$.$.$.$.$.$.>.@.X.",
"X.@.@.@.@.$.@.@.@.@.@.@.@.@.@.X.@.@.$.$.@.@.@._ D D [ @.@.@.@.@.@.@.@.X.X.@.@.@.@.$.@.@.@.$.@.@.X.X.",
"X.X.X.@.@.@.@.X.X.X.X.@.X.X.X.X.X.@.@.@.@.X.X.X.X.X.X.X.X.X.X.@.@.X.X.X.X.X.X.X.@.@.@.@.@.@.@.X.X.X.",
"X.X.X.X.X.X.X.X.X.X.X.X.X.X.X.X.X.X.X.X.X.X.X.X.X.X.X.X.X.X.X.X.X.X.X.X.X.X.X.X.X.X.X.X.X.X.X.X.X.X."
};
