/* XPM */
static char *result[] = {
/* columns rows colors chars-per-pixel */
"50 50 131 2 ",
"   c #15071D",
".  c #150C1E",
"X  c #1A0E1F",
"o  c #181118",
"O  c #10191A",
"+  c #220E1F",
"@  c #2D0E1F",
"#  c #2C101F",
"$  c #2A1919",
"%  c #32101F",
"&  c #341C1F",
"*  c #0B350F",
"=  c #312719",
"-  c #3D361B",
";  c #150E20",
":  c #190F20",
">  c #161222",
",  c #1B1222",
"<  c #1E1C25",
"1  c #210F20",
"2  c #2C0F21",
"3  c #231121",
"4  c #2C1121",
"5  c #201B26",
"6  c #281826",
"7  c #211728",
"8  c #231D2A",
"9  c #2D1D2A",
"0  c #341221",
"q  c #3C1221",
"w  c #3A1A26",
"e  c #311D2D",
"r  c #26232E",
"t  c #29252E",
"y  c #253724",
"u  c #2A332A",
"i  c #292730",
"p  c #2D2D34",
"a  c #312636",
"s  c #322A36",
"d  c #3B2C3E",
"f  c #2F3036",
"g  c #313137",
"h  c #32353A",
"j  c #3A3338",
"k  c #363C3E",
"l  c #3C3C3E",
"z  c #440C1F",
"x  c #44101D",
"c  c #49121F",
"v  c #62171D",
"b  c #4B2017",
"n  c #49261C",
"m  c #48331C",
"M  c #441321",
"N  c #4C1422",
"B  c #401825",
"V  c #4B1A26",
"C  c #441A28",
"Z  c #531522",
"A  c #5C1622",
"S  c #5C1823",
"D  c #631723",
"F  c #6B1723",
"G  c #651B26",
"H  c #6D1823",
"J  c #711621",
"K  c #721923",
"L  c #4C252E",
"P  c #5C2420",
"I  c #5D242C",
"U  c #59282F",
"Y  c #4A2F35",
"T  c #522D32",
"R  c #5A2930",
"E  c #5E2E3A",
"W  c #4C3236",
"Q  c #453639",
"!  c #483438",
"~  c #423A3C",
"^  c #61222A",
"/  c #762631",
"(  c #0B4410",
")  c #145516",
"_  c #0F6313",
"`  c #395C2E",
"'  c #374A34",
"]  c #38443D",
"[  c #3A5431",
"{  c #2D7923",
"}  c #3F6A35",
"|  c #415037",
" . c #436738",
".. c #342E43",
"X. c #363F41",
"o. c #3D3F40",
"O. c #4B3947",
"+. c #374242",
"@. c #3B4141",
"#. c gray26",
"$. c #4B4350",
"%. c #584B58",
"&. c #5F525E",
"*. c #527B45",
"=. c #5D785C",
"-. c gray38",
";. c gray46",
":. c #873F4A",
">. c #8F5A63",
",. c #86726C",
"<. c #996D76",
"1. c #458914",
"2. c #4C8F13",
"3. c #538A11",
"4. c #5A8F10",
"5. c #5D9B13",
"6. c #6E9B0F",
"7. c #418A37",
"8. c #488C3C",
"9. c #7E8E78",
"0. c #8F8991",
"q. c gray62",
"w. c #B7949A",
"e. c #A899A5",
"r. c #B5B0B5",
"t. c #BDB1B3",
"y. c #D4C4C8",
"u. c #DBCED1",
"i. c #DCDBD9",
"p. c #EBE6E7",
"a. c #EFECED",
/* pixels */
"#.#.#.#.#.#.#.#.#.#.#.#.#.#.#.#.#.#.#.#.#.#.#.#.#.#.#.#.#.#.#.#.#.#.#.#.#.#.#.#.#.#.#.#.#.#.#.#.#.#.",
"q.q.;.q.q.#.#.q.q.#.#.#.#.#.-.q.q.;.q.q.;.;.q.~ ~ l ~ ~ ~ l ;.q.#.#.#.#.#.#.-.q.q.q.q.#.#.#.#.#.#.q.",
"q.;.;.q.q.#.q.q.;.q.#.#.#.#.-.q.q.;.;.;.;.;.! H G G H G H U ;.q.q.#.#.#.#.-.-.;.q.;.;.;.q.#.#.q.;.q.",
";.;.;.;.;.;.q.;.;.;.q.#.#.-.-.;.;.;.;.;.;.! H H H H A A A D U ;.;.#.#.#.#.-.-.;.;.;.;.;.q.q.;.;.;.;.",
";.;.;.;.;.;.;.;.;.;.q.#.#.#.-.;.;.;.;.;.! G H H H H M 0 ; 2 A U q.q.#.#.#.-.-.;.;.;.;.;.;.q.;.;.;.;.",
";.;.;.;.;.;.;.;.;.;.;.#.#.#.-.-.;.;.;.W H J H H H K H F q ; 2 A I ;.#.#.-.-.;.;.;.;.;.;.;.;.;.;.;.;.",
";.;.;.;.;.;.;.;.;.;.q.#.#.#.-.-.;.;.;.R q A H H H q F H F q r S H q.#.#.-.;.;.;.;.;.;.;.;.;.;.;.;.;.",
";.;.;.;.;.;.;.;.;.q.q.#.#.-.-.-.;.;.;.R # N H H D 4 : D M o p O.G ;.#.#.-.-.;.;.;.;.;.;.;.;.;.;.;.;.",
";.;.;.;.;.;.;.;.;.;.;.#.#.-.-.;.;.;.;.R 0 : N N q : ; A 4 ; r j G q.#.#.#.-.;.;.;.;.;.;.;.;.;.;.;.;.",
";.;.;.;.;.;.;.;.;.;.q.#.#.-.-.;.;.;.;.R 0 ; ; ; ; : ; D D 2 ; g T q.#.#.#.-.-.;.;.;.;.;.;.;.;.;.;.;.",
";.;.;.;.;.;.;.;.;.q.q.#.#.-.-.;.;.;.~ G % , 7 , 8 , ; D K N ; r +.;.#.#.-.-.-.;.;.;.;.;.;.;.;.;.;.;.",
";.;.;.;.;.#.;.;.;.;.#.#.#.-.-.;.;.;.W N   0.0.a r.$.. 0 D F 0 > k q.#.#.-.-.;.;.;.;.;.;.;.;.;.;.;.;.",
";.;.;.;.;.#.#.;.;.q.#.#.#.#.-.-.;.;.W q ; . . :   X : ; 0 K M : , q.#.#.-.-.;.;.;.;.;.;.;.;.;.;.;.;.",
";.;.;.;.;.#.#.;.;.q.#.#.#.#.-.-.;.;.W q ; : : : . , : ; 0 K q ; , q.#.#.-.;.;.;.;.;.;.;.;.;.;.;.;.;.",
";.;.;.;.;.#.#.;.;.;.#.#.#.#.-.-.;.l U S 3 : : : , o ; : N K M . , ;.#.#.-.-.;.;.;.;.;.;.;.;.;.;.;.;.",
";.;.;.;.;.q.q.;.;.;.q.#.#.#.-.X.r t K K 4 ; ; : : : ; Z K Z 3 ; > +.#.#.-.-.;.;.;.;.#.;.;.;.;.;.;.;.",
";.;.;.;.;.;.;.;.;.;.q.q.#.] -.T Z X N H A 4 X : : : N H K M ; 1 Z U l #.-.;.;.;.;.#.#.;.;.;.;.;.;.;.",
";.;.;.;.;.;.;.;.;.;.;.;.#.O.l I H Z 4 D H A 3 o : N H H N : 1 Z H H T #.-.-.-.;.;.#.q.;.;.;.;.;.;.;.",
";.;.;.;.;.;.;.;.;.;.;.q.#.+.T H H F + q H D 4 3 q H H A : : Z H H H I l #.#.-.;.;.q.;.;.;.;.;.;.;.;.",
";.;.;.;.;.;.;.;.;.;.q.q.#.~ I H H H A 3 q A 0 F M D H N 1 Z D D H H J Y #.#.-.-.;.;.;.;.;.;.;.;.;.;.",
"-.-.;.;.;.;.-.-.;.;.;.q.#.W J F M H H A M q 0 K N Z M 1 Z K M Z H H H ^ ~ #.#.-.-.;.;.;.;.;.;.;.;.;.",
"#.-.-.-.-.-.-.-.-.-.-.#.Q G H H A 4 F H H Z % K M N D D H K M 1 H H J J Q #.#.#.-.-.-.;.;.;.;.-.-.#.",
"#.#.#.-.-.-.-.#.#.#.#.k w F H H F , H H H D q K F q D H H H q ; # 4 # Z G ~ #.#.#.#.-.-.-.-.-.-.#.#.",
"#.#.#.#.#.#.#.#.#.#.#.] G H H H Z 3 D D J H D H H D F H F q ; : M Z D M A ~ #.#.#.#.#.#.#.#.#.#.#.#.",
"#.#.#.#.#.#.#.#.O.] #.s v K D M X 3 N N K H H H H H H F 0 . 2 q q 1 A F G Q #.#.#.#.#.#.#.#.#.#.#.#.",
"#.#.#.q.;.q.;.q.q.q.q.7 v D 1 0 M 1 Z 4 D F N K H H H N M M A K H q q H H ~ q.q.q.q.q.#.#.#.#.#.#.#.",
"#.#.#.q.;.;.;.;.;.q.q.V H N 4 M 0 N D 4 N D % K H F % c D F F H H A M H G ~ ;.q.;.;.;.;.q.q.q.#.#.#.",
"#.#.-.-.;.;.;.;.;.;.;.6 D F D 0 ; # N , Z D 0 K H C 8 e 9 3 N H H F F H 0 k ;.;.;.;.;.;.;.q.q.#.#.#.",
"#.-.-.-.;.;.;.;.;.;.;.< 4 H M ; , a ; : N A q J / w.y.y.e...z K H K F 4 , h ;.;.;.;.;.;.;.;.;.#.#.#.",
"#.-.-.;.;.;.;.;.;.;.;.t 0 D 4 > %.<.q A 0 0 F v ,.p.a.i.9.] z H H D 0 ; , k ;.;.;.;.;.;.;.;.q.q.#.#.",
"#.-.-.;.;.;.;.;.;.;.;.k 0 N . &.>.F N H % N z $ =.u.u.t. .} z K H A : : , h ;.;.;.;.;.;.;.;.;.q.#.#.",
"#.-.;.;.;.;.;.;.;.;.;.k 7 3 > E H 0 A K @ c + O | :.O.d [  .z H H 1 : : : r ;.;.#.;.;.;.;.;.;.q.q.#.",
"#.-.;.;.;.;.;.;.;.#.#.#.h t @ A q A F D 4 N + 4 n b o y [ < N D 4 > X , , f ;.;.#.#.;.;.;.;.;.;.;.#.",
"#.-.;.;.;.;.;.;.;.#.#.#.;.h , + A K N 4 . M 4 # F = * ` < q G q > . X X , h ;.;.#.#.;.;.;.;.;.;.q.#.",
"#.-.;.;.;.;.;.;.;.q.q.#.#.@.g 3 A N 4 x , + Z 3 K & ( u ; M D 3 : : , . , h ;.;.#.#.;.;.;.;.;.q.q.#.",
"#.-.-.;.;.;.;.;.;.;.;.#.#.;.;.t q M 4 N 0 3 N 4 P ) _ 8.' % 4 ; : , . , , h ;.;.q.q.;.;.;.;.;.;.;.#.",
"#.-.-.;.;.;.;.;.;.;.;.q.q.;.;.h 7 H Z N 0 : 3 2 m 1.3.{ *.. : : : ; : : , h ;.;.;.;.;.;.;.;.;.q.q.#.",
"#.-.-.;.;.;.;.;.;.;.;.;.;.;.;.X.3 H H J 4 N 1 % m 5.6.{ *.  o , . : : X , h ;.;.;.;.;.;.;.;.;.q.q.#.",
"#.-.-.;.;.;.;.;.;.;.;.;.;.;.;.k 7 Z 0 D H q : 2 m 2.4.{ *.  X 7 k X X . f ;.;.;.;.;.;.;.;.;.;.;.q.#.",
"#.#.-.;.;.;.;.;.;.;.;.;.;.;.;.;.i X ; N K D 1 4 n ) _ 7.| . X r X 8 , . h ;.;.;.;.;.;.;.;.;.;.;.q.#.",
"#.#.-.-.;.;.;.;.;.;.;.;.;.;.;.;.;.o r V J D 1 4 Z O - | , : 5 < 8 h : . h ;.;.;.;.;.;.;.#.;.;.;.q.#.",
"#.#.#.-.;.;.;.;.;.;.;.;.;.;.;.;.i f p 3 A D 3 4 N ; F + : : i r h h : . g ;.;.;.;.;.;.;.#.#.;.;.;.#.",
"#.-.-.-.;.;.;.;.;.;.;.;.;.;.;.#.h q.f , 3 Z 3 4 V , F 6 g r i k ;.;.t , h ;.;.;.;.;.;.;.#.#.;.;.q.#.",
"#.-.-.;.;.;.;.;.;.;.;.;.;.;.;.q.q.;.p p 8 M 1 4 U X.G 6 X.r i ;.;.;.r p ;.;.;.;.;.;.;.;.q.q.;.q.q.#.",
"#.-.-.;.;.;.;.;.;.;.;.;.;.;.;.;.;.k i k 7 . ; 2 ^ o.H 6 +.p f ;.;.i , h ;.;.;.;.;.;.;.;.;.;.;.;.;.#.",
"#.-.;.;.;.;.;.;.;.;.;.;.;.;.-.-.;.;.;.h i r , : Z ^ T B s ;.;.;.r , h ;.;.;.;.;.;.;.;.;.;.;.;.q.q.#.",
"#.-.;.;.;.;.;.;.;.;.;.;.-.-.-.-.-.;.;.;.;.;.h g j Q ~ W L -.;.;.g h -.-.-.-.;.;.;.;.;.;.;.;.;.q.-.#.",
"#.-.-.-.-.;.-.-.-.-.-.-.-.-.-.#.-.-.;.;.-.-.-.#.W W #.-.~ -.-.-.-.-.-.#.#.-.-.-.-.;.-.-.-.;.-.-.#.#.",
"#.#.#.-.-.-.-.#.#.#.#.-.#.#.#.#.#.-.-.-.-.#.#.#.#.#.#.#.#.#.#.-.-.#.#.#.#.#.#.#.-.-.-.-.-.-.-.#.#.#.",
"#.#.#.#.#.#.#.#.#.#.#.#.#.#.#.#.#.#.#.#.#.#.#.#.#.#.#.#.#.#.#.#.#.#.#.#.#.#.#.#.#.#.#.#.#.#.#.#.#.#."
};
