/* XPM */
static char *result[] = {
/* columns rows colors chars-per-pixel */
"50 50 136 2 ",
"   c #1D0617",
".  c #160C1E",
"X  c #1A0E1F",
"o  c #0D1818",
"O  c #260F1F",
"+  c #2A0E1E",
"@  c #330E1F",
"#  c #3D0B19",
"$  c #23131F",
"%  c #2D101F",
"&  c #271F1D",
"*  c #33111F",
"=  c #3B2B18",
"-  c #28381E",
";  c #150F20",
":  c #1A0F20",
">  c #171020",
",  c #1C1222",
"<  c #1F1B26",
"1  c #240F20",
"2  c #2C0F21",
"3  c #340F21",
"4  c #231121",
"5  c #2B1121",
"6  c #201A27",
"7  c #231D2A",
"8  c #331121",
"9  c #3C1321",
"0  c #3D1F2A",
"q  c #202826",
"w  c #26232D",
"e  c #2A252F",
"r  c #2C3829",
"t  c #232033",
"y  c #292730",
"u  c #262831",
"i  c #2C2D34",
"p  c #3D2830",
"a  c #2F3137",
"s  c #303137",
"d  c #33353A",
"f  c #363A3D",
"g  c #3C3C3E",
"h  c #430D1B",
"j  c #43111F",
"k  c #481C18",
"l  c #55111E",
"z  c #65141D",
"x  c #71141F",
"c  c #49251D",
"v  c #42291D",
"b  c #431321",
"n  c #4C1422",
"m  c #411926",
"M  c #481C2C",
"N  c #521522",
"B  c #5A1522",
"V  c #5F1F20",
"C  c #641723",
"Z  c #6B1723",
"A  c #651C26",
"S  c #6D1823",
"D  c #641F28",
"F  c #701722",
"G  c #711823",
"H  c #781923",
"J  c #48282F",
"K  c #55262E",
"L  c #5B252D",
"P  c #57282F",
"I  c #4C2E34",
"U  c #5B2535",
"Y  c #532C32",
"T  c #4C3236",
"R  c #463639",
"E  c #483438",
"W  c #42393C",
"Q  c #63222A",
"!  c #144114",
"~  c #095015",
"^  c #1E5518",
"/  c #105F18",
"(  c #224017",
")  c #284118",
"_  c #156416",
"`  c #1B6A1B",
"'  c #237712",
"]  c #36572F",
"[  c #364433",
"{  c #384C33",
"}  c #375530",
"|  c #307C2B",
" . c #45553B",
".. c #41593B",
"X. c #456D36",
"o. c #363340",
"O. c #3B3241",
"+. c #373E40",
"@. c #393E40",
"#. c #403845",
"$. c #364243",
"%. c #3C4343",
"&. c gray26",
"*. c #4B4450",
"=. c #774852",
"-. c #4F694C",
";. c #507043",
":. c #5D5560",
">. c #6B5F6F",
",. c #775A67",
"<. c gray38",
"1. c #6C6570",
"2. c gray46",
"3. c #7D747E",
"4. c #895357",
"5. c #837079",
"6. c #3C8513",
"7. c #448C13",
"8. c #629910",
"9. c #71A30F",
"0. c #498D3E",
"q. c #528D3C",
"w. c #649351",
"e. c #689B53",
"r. c #947A82",
"t. c #928695",
"y. c #9E9E9E",
"u. c #A19A9B",
"i. c #A69CA2",
"p. c #BDB2B7",
"a. c #DDDCD9",
"s. c #E2D6D7",
"d. c #E3D7DB",
"f. c #E8E2E3",
"g. c #EDE7E8",
"h. c #EFEBEB",
/* pixels */
"&.&.&.&.&.&.&.&.&.&.&.&.&.&.&.&.&.&.&.&.&.&.&.&.&.&.&.&.&.&.&.&.&.&.&.&.&.&.&.&.&.&.&.&.&.&.&.&.&.&.",
"y.y.2.y.y.&.&.y.y.&.&.&.&.&.<.y.y.2.y.y.2.2.$.$.$.$.$.$.u.y.2.y.&.&.&.&.&.&.<.y.y.y.y.&.&.&.&.&.&.y.",
"y.2.2.y.y.&.y.y.2.y.&.&.&.&.<.y.y.2.2.2.2.2.P P P P L P E 2.2.y.y.&.&.&.&.<.<.2.y.2.2.2.y.&.&.y.2.y.",
"2.2.2.2.2.2.y.2.2.2.y.&.&.<.<.2.2.2.2.2.2.L S S S z C C A R 2.2.2.&.&.&.&.<.<.2.2.2.2.2.y.y.2.2.2.2.",
"2.2.2.2.2.2.2.2.2.2.y.&.&.&.<.2.2.2.2.2.L F S S Z 9 : ; b x E 2.y.y.&.&.&.<.<.2.2.2.2.2.2.y.2.2.2.2.",
"2.2.2.2.2.2.2.2.2.2.2.&.&.&.<.<.2.2.2.P S S S S S G Z 8 > 9 C E y.2.&.&.<.<.2.2.2.2.2.2.2.2.2.2.2.2.",
"2.2.2.2.2.2.2.2.2.2.y.&.&.&.<.<.2.2.g B l S S G N B S C * y I L $.y.&.&.<.2.2.2.2.2.2.2.2.2.2.2.2.2.",
"2.2.2.2.2.2.2.2.2.y.y.&.&.<.<.<.2.2.W n N F S G b 4 Z B X d 2.T P 2.&.&.<.<.2.2.2.2.2.2.2.2.2.2.2.2.",
"2.2.2.2.2.2.2.2.2.2.2.&.&.<.<.2.2.2.g n : N B b : : Z 5 ; i 2.2.T E &.&.&.<.2.2.2.2.2.2.2.2.2.2.2.2.",
"2.2.2.2.2.2.2.2.2.2.y.&.&.<.<.2.2.2.2.N : : : : : , Z B 2 . f 2.y.y.&.&.&.<.<.2.2.2.2.2.2.2.2.2.2.2.",
"2.2.2.2.2.2.2.2.2.y.y.&.&.<.<.2.2.2.K n : , , , : X Z Z b . w 2.y.2.&.&.<.<.<.2.2.2.2.2.2.2.2.2.2.2.",
"2.2.2.2.2.&.2.2.2.2.&.&.&.<.<.2.2.W Z 1 1.i.#.i.:.. 8 Z C 4 , f 2.y.&.&.<.<.2.2.2.2.2.2.2.2.2.2.2.2.",
"2.2.2.2.2.&.&.2.2.y.&.&.&.&.<.<.2.O.Z > 6 7 , 7 , : ; 8 S 5 . w %.y.&.&.<.<.2.2.2.2.2.2.2.2.2.2.2.2.",
"2.2.2.2.2.&.&.2.2.y.&.&.&.&.<.<.2.E Z ; : : : : , : : 5 S 5 . 7 %.y.&.&.<.2.2.2.2.2.2.2.2.2.2.2.2.2.",
"2.2.2.2.2.&.&.2.2.2.&.&.&.&.<.<.a 9 Z 8 : : ; : : : , N S + ; , s 2.&.&.<.<.2.2.2.2.2.2.2.2.2.2.2.2.",
"2.2.2.2.2.y.y.2.2.2.y.&.&.&.<.T B 8 F n ; : : : : : B S n , > . w y.&.&.<.<.2.2.2.2.&.2.2.2.2.2.2.2.",
"2.2.2.2.2.2.2.2.2.2.y.y.&.#.d b S 5 C S 9 : : ; : N S Z 9 ; 5 B K y.&.&.<.2.2.2.2.&.&.2.2.2.2.2.2.2.",
"2.2.2.2.2.2.2.2.2.2.2.2.&.+.p Z S b , B Z 5 ; 4 N Z Z b > 5 C G S T &.&.<.<.<.2.2.&.y.2.2.2.2.2.2.2.",
"2.2.2.2.2.2.2.2.2.2.2.y.&.@.n S G Z 9 $ B 5 5 9 H S Z ; 5 S S S S P g &.&.&.<.2.2.y.2.2.2.2.2.2.2.2.",
"2.2.2.2.2.2.2.2.2.2.y.i.&.e Z F S Z Z 9 n 5 B b N C 8 5 C 9 C S S S R &.&.&.<.<.2.2.2.2.2.2.2.2.2.2.",
"<.<.2.2.2.2.<.<.2.2.2.y.t : B C S S S Z b 4 9 b 9 b 4 C S 1 N S S S Q W &.&.&.<.<.2.2.2.2.2.2.2.2.2.",
"&.<.<.<.<.<.<.<.<.<.<.f < 1 1 9 Z S S S S S B b b n F S G 5 , B B C Z A &.&.&.&.<.<.<.2.2.2.2.<.<.&.",
"&.&.&.<.<.<.<.&.&.&.d 5 9 Z F B N S S S S S S B N N Z Z B , ; 1 b b Z Q &.&.&.&.&.&.<.<.<.<.<.<.&.&.",
"&.&.&.&.&.&.&.&.&.&.d 9 Z F F x G C 8 S S S S S S S S B 1 ; b 1 n 9 C Q &.&.&.&.&.&.&.&.&.&.&.&.&.&.",
"&.&.&.&.&.&.&.&.&.&.W Z S * 3 2 n C , Z S S S S S S C 1 : N S n 9 C Z Z Y &.&.&.&.&.&.&.&.&.&.&.&.&.",
"&.&.&.y.2.y.2.y.y.y.W C Q U #.M j C 5 9 S S S S S B b C Z Z S Z N N S Z J 2.y.y.y.y.y.&.&.&.&.&.&.&.",
"&.&.&.y.2.2.2.2.2.y.W b 1.r.t.,.h C C 8 S F S F l   # # b C S S S S S 9 u 2.2.y.2.2.2.2.y.y.y.&.&.&.",
"&.&.<.<.2.2.2.2.2.2.W j i.s.p.@.+ C C 9 n b C F =.3.3.1.t B S S Z Z b > w 2.2.2.2.2.2.2.2.y.y.&.&.&.",
"&.<.<.<.2.2.2.2.2.2.W b O.*.d . , B S b n N z 4.s.g.f.u.o.B Z Z C b ; , y 2.2.2.2.2.2.2.2.2.2.&.&.&.",
"&.<.<.2.2.2.2.2.2.2.W n : : : : n F B > n Z k -.d.h.a.^ ] B F F n ; : , 2.2.2.2.2.2.2.2.2.2.y.y.&.&.",
"&.<.<.2.2.2.2.2.2.2.O.D 3 ; , N F n . , N $ o  .r.r.5.r } B G C 8 : , , 2.2.2.2.2.2.2.2.2.2.2.y.&.&.",
"&.<.2.2.2.2.2.2.2.2.2.Y 8 : b 8 8 O n 9 l % $ = K b ; X.q B Z 8 > : ; < 2.2.2.2.&.2.2.2.2.2.2.y.y.&.",
"&.<.2.2.2.2.2.2.2.&.&.Y 5 4 n 8 C 5 G N N 2 2 Z = ! q.< 9 G 8 : : : : , 2.2.2.2.&.&.2.2.2.2.2.2.2.&.",
"&.<.2.2.2.2.2.2.2.&.&.T 9 4 m 5 C 8 Z 5 5 B 8 Z V ( { . n C O ; : : , f 2.2.2.2.&.&.2.2.2.2.2.2.y.&.",
"&.<.2.2.2.2.2.2.2.y.y.&.Q 5 s < b N G n b G 9 V ) / 0.[ 8 4 > . ; : w 2.2.2.2.2.&.&.2.2.2.2.2.y.y.&.",
"&.<.<.2.2.2.2.2.2.2.2.&.Q 4 +.a b N S n N n 3 v ' 6._ e.> > : , : , f 2.2.2.2.2.y.y.2.2.2.2.2.2.2.&.",
"&.<.<.2.2.2.2.2.2.2.2.y.L 8 g i j 3 G n N 2 2 v 7.9.` w., . . X : , d 2.2.2.2.2.2.2.2.2.2.2.2.y.y.&.",
"&.<.<.2.2.2.2.2.2.2.2.2.2.L K u 9 8 Z n N 2 2 v 6.8.` w., X , , ; , f 2.2.2.2.2.2.2.2.2.2.2.2.y.y.&.",
"&.<.<.2.2.2.2.2.2.2.2.2.2.2.a , , ; , N N 4 5 c ~ / | ;.X . s 6 X , d 2.2.2.2.2.2.2.2.2.2.2.2.2.y.&.",
"&.&.<.2.2.2.2.2.2.2.2.2.2.f u d u 7 1 B C 5 5 n & - ..X . X e f 7 : w 2.2.2.2.2.2.2.2.2.2.2.2.2.y.&.",
"&.&.<.<.2.2.2.2.2.2.2.2.2.2.f %.u a . b F 5 5 b 9 * . . y o.a i i . X w 2.2.2.2.2.2.2.2.&.2.2.2.y.&.",
"&.&.&.<.2.2.2.2.2.2.2.2.2.2.2.2.f f X , N 5 5 n 9 * , a < d [ f g d 6 , u 2.2.2.2.2.2.2.&.&.2.2.2.&.",
"&.<.<.<.2.2.2.2.2.2.2.2.2.2.2.&.&.f : i 9 $ $ K T @ > &.+.y f 2.2.2.f d 6 w f 2.2.2.2.2.&.&.2.2.y.&.",
"&.<.<.2.2.2.2.2.2.2.2.2.2.2.2.y.y.g y d , > @ Q L 0 > <.>.%.2.2.2.2.2.2.d w f 2.2.2.2.2.y.y.2.y.y.&.",
"&.<.<.2.2.2.2.2.2.2.2.2.2.2.2.2.2.2.2.2.d i 6 n F T < <.2.2.2.2.2.2.2.2.2.2.2.2.2.2.2.2.2.2.2.2.2.&.",
"&.<.2.2.2.2.2.2.2.2.2.2.2.2.<.<.2.2.2.2.2.2.d g Y A d <.<.2.2.2.2.2.2.2.2.2.2.2.2.2.2.2.2.2.2.y.y.&.",
"&.<.2.2.2.2.2.2.2.2.2.2.<.<.<.<.<.2.2.2.2.2.<.y.g P &.<.<.<.2.2.2.2.<.<.<.<.2.2.2.2.2.2.2.2.2.y.<.&.",
"&.<.<.<.<.2.<.<.<.<.<.<.<.<.<.&.<.<.2.2.<.<.<.&.E R &.<.<.<.<.<.<.<.<.&.&.<.<.<.<.2.<.<.<.2.<.<.&.&.",
"&.&.&.<.<.<.<.&.&.&.&.<.&.&.&.&.&.<.<.<.<.&.&.&.&.&.&.&.&.&.&.<.<.&.&.&.&.&.&.&.<.<.<.<.<.<.<.&.&.&.",
"&.&.&.&.&.&.&.&.&.&.&.&.&.&.&.&.&.&.&.&.&.&.&.&.&.&.&.&.&.&.&.&.&.&.&.&.&.&.&.&.&.&.&.&.&.&.&.&.&.&."
};
