/* XPM */
static char *result[] = {
/* columns rows colors chars-per-pixel */
"50 50 144 2 ",
"   c #0E0E1F",
".  c #14071B",
"X  c #160C1E",
"o  c #190E1F",
"O  c #210E1F",
"+  c #320F1F",
"@  c #3D0E1E",
"#  c #211A1E",
"$  c #1E3313",
"%  c #2F2B15",
"&  c #2C251A",
"*  c #3B2B17",
"=  c #3E2A19",
"-  c #160F20",
";  c #190F20",
":  c #1C1322",
">  c #1E1825",
",  c #1D1D29",
"<  c #230F20",
"1  c #241020",
"2  c #2B1121",
"3  c #211B26",
"4  c #201728",
"5  c #221D2A",
"6  c #2C1C2D",
"7  c #341121",
"8  c #3B1221",
"9  c #3F1D28",
"0  c #261E31",
"q  c #2C2625",
"w  c #262E27",
"e  c #26242E",
"r  c #28252F",
"t  c #3A232D",
"y  c #263D22",
"u  c #2B322A",
"i  c #36392B",
"p  c #252731",
"a  c #292730",
"s  c #2D2C34",
"d  c #342E35",
"f  c #2E3137",
"g  c #2F3839",
"h  c #303137",
"j  c #3A3036",
"k  c #323539",
"l  c #3B373A",
"z  c #353A3D",
"x  c #3D3D3E",
"c  c #52121F",
"v  c #460F20",
"b  c #451321",
"n  c #4C1421",
"m  c #4A1A20",
"M  c #4D1B2A",
"N  c #541522",
"B  c #5C1622",
"V  c #551A26",
"C  c #5D1B26",
"Z  c #631722",
"A  c #6B1723",
"S  c #651B25",
"D  c #6D1823",
"F  c #651F28",
"G  c #6B1D29",
"H  c #721622",
"J  c #711823",
"K  c #42272F",
"L  c #47282F",
"P  c #53222B",
"I  c #5B252D",
"U  c #58282E",
"Y  c #4F2F34",
"T  c #532C32",
"R  c #5A2930",
"E  c #4D3135",
"W  c #463639",
"Q  c #49363A",
"!  c #413A3C",
"~  c #4C3B3E",
"^  c #622129",
"/  c #69272C",
"(  c #144516",
")  c #174A16",
"_  c #194F15",
"`  c #224516",
"'  c #14600F",
"]  c #196915",
"[  c #237115",
"{  c #37602B",
"}  c #396F2D",
"|  c #30762C",
" . c #475D3F",
".. c #466C37",
"X. c #47613E",
"o. c #486A3E",
"O. c #353F40",
"+. c #413846",
"@. c #5A3548",
"#. c #374243",
"$. c #3D4444",
"%. c gray26",
"&. c #49414E",
"*. c #4D4551",
"=. c #584758",
"-. c #5B4D5E",
";. c #4D5253",
":. c #58505C",
">. c #5D5C5E",
",. c #784956",
"<. c #4C6241",
"1. c #635B67",
"2. c #616161",
"3. c gray46",
"4. c #7B747D",
"5. c #811C27",
"6. c #844D57",
"7. c #B5404D",
"8. c #8C5F68",
"9. c #856771",
"0. c #A26C74",
"q. c #47820E",
"w. c #74AE12",
"e. c #47983F",
"r. c #4A9D3E",
"t. c #847688",
"y. c #889888",
"u. c gray62",
"i. c #AD868D",
"p. c #A49899",
"a. c #A99A9E",
"s. c #B09CA4",
"d. c #A9ABAB",
"f. c #B1A6AB",
"g. c #B4AAA9",
"h. c #C4A6A9",
"j. c #C9BEC0",
"k. c #E1D5D7",
"l. c #E5DDDE",
"z. c #E7E1E2",
"x. c #EEE6E6",
"c. c #EDE7E8",
"v. c #F2EEEF",
"b. c #F8F4F5",
/* pixels */
"%.%.%.%.%.%.%.%.%.%.%.%.%.%.%.%.%.%.%.%.%.%.%.%.%.%.%.%.%.%.%.%.%.%.%.%.%.%.%.%.%.%.%.%.%.%.%.%.%.%.",
"u.u.3.u.u.%.%.u.u.%.%.%.%.%.2.u.u.3.u.u.3.3.u.u.! Y T T T T T x %.%.%.%.%.%.2.u.u.u.u.%.%.%.%.%.%.u.",
"u.3.3.u.u.%.u.u.3.u.%.%.%.%.2.u.u.3.3.3.3.3.p.! F D D D J H J I u.%.%.%.%.2.2.3.u.3.3.3.u.%.%.u.3.u.",
"3.3.3.3.3.3.u.3.3.3.u.%.%.2.2.3.3.3.3.3.3.3.! S H D D B 2 < 2 B ^ %.%.%.%.2.2.3.3.3.3.3.u.u.3.3.3.3.",
"3.3.3.3.3.3.3.3.3.3.u.%.%.%.2.3.3.3.3.3.3.W F H D D A A Z b ; < B I l %.%.2.2.3.3.3.3.3.3.u.3.3.3.3.",
"3.3.3.3.3.3.3.3.3.3.3.%.%.%.2.2.3.3.3.3.3.I N D S D D B D J n < v D T %.2.2.3.3.3.3.3.3.3.3.3.3.3.3.",
"3.3.3.3.3.3.3.3.3.3.u.%.%.%.2.2.3.3.3.3.3.P + J H D J 2 N J B 2 U I T %.2.3.3.3.3.3.3.3.3.3.3.3.3.3.",
"3.3.3.3.3.3.3.3.3.u.u.%.%.2.2.2.3.3.3.3.3.P < b A A 8 : 7 B 1 : #.W T %.2.2.3.3.3.3.3.3.3.3.3.3.3.3.",
"3.3.3.3.3.3.3.3.3.3.3.%.%.2.2.3.3.3.3.3.3.P O ; < 2 ; - 8 D 7 : 5 Q T %.%.2.3.3.3.3.3.3.3.3.3.3.3.3.",
"3.3.3.3.3.3.3.3.3.3.u.%.%.2.2.3.3.3.3.3.x P O o - ; ; - 7 H A 2 : W T %.%.2.2.3.3.3.3.3.3.3.3.3.3.3.",
"3.3.3.3.3.3.3.3.3.u.u.%.%.2.2.3.3.3.3.#.U c 6 1.+.&.1.4 2 Z D 8 o 4 %.%.2.2.2.3.3.3.3.3.3.3.3.3.3.3.",
"3.3.3.3.3.%.3.3.3.3.%.%.%.2.2.3.3.3.3.#.I + e 4.*.:.4.4 o 2 B Z ; : k %.2.2.3.3.3.3.3.3.3.3.3.3.3.3.",
"3.3.3.3.3.%.%.3.3.u.%.%.%.%.2.2.3.3.3.#.I + X . X . . o o - b Z ; ; a %.2.2.3.3.3.3.3.3.3.3.3.3.3.3.",
"3.3.3.3.3.%.%.3.3.u.%.%.%.%.2.2.3.3.3.%.I 8 ; ; ; ; ; ; - ; n A ; ; e %.2.3.3.3.3.3.3.3.3.3.3.3.3.3.",
"3.3.3.3.3.%.%.3.3.3.%.%.%.%.2.2.3.3.3.T D B : ; ; - ; ; o n D B ; - : k 2.2.3.3.3.3.3.3.3.3.3.3.3.3.",
"3.3.3.3.3.u.u.3.3.3.u.%.%.%.2.2.3.3.#.P H Z + - ; ; ; ; b J S 2 ; 7 O r 2.2.3.3.3.3.%.3.3.3.3.3.3.3.",
"3.3.3.3.3.3.3.3.3.3.u.u.+.O.2.3.3.x t + B J A 7 ; ; ; b D D N 1 1 J N @ l 3.3.3.3.%.%.3.3.3.3.3.3.3.",
"3.3.3.3.3.3.3.3.3.3.3.3.+. .2.3.3.I Z 7 2 B D B - ; b D J N < : N D J J I x 2.3.3.%.u.3.3.3.3.3.3.3.",
"3.3.3.3.3.3.3.3.3.3.3.;.d.z 2.2.> 7.J D 7 < A N 8 7 Z D J b - N D D D D D I 2.3.3.u.3.3.3.3.3.3.3.3.",
"3.3.3.3.3.3.3.3.3.3.u.u.$.x z e - 1 S D A 7 7 N 7 Z < B b ; n Z 1 Z D D H F ! 2.3.3.3.3.3.3.3.3.3.3.",
"2.2.3.3.3.3.2.2.3.3.z 2.t.>.t M 8 7 8 D D D Z 8 8 b 8 b b N D Z - 7 J J D D U #.2.3.3.3.3.3.3.3.3.3.",
"! 2.2.2.2.2.2.2.2.2.z a.x.j.6.5.D S b N D D D D D 7 Z b b J H S b 1 8 8 8 A R #.2.2.2.3.3.3.3.2.2.%.",
"%.%.%.2.>.2.2.+.+.+.g p.x.v.s.@.G H n b J S D D D B A Z B J D A 7 ; - 8 b n Z E %.%.2.2.2.2.2.2.%.%.",
"%.%.%.%.+. .+.!  .O. .>.f.f.:.0 Z D n b n B D D D D D D J Z B 7 2 B 8 O Z Z A R %.%.%.%.%.%.%.%.%.%.",
"%.%.%.%.%.%.%.%.%.%.%.%.$.~ c X Z D n b 8 b D H D D D D A b O + A D D O B J H U %.%.%.%.%.%.%.%.%.%.",
"%.%.%.u.3.u.3.u.u.u.u.3.3.Q n - Z D B N n 1 B B D D A A b n J J D D D @ Z J Z L u.u.u.%.%.%.%.%.%.%.",
"%.%.%.p.3.3.3.3.3.u.u.3.3.Q N ; B A N D N 7 N 1 D D A 8.9.0.,.M D D D D D Z + e 3.3.3.3.u.u.u.%.%.%.",
"%.%.2.2.3.3.3.3.3.3.3.3.3.Q n ; B Z 8 H 8 : N < D D h.l.z.k.t.6 A S D D S + o r 3.3.3.3.3.u.u.%.%.%.",
"%.2.2.2.3.3.3.3.3.3.3.3.3.Q n - Z B 8 J 8 b 2 7 D % g.c.b.y.} i A D D D 2 ; X r 3.3.3.3.3.3.3.%.%.%.",
"%.2.2.3.3.3.3.3.3.3.3.3.3.Q N ; Z 1 7 D B N 2 Z N $ / i.a.=.{ i D D D 8 ; X 5 3.3.3.3.3.3.3.u.u.%.%.",
"%.2.2.3.3.3.3.3.3.3.3.3.3.! 9 - Z ; 2 n 2 n 2 Z ; & = S < u ..q D D B O ; X e $.3.3.3.3.3.3.3.u.%.%.",
"%.2.3.3.3.3.3.3.3.3.3.3.3.3.j 2 Z 1 -   2 B N Z ; N = & y ..w . S Z + - o > f 3.%.3.3.3.3.3.3.u.u.%.",
"%.2.3.3.3.3.3.3.3.%.%.%.3.3.E 8 Z O 1 b A J D N ; n H * ` i . m A + ; ; X 4 3.3. .+.3.3.3.3.3.3.3.%.",
"%.2.3.3.3.3.3.3.3.%.%.%.3.3.E 8 C B O b D D Z 2 b N S ` | ..O c c : ; ; X e 3.3.+.! 3.3.3.3.3.3.u.%.",
"%.2.3.3.3.3.3.3.3.u.u.%.%.3.E E x C 1   n J B + n N _ ] ' r.<.v - ; ; ; ; z 3.3. .O.3.3.3.3.3.p.u.%.",
"%.2.2.3.3.3.3.3.3.3.3.%.%.x R Y T R f X n Z : O 7 N ) w.} e. .X ; ; ; ; : z 3.3.u.u.3.3.3.3.3.3.3.%.",
"%.2.2.3.3.3.3.3.3.3.3.p.u.! E ! 3.3.z , n Z 2 b ; N ) w.q.e.X.X ; - ; ; : z 3.3.3.3.3.3.3.3.3.u.u.%.",
"%.2.2.3.3.3.3.3.3.3.3.3.3.3.3.3.3.3.3.p c A < < ; N _ [ ' r.<.. > s ; ; ; z 3.3.3.3.3.3.3.3.3.u.u.%.",
"%.2.2.3.3.3.3.3.3.3.3.3.3.3.3.3.3.3.3.r o N 2 N ; N # ( | o.> o : 3.r ; : z 3.3.3.3.3.3.3.3.3.3.u.%.",
"%.%.2.3.3.3.3.3.3.3.3.3.3.3.3.3.3.3.3.s : n b B - N < b 3 1 o X : 3.3.> ; z 3.3.3.3.3.3.3.3.3.3.u.%.",
"%.%.2.2.3.3.3.3.3.3.3.3.3.3.3.3.3.3.3.$.s b D B - N O n : o o 4 > 3.3.3 : k 3.3.3.3.3.3.+.3.3.3.u.%.",
"%.%.%.2.3.3.3.3.3.3.3.3.3.3.3.3.%.%.3.3.3.e n B - N 1 N O 5 5 s > 3.3.5 : k 3.3.3.3.3.3.%.%.3.3.3.%.",
"%.2.2.2.3.3.3.3.3.3.3.3.3.3.3.%.%.u.3.3.3.f 2 B : N j V o r z z k 3.3.4 s 3.3.3.3.3.3.3.%.%.3.3.u.%.",
"%.2.2.3.3.3.3.3.3.3.3.3.3.3.3.u.u.3.3.3.3.z > ; X c ! V O r 3.3.3.3.3.4 k 3.3.3.3.3.3.3.u.u.3.u.u.%.",
"%.2.2.3.3.3.3.3.3.3.3.3.3.3.3.3.3.3.3.3.3.3.k > > b A ^ d e 3.3.3.3.r : k 3.3.3.3.3.3.3.3.3.3.3.3.%.",
"%.2.3.3.3.3.3.3.3.3.3.3.3.3.2.2.3.3.3.3.3.3.u.u.h r T S K f 3.3.3.3.k k 3.3.3.3.3.3.3.3.3.3.3.u.p.%.",
"%.2.3.3.3.3.3.3.3.3.3.3.2.2.2.2.2.3.3.3.3.3.2.u.%.%.%.T I #.3.3.3.3.1.2.>.1.3.3.3.3.3.3.3.3.3.u.2.%.",
"%.2.2.2.2.3.2.2.2.2.2.2.2.2.2.%.2.2.3.3.2.2.2.%.%.%.%.T ! 2.2.2.2.1.-. . .2.2.2.2.3.2.2.2.3.2.1.%.%.",
"%.%.%.2.2.2.2.%.%.%.%.2.%.%.%.%.%.2.2.2.2.%.%.%.%.%.%.x %.%.%.2.2. .%.%.%.%.%.%.2.2.2.2.2.2.2.%.%.%.",
"%.%.%.%.%.%.%.%.%.%.%.%.%.%.%.%.%.%.%.%.%.%.%.%.%.%.%.%.%.%.%.%.+.O.! +.%.%.%.%.%.%.%.%.%.%.%.%.%.%."
};
