/* XPM */
static char *result[] = {
/* columns rows colors chars-per-pixel */
"50 50 148 2 ",
"   c #0D0516",
".  c #12061B",
"X  c #150C1E",
"o  c #190E1F",
"O  c #2A071D",
"+  c #2B0E1E",
"@  c #3C0C1A",
"#  c #3E171F",
"$  c #1C201F",
"%  c #0E3112",
"&  c #2B2D17",
"*  c #342E17",
"=  c #3E2B18",
"-  c #160F20",
";  c #190F20",
":  c #171222",
">  c #1B1322",
",  c #1E1925",
"<  c #1F1B28",
"1  c #220F20",
"2  c #2A0F20",
"3  c #310F20",
"4  c #251020",
"5  c #2C1121",
"6  c #211728",
"7  c #231D2A",
"8  c #331121",
"9  c #3B1221",
"0  c #321825",
"q  c #252825",
"w  c #25222D",
"e  c #28262F",
"r  c #3E272F",
"t  c #253027",
"y  c #28322C",
"u  c #2A2531",
"i  c #252A31",
"p  c #2B2B33",
"a  c #2C2C3A",
"s  c #332A32",
"d  c #2E3636",
"f  c #303337",
"g  c #3C3136",
"h  c #323539",
"j  c #3B363A",
"k  c #363A3D",
"l  c #3C3D3F",
"z  c #41101F",
"x  c #4F121F",
"c  c #5A1B1B",
"v  c #67141E",
"b  c #6B141E",
"n  c #49291E",
"m  c #47311C",
"M  c #48301D",
"N  c #4F0F20",
"B  c #441321",
"V  c #4B1422",
"C  c #481A26",
"Z  c #521522",
"A  c #5B1622",
"S  c #511E28",
"D  c #641722",
"F  c #6C1722",
"G  c #641C25",
"H  c #6D1823",
"J  c #641F28",
"K  c #6A1F28",
"L  c #741723",
"P  c #721923",
"I  c #44212B",
"U  c #5B242C",
"Y  c #5A282F",
"T  c #4F2F34",
"R  c #542C32",
"E  c #4C3136",
"W  c #46373A",
"Q  c #433A3B",
"!  c #483F3C",
"~  c #523035",
"^  c #5F3B32",
"/  c #533E38",
"(  c #632021",
")  c #61212A",
"_  c #6D2B3A",
"`  c #74313A",
"'  c #144417",
"]  c #0D5C14",
"[  c #135B15",
"{  c #244518",
"}  c #166714",
"|  c #3B7F14",
" . c #385433",
".. c #3C5D33",
"X. c #327F29",
"o. c #425C38",
"O. c #7C5B3A",
"+. c #416B33",
"@. c #4A793E",
"#. c #353E41",
"$. c #3C3C43",
"%. c #423E40",
"&. c #513A41",
"*. c #374243",
"=. c #3B4444",
"-. c #424242",
";. c #49404D",
":. c #4A4C4D",
">. c #594756",
",. c #76454B",
"<. c #4C6F42",
"1. c #56634B",
"2. c #4E7142",
"3. c #735D6C",
"4. c #616161",
"5. c #72736D",
"6. c gray46",
"7. c #8F2934",
"8. c #86303A",
"9. c #983745",
"0. c #8D5D60",
"q. c #965C64",
"w. c #8F6B79",
"e. c #3C8633",
"r. c #529413",
"t. c #5E9010",
"y. c #6F9B0F",
"u. c #619F13",
"i. c #4B853F",
"p. c #777083",
"a. c #807A83",
"s. c #917F88",
"d. c #858283",
"f. c #92848D",
"g. c #948E96",
"h. c #929293",
"j. c gray62",
"k. c #AE8890",
"l. c #A69DA0",
"z. c #B2ACB2",
"x. c #BCBBB7",
"c. c #D4C5C6",
"v. c #DACCCD",
"b. c #DFDBDA",
"n. c #E2D8DA",
"m. c #ECE6E7",
"M. c #EEEBEB",
"N. c #F1EAEB",
/* pixels */
"-.-.-.-.-.-.-.-.-.-.-.-.-.-.-.-.-.-.-.-.-.-.-.-.-.-.-.-.-.-.-.-.-.-.-.-.-.-.-.-.-.-.-.-.-.-.-.-.-.-.",
"j.j.6.j.j.-.-.j.j.-.-.-.-.-.4.j.j.6.j.j.6.6.j.j.W Q W W W W $.j.-.-.-.-.-.-.4.j.j.j.j.-.-.-.-.-.-.j.",
"j.6.6.j.j.-.j.j.6.j.-.-.-.-.4.j.j.6.6.6.6.6.j.E F H H P F P Y l j.-.-.-.-.4.4.6.j.6.6.6.j.-.-.j.6.j.",
"6.6.6.6.6.6.j.6.6.6.j.-.-.4.4.6.6.6.6.6.6.6.E H F F H V B B D Y 6.-.-.-.-.4.4.6.6.6.6.6.j.j.6.6.6.6.",
"6.6.6.6.6.6.6.6.6.6.j.-.-.-.4.6.6.6.6.6.6.E K F H H F Z B ; 2 A Y j.-.-.-.4.4.6.6.6.6.6.6.j.6.6.6.6.",
"6.6.6.6.6.6.6.6.6.6.6.-.-.-.4.4.6.6.6.6.E F H H H H H F F B - 2 D U -.-.4.4.6.6.6.6.6.6.6.6.6.6.6.6.",
"6.6.6.6.6.6.6.6.6.6.j.-.-.-.4.4.6.6.6.6.~ @ V H F H 8 Z F F 5 C G J -.-.4.6.6.6.6.6.6.6.6.6.6.6.6.6.",
"6.6.6.6.6.6.6.6.6.j.j.-.-.4.4.4.6.6.6.6.~ 9 8 H P A 2 : A 8 X f W J -.-.4.4.6.6.6.6.6.6.6.6.6.6.6.6.",
"6.6.6.6.6.6.6.6.6.6.6.-.-.4.4.6.6.6.6.6.R 9 - 8 8 5 ; - D 9 - 6 Q J -.-.-.4.6.6.6.6.6.6.6.6.6.6.6.6.",
"6.6.6.6.6.6.6.6.6.6.j.-.-.4.4.6.6.6.6.6.R 9 - X : X - - D D 3 : g ) -.-.-.4.4.6.6.6.6.6.6.6.6.6.6.6.",
"6.6.6.6.6.6.6.6.6.j.j.-.-.4.4.6.6.6.6.l A 8 %.;., >.u > A P V ; 6 %.-.-.4.4.4.6.6.6.6.6.6.6.6.6.6.6.",
"6.6.6.6.6.-.6.6.6.6.-.-.-.4.4.6.6.6.6.Q C   p.g.u z.%.> 1 A P 3 > h -.-.4.4.6.6.6.6.6.6.6.6.6.6.6.6.",
"6.6.6.6.6.-.-.6.6.j.-.-.-.-.4.4.6.6.6.Q B - . . -   - ; - 9 L 0 X , %.-.4.4.6.6.6.6.6.6.6.6.6.6.6.6.",
"6.6.6.6.6.-.-.6.6.j.-.-.-.-.4.4.6.6.6.W V - ; : ; ; ; ; - 9 L 3 - , -.-.4.6.6.6.6.6.6.6.6.6.6.6.6.6.",
"6.6.6.6.6.-.-.6.6.6.-.-.-.-.4.4.6.6.6.Q H 9 - ; ; ; ; ; 2 K P 8 : ; p -.4.4.6.6.6.6.6.6.6.6.6.6.6.6.",
"6.6.6.6.6.j.j.6.6.6.j.! ! -.4.4.6.6.6.H H V ; ; ; - ; 2 D L 9 ; 5 5 7 k 4.4.6.6.6.6.-.6.6.6.6.6.6.6.",
"6.6.6.6.6.6.6.6.6.6.j./ / *.4.6.6.6.i B F F V > o ; 8 H H A 5 ; D D 9 j 4.6.6.6.6.-.-.6.6.6.6.6.6.6.",
"6.6.6.6.6.6.6.6.6.6.6.^ ^ #.4.6.6.i 9.6 V F F 4 X 8 D H A 5 - B H H P ) 4.4.4.6.6.-.j.6.6.6.6.6.6.6.",
"6.6.6.6.6.6.6.6.6.6.6.O.O.#.4.#.s _ 7.V 4 V G 8 V 9 H H Z : 9 D F H F F ) l 4.6.6.j.6.6.6.6.6.6.6.6.",
"6.6.6.6.6.6.6.6.6.6.j.5.5.k %.&.: C F H V 8 B 8 P V Z A 4 B F B Z P F F F W 4.4.6.6.6.6.6.6.6.6.6.6.",
"4.4.6.6.6.6.4.4.6.6.6.h d *.,.9.2 ; V F P L 9 5 P V Z 8 B H P 8 ; P P P F ) -.4.4.6.6.6.6.6.6.6.6.6.",
"-.4.4.4.4.4.4.4.4.4.-.d.f.>.8.H P Z o D F F H V Z V Z P F F F V + V B B D U -.-.4.4.4.6.6.6.6.4.4.-.",
"-.-.-.4.4.4.4.-.-.-.:.v.N.z.` K F F 4 D F F F H A V Z P F F F B o ; 8 Z 9 D R -.-.-.4.4.4.4.4.4.-.-.",
"-.-.-.-.-.-.-.-.-.=.:.c.N.m.a.&.P F > F F P H F H H F F F P 9 > G A - A F F R *.-.-.-.-.-.-.-.-.-.-.",
"-.-.-.-.-.-.-.-.-.-.-.4.l.3.7 5 P F 8 A B P P F H H F F V + + A H H B Z H P Y *.-.-.-.-.-.-.-.-.-.-.",
"-.-.-.j.6.j.6.j.j.j.j.6.=.U 2 5 F P F v B A Z G H H v @ x v F P H H A D F D r j.j.j.j.-.-.-.-.-.-.-.",
"-.-.-.j.6.6.6.6.6.j.j.6.*.U 2 5 P V D G 4 V 9 A H b q.f.k.w.I A H F H F F 5 e j.6.6.6.6.j.j.j.-.-.-.",
"-.-.4.4.6.6.6.6.6.6.6.6.*.U 2 2 P 8 G A 1 V 8 A v 0.n.M.b.h.a V P H H D 8 X e 6.6.6.6.6.6.j.j.-.-.-.",
"-.4.4.4.6.6.6.6.6.6.6.6.#.U 2 9 P 9 D A 9 9 5 F c 1.v.m.x.@. .V P F D 8 : : s 6.6.6.6.6.6.6.6.-.-.-.",
"-.4.4.6.6.6.6.6.6.6.6.6.*.U 9 P D 5 D D Z V V Z z * q.s.3.o...N F F B : o 7 6.6.6.6.6.6.6.6.j.j.-.-.",
"-.4.4.6.6.6.6.6.6.6.6.6.*.U 9 F V - 9 H H P + # z = c . $ ..t Z P D 5 ; ; 7 6.6.6.6.6.6.6.6.6.j.-.-.",
"-.4.6.6.6.6.6.6.6.6.6.6.6.Q 0 F V : : D V A 9 x # ( * % +.q X Z D 4 ; ; ; h 6.6.-.6.6.6.6.6.6.j.j.-.",
"-.4.6.6.6.6.6.6.6.-.-.-.6.6.S 8 Z ; ; : : Z B V 4 P F ' > - B D 2 ; ; ; > k 6.6.-.-.6.6.6.6.6.6.6.-.",
"-.4.6.6.6.6.6.6.6.-.-.-.6.6.S + A 1 ; 8 V F F A 4 ( { ] i.y V A ; ; ; ; 7 k 6.6.-.-.6.6.6.6.6.6.j.-.",
"-.4.6.6.6.6.6.6.6.j.j.-.-.6.U s U I : z F F F V x m | | X.<.O 2 ; - ; - k 6.6.6.-.-.6.6.6.6.6.j.j.-.",
"-.4.4.6.6.6.6.6.6.6.6.-.-.6.U =.E ~ > o V F G + L m u.y.X.<.. ; ; ; ; ; k 6.6.6.l.j.6.6.6.6.6.6.6.-.",
"-.4.4.6.6.6.6.6.6.6.6.j.Q l U R E E h : 9 L 9 4 b M r.t.X.2.. ; : ; ; o h 6.6.6.6.6.6.6.6.6.6.j.j.-.",
"-.4.4.6.6.6.6.6.6.6.6.6.T T R E R 6.6.< 9 L 8 5 + n [ } e.o.. 6 f , o o k 6.6.6.6.6.6.6.6.6.6.j.j.-.",
"-.4.4.6.6.6.6.6.6.6.6.6.*.R Q 6.*.6.6.k 9 P 8 9 5 V & ' <.; ; ; k k 6 o k 6.6.6.6.6.6.6.6.6.6.6.j.-.",
"-.-.4.6.6.6.6.6.6.6.6.6.6.6.6.6.6.6.6.k 5 G 9 8 5 Z Z ; . ; ; ; k 6.u ; h 6.6.6.6.6.6.6.6.6.6.6.j.-.",
"-.-.4.4.6.6.6.6.6.6.6.6.6.6.6.6.6.6.6.k : V z V 5 V V 1 : o e w k 6.p o k 6.6.6.6.6.6.6.-.6.6.6.j.-.",
"-.-.-.4.6.6.6.6.6.6.6.6.6.6.6.6.-.-.6.6.a B F A 4 V Z 1 7 e p u k 6.e : k 6.6.6.6.6.6.6.-.-.6.6.6.-.",
"-.4.4.4.6.6.6.6.6.6.6.6.6.6.6.=.-.j.6.6.6.w z A 4 Y U 1 7 k 6.6.6.6.u f 6.6.6.6.6.6.6.6.-.-.6.6.j.-.",
"-.4.4.6.6.6.6.6.6.6.6.6.6.6.6.j.j.6.6.6.6.h 6 x 5 ( G s 7 k 6.6.6.k 6 f 6.6.6.6.6.6.6.6.j.j.6.j.j.-.",
"-.4.4.6.6.6.6.6.6.6.6.6.6.6.6.6.6.6.6.6.6.=.7 2 > V F o.w k 6.6.6.h 7 k 6.6.6.6.6.6.6.6.6.6.6.6.6.-.",
"-.4.6.6.6.6.6.6.6.6.6.6.6.6.4.4.6.6.6.6.6.6.h < 7 j U D j 6.6.6.6.6.k 6.6.6.6.6.6.6.6.6.6.6.6.j.j.-.",
"-.4.6.6.6.6.6.6.6.6.6.6.4.4.4.4.4.6.6.6.6.6.4.j.%.%.%.J l 4.6.6.6.6.4.4.4.4.6.6.6.6.6.6.6.6.6.j.4.-.",
"-.4.4.4.4.6.4.4.4.4.4.4.4.4.4.-.4.4.6.6.4.4.4.;.%.%.R 4.4.4.4.4.4.4.4.-.=.4.4.4.4.6.4.4.4.6.4.4.-.-.",
"-.-.-.4.4.4.4.-.-.-.-.4.-.-.-.-.-.4.4.4.4.-.-.-.-.-.-.-.-.-.-.4.4.-.-.-.-.-.-.-.4.4.4.4.4.4.4.-.-.-.",
"-.-.-.-.-.-.-.-.-.-.-.-.-.-.-.-.-.-.-.-.-.-.-.-.-.-.-.-.-.-.-.-.-.-.-.-.-.-.-.-.-.-.-.-.-.-.-.-.-.-."
};
