/* XPM */
static char *result[] = {
/* columns rows colors chars-per-pixel */
"50 50 145 2 ",
"   c #14061D",
".  c #160C1E",
"X  c #190E1F",
"o  c #250E1F",
"O  c #2E0E1F",
"+  c #320F1F",
"@  c #3E0D1D",
"#  c #2A121C",
"$  c #3D101F",
"%  c #0D3C0E",
"&  c #1A311A",
"*  c #213311",
"=  c #0F0E20",
"-  c #150F20",
";  c #1A0F20",
":  c #1C1323",
">  c #1E1826",
",  c #1F1E2A",
"<  c #240F20",
"1  c #330E21",
"2  c #241020",
"3  c #2B1121",
"4  c #201A27",
"5  c #211C29",
"6  c #281F2E",
"7  c #331121",
"8  c #3C1221",
"9  c #202025",
"0  c #26232E",
"q  c #3C222C",
"w  c #273627",
"e  c #292730",
"r  c #2B2A32",
"t  c #332B35",
"y  c #3B2A3B",
"u  c #2F3137",
"i  c #323036",
"p  c #323439",
"a  c #3B353A",
"s  c #363A3D",
"d  c #3B3C3E",
"f  c #4B0E1C",
"g  c #6B131E",
"h  c #4A251C",
"j  c #452819",
"k  c #56211E",
"l  c #52281F",
"z  c #431321",
"x  c #4B1421",
"c  c #4E1D28",
"v  c #531522",
"b  c #5D1622",
"n  c #521C27",
"m  c #531D28",
"M  c #5F1E29",
"N  c #631722",
"B  c #6B1723",
"V  c #671D26",
"C  c #6D1823",
"Z  c #631F28",
"A  c #711621",
"S  c #711823",
"D  c #4F242C",
"F  c #5B2220",
"G  c #5D232B",
"H  c #512231",
"J  c #522C32",
"K  c #4B3236",
"L  c #45363A",
"P  c #4B373A",
"I  c #423A3C",
"U  c #493F3B",
"Y  c #63202A",
"T  c #73242E",
"R  c #713A2B",
"E  c #652734",
"W  c #7A323A",
"Q  c #144E13",
"!  c #145316",
"~  c #23471F",
"^  c #27571E",
"/  c #0F6015",
"(  c #276915",
")  c #357A12",
"_  c #364C2E",
"`  c #3F423E",
"'  c #38612E",
"]  c #317E2B",
"[  c #4A4A3D",
"{  c #574634",
"}  c #5A4F38",
"|  c #5F5033",
" . c #694731",
".. c #6A423E",
"X. c #615236",
"o. c #436734",
"O. c #487A3E",
"+. c #363F42",
"@. c #502D41",
"#. c #4A3C4B",
"$. c #364141",
"%. c #3B4242",
"&. c gray26",
"*. c #4A424F",
"=. c #5D4549",
"-. c #565246",
";. c #57574F",
":. c #5C5A5C",
">. c #674549",
",. c #684D5A",
"<. c #507646",
"1. c #645D67",
"2. c #655768",
"3. c #616161",
"4. c #68696B",
"5. c gray46",
"6. c #8A3C23",
"7. c #8A2834",
"8. c #A82D38",
"9. c #8B4826",
"0. c #973441",
"q. c #8F474F",
"w. c #8E7444",
"e. c #8B636D",
"r. c #976068",
"t. c #368125",
"y. c #478614",
"u. c #518E14",
"i. c #6B9D10",
"p. c #7BA80F",
"a. c #5D884D",
"s. c #D88640",
"d. c #E4B164",
"f. c #847E81",
"g. c #9F8390",
"h. c gray62",
"j. c #B2A2A9",
"k. c #B4AFB4",
"l. c #C4B7BC",
"z. c #ECCE9F",
"x. c #D7CCCD",
"c. c #DDDCD9",
"v. c #E5DADC",
"b. c #EAE1E2",
"n. c #F1EDED",
/* pixels */
"&.&.&.&.&.&.&.&.&.&.&.&.&.&.&.&.&.&.&.&.&.&.&.&.&.&.&.&.&.&.&.&.&.&.&.&.&.&.&.&.&.&.&.&.&.&.&.&.&.&.",
"h.h.5.h.h.&.&.h.h.&.&.&.&.&.3.h.h.5.h.h.5.5.h.h.5.5.h.h.h.h.5.h.&.&.&.&.&.&.3.h.h.h.h.&.&.&.&.&.&.h.",
"h.5.5.h.h.&.h.h.5.h.&.&.&.&.3.h.h.5.5.5.5.5.h.5.5.d +.d d +.5.h.h.&.&.&.&.3.3.5.h.5.5.5.h.&.&.h.5.h.",
"5.5.5.5.5.5.h.5.5.5.h.&.&.3.3.5.5.5.5.5.5.5.5.L V C C S S S G 5.5.&.&.&.&.3.3.5.5.5.5.5.h.h.5.5.5.5.",
"5.5.5.5.5.5.5.5.5.5.h.&.&.&.3.5.5.5.5.5.5.5.I V C C A 8 7 7 v G $.h.&.&.&.3.3.5.5.5.5.5.5.h.5.5.5.5.",
"5.5.5.5.5.5.5.5.5.5.5.&.&.&.3.3.5.5.5.5.5.L V C C C S b x ; 2 b G d &.&.3.3.5.5.5.5.5.5.5.5.5.5.5.5.",
"5.5.5.5.5.5.5.5.5.5.h.&.&.&.3.3.5.5.5.5.5.G b C C C N V S v 2 7 A J &.&.3.5.5.5.5.5.5.5.5.5.5.5.5.5.",
"5.5.5.5.5.5.5.5.5.h.h.&.&.3.3.3.5.5.5.5.5.n 3 A C C 8 7 B N 7 D G J &.&.3.3.5.5.5.5.5.5.5.5.5.5.5.5.",
"5.5.5.5.5.5.5.5.5.5.5.&.&.3.3.5.5.5.5.5.5.m ; x B b 2 - v 3 - p I J [ %.[ :.5.5.5.5.5.5.5.5.5.5.5.5.",
"5.5.5.5.5.5.5.5.5.5.h.&.&.3.3.5.5.5.5.5.5.m - - - ; - - N v - - I J #.` %.1.3.5.5.5.5.5.5.5.5.5.5.5.",
"5.5.5.5.5.5.5.5.5.h.h.+.9. .+.5.5.5.5.+.>.M . . ; . . . b C z - t L &.&.3.3.3.5.5.5.5.5.5.5.5.5.5.5.",
"5.5.5.5.5.&.5.5.5.5.&.&.} [ 3.5.5.5.5.$.W $ *.k.y k.1.  8 S b 2 > h.&.&.3.3.5.5.5.5.5.5.5.5.5.5.5.5.",
"5.5.5.5.5.&.&.5.5.h.&.&.+.I %.3.5.5.5.&.G o 6 #.5 #.t . : 8 C 3 ; r &.&.3.3.5.5.5.5.5.5.5.5.5.5.5.5.",
"5.5.5.5.5.&.&.5.5.h.&.&.$.R U 3.5.5.5.$.M 3 . . - . - ; - 7 C 3 X r &.&.3.5.5.5.5.5.5.5.5.5.5.5.5.5.",
"5.5.5.5.5.&.&.5.5.5.&.&.X.[ +.3.5.5.5.=.T 8 ; ; ; ; ; ; ; x C 2 X 5 +.&.3.3.5.5.5.5.5.5.5.5.5.5.5.5.",
"5.5.5.5.5.h.h.5.5.5.h.&.} 9.U 3.5.5.` q.7.b ; - ; ; ; ; v S v ; ; X u &.3.3.5.5.5.5.&.5.5.5.5.5.5.5.",
"5.5.5.5.5.5.5.5.5.5.h.h.6. .$.5.5.5.p z A C v - ; ; - v S C 8 ; B z X p 3.5.5.5.5.&.&.5.5.5.5.5.5.5.",
"5.5.5.5.5.5.5.5.5.5.5.{ s.w.` 5.5.>.0.2 8 V S z ; ; v S B 8 ; 7 C C C J 3.3.3.5.5.&.h.5.5.5.5.5.5.5.",
"5.5.5.5.5.5.5.5.5.5.5.| z.d.{ 3.i 7.C N 2 8 S z z < C C b - 7 C C C A V J &.3.5.5.h.5.5.5.5.5.5.5.5.",
"5.5.5.5.5.5.5.5.5.5.h.` ;.-.&.r : < N C N # z z b v x C 3 1 N 8 B C C S G &.3.3.5.5.5.5.5.5.5.5.5.5.",
"3.3.5.5.5.5.3.3.5.5.5.&.4.4.a H 3 7 3 C C V v 3 b b x x 8 B V < 3 C S S B J &.3.3.5.5.5.5.5.5.5.5.5.",
"&.3.3.3.3.3.3.3.1.3.3.:.v.b.e.8.A S z b C C A z N b z S S C B x 2 x z x A J &.&.3.3.3.5.5.5.5.3.3.&.",
"&.&.&.3.3.3.3.&.&.&.&.:.x.n.l.@.E C b z C C C N N b z S C S B 8 X X 8 z x Y d &.&.&.3.3.3.3.3.3.&.&.",
"&.&.&.&.&.&.&.&.&.&.&.&.f.l.2.. z C b x + b C C C C B C C N 8 < N z : b B C L &.&.&.&.&.&.&.&.&.&.&.",
"&.&.&.&.&.&.&.&.&.&.&.&.&.d n = z C b x 7 x C B C C C C v 3 7 N C A 3 b C C L &.&.&.&.&.&.&.&.&.&.&.",
"&.&.&.h.5.h.5.h.h.h.h.5.5.h.n - x C N N b 7 b v C C g @ f g S C C C v N S v a h.h.h.h.&.&.&.&.&.&.&.",
"&.&.&.h.5.5.5.5.5.h.h.5.5.5.n = z C 7 S 8 3 v z S C r.j.j.g.K b C C C C v : p h.5.5.5.5.h.h.h.&.&.&.",
"&.&.3.3.5.5.5.5.5.5.5.5.5.5.n X v S 3 C 3 7 8 z C ..v.n.c.g.p b C C S v : X p 5.5.5.5.5.5.h.h.&.&.&.",
"&.3.3.3.5.5.5.5.5.5.5.5.5.5.n 3 S x 3 C 3 x X b A ~ l.b.k.^ ' b C C v ; . 5 s 5.5.5.5.5.5.5.5.&.&.&.",
"&.3.3.5.5.5.5.5.5.5.5.5.5.5.c 3 C 2 3 B v N x 8 $ * T ,.&._ o.b C C < - . r 5.5.5.5.5.5.5.5.h.h.&.&.",
"&.3.3.5.5.5.5.5.5.5.5.5.5.5.p + B 2 - x S B v 8 b k j # w o.X b C z ; ; ; r 5.5.5.5.5.5.5.5.5.h.&.&.",
"&.3.5.5.5.5.5.5.5.5.5.5.5.5.P v 8 < : 7 v 7 v 8 # C h % ' . o N x - ; X 0 %.5.5.&.5.5.5.5.5.5.h.h.&.",
"&.3.5.5.5.5.5.5.5.&.&.&.5.5.I v z v ; - - x N b 2 B l Q o.. z B - ; ; . 5 %.5.5.&.&.5.5.5.5.5.5.5.&.",
"&.3.5.5.5.5.5.5.5.&.&.&.5.5.L M s V ; 8 N C C C 3 F ! / ] <.@ 1 ; ; ; > s 5.5.5.&.&.5.5.5.5.5.5.h.&.",
"&.3.5.5.5.5.5.5.5.h.h.&.&.5.L Z ` V i X x V A x b F y.i.t.a.  ; - ; ; > 5.5.5.5.&.&.5.5.5.5.5.h.h.&.",
"&.3.3.5.5.5.5.5.5.5.5.&.&.5.L V L J s > . b N 3 N F u.p.] a.  X . ; ; > 5.5.5.5.h.h.5.5.5.5.5.5.5.&.",
"&.3.3.5.5.5.5.5.5.5.5.h.h.5.J L I 5.5.r . N v - 7 F ( ) ] <.  : e ; X 4 5.5.5.5.5.5.5.5.5.5.5.h.h.&.",
"&.3.3.5.5.5.5.5.5.5.5.5.5.5.d 5.5.5.5.5.> b v 7 2 b & ! O.9 . X 5.r X > 5.5.5.5.5.5.5.5.5.5.5.h.h.&.",
"&.3.3.5.5.5.5.5.5.5.5.5.5.5.5.5.5.5.5.5.5 v v ; : b x 1 . : X : 5.%.5 > 5.5.5.5.5.5.5.5.5.5.5.5.h.&.",
"&.&.3.5.5.5.5.5.5.5.5.5.5.5.5.5.5.5.5.5.5 O v z O b z 7 - X 5 > 5.5.5 > 5.5.5.5.5.5.5.5.5.5.5.5.h.&.",
"&.&.3.3.5.5.5.5.5.5.5.5.5.5.5.5.5.5.5.5.d 3 C N O b x 3 > r 0 > 5.5.> > 5.5.5.5.5.5.5.5.&.5.5.5.h.&.",
"&.&.&.3.5.5.5.5.5.5.5.5.5.5.5.5.&.&.5.5.5.p O N o Z J O > 3.d d 5.%.> p 5.5.5.5.5.5.5.5.&.&.5.5.5.&.",
"&.3.3.3.5.5.5.5.5.5.5.5.5.5.5.&.&.h.5.5.5.s 5 z 3 C Y q , 5.5.5.5.p X p 5.5.5.5.5.5.5.5.&.&.5.5.h.&.",
"&.3.3.5.5.5.5.5.5.5.5.5.5.5.5.h.h.5.5.5.5.5.p 2 : z B P 0 5.5.5.5.e 0 +.5.5.5.5.5.5.5.5.h.h.5.h.h.&.",
"&.3.3.5.5.5.5.5.5.5.5.5.5.5.5.5.5.5.5.5.5.5.5.e > s J B a 5.5.5.5.s 5.5.5.5.5.5.5.5.5.5.5.5.5.5.5.&.",
"&.3.5.5.5.5.5.5.5.5.5.5.5.5.3.3.5.5.5.5.5.5.h.h.%.&.d G I 5.5.5.5.5.5.5.5.5.5.5.5.5.5.5.5.5.5.h.h.&.",
"&.3.5.5.5.5.5.5.5.5.5.5.3.3.3.3.3.5.5.5.5.5.3.h.&.&.L d 3.3.5.5.5.5.3.3.:.3.5.5.5.5.5.5.5.5.5.h.3.&.",
"&.3.3.3.3.5.3.3.3.3.3.3.3.3.3.&.3.3.5.5.3.3.3.&.&.&.&.3.3.3.3.3.3.3.3.&.[ 3.3.3.3.5.3.3.3.5.3.1.&.&.",
"&.&.&.3.3.3.3.&.&.&.&.3.&.&.&.&.&.3.3.3.3.&.&.&.&.&.&.&.&.&.&.3.3.&.&.&.&.&.&.&.3.3.3.3.3.3.3.&.&.&.",
"&.&.&.&.&.&.&.&.&.&.&.&.&.&.&.&.&.&.&.&.&.&.&.&.&.&.&.&.&.&.&.&.&.&.&.&.&.&.&.&.&.&.&.&.&.&.&.&.&.&."
};
