/* XPM */
static char *result[] = {
/* columns rows colors chars-per-pixel */
"50 50 164 2 ",
"   c #030113",
".  c #0F0516",
"X  c #10061B",
"o  c #150C1E",
"O  c #1A0E1F",
"+  c #240D1E",
"@  c #2B1C1E",
"#  c #34101E",
"$  c #0E3A0F",
"%  c #24280B",
"&  c #2D2A18",
"*  c #3D2B18",
"=  c #160E20",
"-  c #1A0F20",
";  c #1C1322",
":  c #1E1B25",
">  c #1E1E2A",
",  c #210F20",
"<  c #241020",
"1  c #2B1121",
"2  c #221A27",
"3  c #221C29",
"4  c #331221",
"5  c #3B1221",
"6  c #3A1A2C",
"7  c #1F3B20",
"8  c #232624",
"9  c #26222D",
"0  c #29232E",
"q  c #2E322D",
"w  c #32382F",
"e  c #292730",
"r  c #242E34",
"t  c #2C2B33",
"y  c #362F35",
"u  c #2F3539",
"i  c #303237",
"p  c #33363A",
"a  c #3C343C",
"s  c #343B3D",
"d  c #3B3B3E",
"f  c #4A0A18",
"g  c #40111F",
"h  c #6B0A19",
"j  c #49271A",
"k  c #431321",
"l  c #4C1422",
"z  c #471B28",
"x  c #4C1F2F",
"c  c #541522",
"v  c #5C1622",
"b  c #541C28",
"n  c #641622",
"m  c #6B1722",
"M  c #631B25",
"N  c #6D1823",
"B  c #731523",
"V  c #711823",
"C  c #42222C",
"Z  c #5E2220",
"A  c #52262D",
"S  c #5C242C",
"D  c #59282F",
"F  c #452931",
"G  c #4F2E34",
"H  c #522D32",
"J  c #592B31",
"K  c #4A3337",
"L  c #45363A",
"P  c #493439",
"I  c #43393C",
"U  c #5F3D33",
"Y  c #5D333D",
"T  c #622129",
"R  c #76222E",
"E  c #6D3C2E",
"W  c #793A28",
"Q  c #6A3D35",
"!  c #154616",
"~  c #284B18",
"^  c #325A16",
"/  c #3E790E",
"(  c #206D17",
")  c #297414",
"_  c #3D413F",
"`  c #3E5E33",
"'  c #306D2E",
"]  c #49423C",
"[  c #50453A",
"{  c #405639",
"}  c #6E5933",
"|  c #426835",
" . c #343E42",
".. c #3B3F40",
"X. c #423A47",
"o. c #573C50",
"O. c #364142",
"+. c #3C4443",
"@. c #424242",
"#. c #4B4244",
"$. c #534245",
"%. c #554D52",
"&. c #58515C",
"*. c #6E4352",
"=. c #4A6540",
"-. c #4F7F41",
";. c #5B5F62",
":. c #605964",
">. c gray38",
",. c #6C656F",
"<. c #736779",
"1. c #6D767A",
"2. c gray46",
"3. c #88341D",
"4. c #98361E",
"5. c #AF3915",
"6. c #81212D",
"7. c #882632",
"8. c #A1303D",
"9. c #8D4023",
"0. c #984228",
"q. c #955D26",
"w. c #894533",
"e. c #C35B15",
"r. c #D36318",
"t. c #D27512",
"y. c #8E3842",
"u. c #983948",
"i. c #A23A49",
"p. c #B33D4B",
"a. c #8B464F",
"s. c #954750",
"d. c #9E4550",
"f. c #A54651",
"g. c #B04C57",
"h. c #845560",
"j. c #8D656E",
"k. c #856C76",
"l. c #9F6F77",
"z. c #D34A58",
"x. c #3C8B34",
"c. c #74AC11",
"v. c #4A873B",
"b. c #458D3D",
"n. c #7E7780",
"m. c #7D8588",
"M. c #918688",
"N. c #8B9987",
"B. c #8E8890",
"V. c #9C9092",
"C. c gray62",
"Z. c #AA858C",
"A. c #A2969B",
"S. c #ACA5A0",
"D. c #B3A5AD",
"F. c #E6B399",
"G. c #C4A5A9",
"H. c #EEC5A2",
"J. c #DACFD4",
"K. c #E5DFE0",
"L. c #E9E4E5",
"P. c #EEE8E9",
"I. c #F5EDED",
"U. c #F7F0F1",
/* pixels */
"@.@.@.@.@.@.@.@.@.@.@.@.@.@.@.@.@.@.@.@.@.@.@.@.@.@.@.@.@.@.@.@.@.@.@.@.@.@.@.@.@.@.@.@.@.@.@.@.@.@.",
"C.C.2.C.C.@.@.C.C.@.@.@.@.@.>.C.C.2.C.C.2.2.C.C.2.2.C.A.C.C.2.C.@.@.@.@.@.@.>.C.C.C.C.@.@.@.@.@.@.C.",
"C.2.2.C.C.@.C.C.2.C.@.@.@.@.>.C.C.2.2.2.2.2.C.2.L K K K K K K C.C.@.@.@.@.>.>.2.C.2.2.2.C.@.@.C.2.C.",
"2.2.2.2.2.2.C.2.2.2.C.@.@.>.>.2.2.2.2.2.2.2.2.d T m m m V V V H 2.@.@.@.@.>.>.2.2.2.2.2.C.C.2.2.2.2.",
"2.2.2.2.2.2.2.2.2.2.C.@.@.@.>.2.2.2.2.2.2.2.#.y.m N m v # 5 5 N H C.@.@.@.>.>.2.2.2.2.2.2.C.2.2.2.2.",
"2.2.2.2.2.2.2.2.2.2.2.@.@.@.>.>.2.2.2.2.2.$.i.6.m N N N v 5 O @ v G @.@.>.>.2.2.2.2.2.2.2.2.2.2.2.2.",
"2.2.2.2.2.2.2.2.2.2.C.@.@.@.>.>.2.2.2.2.@.f.v N V N N n m m 4 - g B L @.>.2.2.2.2.2.2.2.2.2.2.2.2.2.",
"2.2.2.2.2.2.2.2.2.C.C.@.@.>.>.>.2.2.2.2.@.d.O N N N v 1 n m v - S M P @.>.>.2.2.2.2.2.2.2.2.2.2.2.2.",
"2.2.2.2.2.2.2.2.2.2.2.@.@.>.>.2.2.2.2.2.X.d.- l N V k = 5 c - - O.J K @.@.>.2.2.2.2.2.2.2.2.2.2.2.2.",
"2.2.2.2.2.2.2.2.2.O.W E O.>.>.2.2.2.2.2.X.f.= - < 1 - = 5 n , - e S P @.@.>.>.2.2.2.2.2.2.2.2.2.2.2.",
"2.2.2.2.2.2.2.2.2.C.[ ] @.>.>.2.2.2.2._ #.f.= o = o O = 5 V n - 3 A P @.>.>.>.2.2.2.2.2.2.2.2.2.2.2.",
"2.2.2.2.2.@.2.2.2. .} } ..>.>.2.2.2.2._ a.u.; ,.a &.;.; 1 n N 4 - t +.@.>.>.2.2.2.2.2.2.2.2.2.2.2.2.",
"2.2.2.2.2.@.@.2.2.C.@.@. .@.>.>.2.2.2._ a.z > B.X.<.n.3 = 4 n m O : s @.>.>.2.2.2.2.2.2.2.2.2.2.2.2.",
"2.2.2.2.2.@.@.2.2.C.@.@.E @.>.>.2.2.1._ a.x = . O X . - - - v M O o i @.>.2.2.2.2.2.2.2.2.2.2.2.2.2.",
"2.2.2.2.2.@.@.2.2.2...@.q._ >.>.2.2.1.C.s.A - = ; O - = - , v v O O t @.>.>.2.2.2.2.2.2.2.2.2.2.2.2.",
"2.2.2.2.2.C.C.2.2.2. .9.Q O.>.>.2.2._ *.z.R O - = O - - = l m - ; < O i >.>.2.2.2.2.@.2.2.2.2.2.2.2.",
"2.2.2.2.2.2.2.2.2.2.s q.e.U +.2.2.2.u *.8.n # ; O O O - l V N = 4 V k 4 O.2.2.2.2.@.@.2.2.2.2.2.2.2.",
"2.2.2.2.2.2.2.2.2. .U 5.t.e.E 2.2.] Y z R N n # - = ; l V m k ; c N N N K O.>.2.2.@.C.2.2.2.2.2.2.2.",
"2.2.2.2.2.2.2.2.2. .W r.F.t.4.>._ g.p.# ; n N c O = c N m l - n V m m m m J >.2.2.C.2.2.2.2.2.2.2.2.",
"2.2.2.2.2.2.2.2.2.O.W t.H.F.3.s : i.6.m 5 + M c k 1 c N m 4 < m 5 N m V V S >.>.2.2.2.2.2.2.2.2.2.2.",
">.>.2.2.2.2.>.>.2.2.2.W 0.w.d > o < v m M g 5 k l m 5 v 5 < v N O l V V V m K >.>.2.2.2.2.2.2.2.2.2.",
"@.>.>.>.>.>.>.>.>.>.s ;.m.1.6 z 5 4 4 V m V V 1 l V 4 c 4 v m N 4 4 l g c V H ] >.>.>.2.2.2.2.>.>.@.",
"@.@.@.>.>.>.>.@.@.@.u V.I.K.h.7.N m l c V N V c l V 4 N V m m M 4 ; o 4 k l S d @.@.>.>.>.>.>.>.@.@.",
"@.@.@.@.@.@.@.@.@.@.s M.L.P.D.o.T V l 5 m N m M M V # M m N n 1 4 v 1 # M v N L @.@.@.@.@.@.@.@.@.@.",
"@.@.@.@.@.@.@.@.@.@.@.@.A.D.X.o v N l k l c N N m m m m V # ; + N N V 4 M V N L @.@.@.@.@.@.@.@.@.@.",
"@.@.@.C.2.C.2.C.C.C.C.2.2.I c = n V c l l l N v m V m n g c m m N N N l N m M a C.C.C.@.@.@.@.@.@.@.",
"@.@.@.C.2.2.2.2.2.C.C.2.2.I c = v N m V l 1 n 4 m N R j.k.l.*.g m N V m m v 1 p 2.2.2.2.C.C.C.@.@.@.",
"@.@.>.>.2.2.2.2.2.2.2.2.2.L c = v V m B 5 ; N 4 m h G.L.L.J.<.; m m m m M + = p 2.2.2.2.2.C.C.@.@.@.",
"@.>.>.>.2.2.2.2.2.2.2.2.2.I c ; n n l V k k < 5 B % S.L.U.N.-.O m m m v + = ; s 2.2.2.2.2.2.2.@.@.@.",
"@.>.>.2.2.2.2.2.2.2.2.2.2.L c g m l 5 V l c 4 l c $ Q Z.A.%.v.O m N V 4 ; - e 2.2.2.2.2.2.2.C.C.@.@.",
"@.>.>.2.2.2.2.2.2.2.2.2.2.I c l B ; 1 v B V m - 4 & j f   8 | + m N v < - O e 2.2.2.2.2.2.2.2.C.@.@.",
"@.>.2.2.2.2.2.2.2.2.2.2.2.I C l m < = 5 m l n 4 c m j & 7 ` : + m c ; o O : p 2.@.2.2.2.2.2.2.C.C.@.",
"@.>.2.2.2.2.2.2.2.@.@.@.2.2.L # n < = < 1 < N 4 4 v m * ! 9 O v v < - - O 3 2.2.@.@.2.2.2.2.2.2.2.@.",
"@.>.2.2.2.2.2.2.2.@.@.@.2.2.P k n < - - - v m V 5 v Z ! x.=.O V l O - = O 9 2.2.@.@.2.2.2.2.2.2.C.@.",
"@.>.2.2.2.2.2.2.2.C.C.@.] 2.P z A v ; 4 n m m M 5 N ~ ) ( b.w f - - - O : 2.2.2.@.@.2.2.2.2.2.C.C.@.",
"@.>.>.2.2.2.2.2.2.2.2.@.+.2.K K +.v O = 4 n m c l V ^ c./ b.w - - - - = 3 +.2.2.C.C.2.2.2.2.2.2.2.@.",
"@.>.>.2.2.2.2.2.2.2.2.C.C.2.K H O.S y 0 - c m 1 l V ^ c./ b.w - - O ; O : +.2.2.2.2.2.2.2.2.2.C.C.@.",
"@.>.>.2.2.2.2.2.2.2.2.2.2.2.K G 2.S I t - v n - 1 n ~ ( ( b.q = : 0 = O 3 +.2.2.2.2.2.2.2.2.2.C.C.@.",
"@.>.>.2.2.2.2.2.2.2.2.2.2.2.K H 2...2.2.3 n n 1 1 v @ 7 ' { - - 9 2.0 = 3 +.2.2.2.2.2.2.2.2.2.2.C.@.",
"@.@.>.2.2.2.2.2.2.2.2.2.2.2.L L 2.2.2.+.9 l m - < n 5 l X o - O 3 2.+.: 2 +.2.2.2.2.2.2.2.2.2.2.C.@.",
"@.@.>.>.2.2.2.2.2.2.2.2.2.2.2.2.2.2.2.2.9 + n 4 5 v 5 l = ; ; e 3 2.2.: 3 +.2.2.2.2.2.2.@.2.2.2.C.@.",
"@.@.@.>.2.2.2.2.2.2.2.2.2.2.2.2.@.@.2.2.p 2 N v 5 v 5 l o 9 : 2.3 2.2.2 : +.2.2.2.2.2.2.@.@.2.2.2.@.",
"@.>.>.>.2.2.2.2.2.2.2.2.2.2.2.@.@.C.2.2.2.s , m 5 v K z X r 2.2.2.2.2.9 s 2.2.2.2.2.2.2.@.@.2.2.C.@.",
"@.>.>.2.2.2.2.2.2.2.2.2.2.2.2.C.C.2.2.2.2...3 5 5 v J b : e 2.2.2.2.p 3 s 2.2.2.2.2.2.2.C.C.2.C.C.@.",
"@.>.>.2.2.2.2.2.2.2.2.2.2.2.2.2.2.2.2.2.2.2.s + 1 v B S r 0 2.2.2.2.3 9 2.2.2.2.2.2.2.2.2.2.2.2.2.@.",
"@.>.2.2.2.2.2.2.2.2.2.2.2.2.>.>.2.2.2.2.2.2.C.9 o F H M F p 2.2.2.2.i ..2.2.2.2.2.2.2.2.2.2.2.C.C.@.",
"@.>.2.2.2.2.2.2.2.2.2.2.>.>.>.>.>.2.2.2.2.2.>. .i d ..D D +.2.2.2.2.:.>.>.>.2.2.2.2.2.2.2.2.2.C.>.@.",
"@.>.>.>.>.2.>.>.>.>.>.>.>.>.>.@.>.>.2.2.>.>.>.@.@.@.d H >.>.>.>.>.>.>.@.@.>.>.>.>.2.>.>.>.2.>.>.@.@.",
"@.@.@.>.>.>.>.@.@.@.@.>.@.@.@.@.@.>.>.>.>.@.@.@.@.@.@.@.@.@.@.>.>.@.@.@.@.@.@.@.>.>.>.>.>.>.>.@.@.@.",
"@.@.@.@.@.@.@.@.@.@.@.@.@.@.@.@.@.@.@.@.@.@.@.@.@.@.@.@.@.@.@.@.@.@.@.@.@.@.@.@.@.@.@.@.@.@.@.@.@.@."
};
