/* XPM */
static char *result[] = {
/* columns rows colors chars-per-pixel */
"50 50 156 2 ",
"   c #0E0B1C",
".  c #160C1E",
"X  c #180E1F",
"o  c #1F1E1C",
"O  c #210E1F",
"+  c #300F1E",
"@  c #1E2217",
"#  c #1B3718",
"$  c #3B2618",
"%  c #2B3619",
"&  c #35371A",
"*  c #160E20",
"=  c #1A0F20",
"-  c #171122",
";  c #1C1222",
":  c #1F1826",
">  c #1F1B28",
",  c #220D20",
"<  c #241121",
"1  c #2C1121",
"2  c #201A27",
"3  c #221D29",
"4  c #2A1E2C",
"5  c #341121",
"6  c #3C1221",
"7  c #351829",
"8  c #26222D",
"9  c #2A232E",
"0  c #2E2534",
"q  c #2C2C34",
"w  c #3C2631",
"e  c #392E37",
"r  c #2D3439",
"t  c #33353A",
"y  c #3B3638",
"u  c #353B3D",
"i  c #3C3C3E",
"p  c #4A111F",
"a  c #5C181A",
"s  c #441321",
"d  c #4C1422",
"f  c #531522",
"g  c #5B1622",
"h  c #541924",
"j  c #641723",
"k  c #6B1722",
"l  c #671A25",
"z  c #6D1823",
"x  c #631F28",
"c  c #731624",
"v  c #711923",
"b  c #791F2A",
"n  c #55232B",
"m  c #5C242C",
"M  c #58282F",
"N  c #462830",
"B  c #4F2E34",
"V  c #532C32",
"C  c #493337",
"Z  c #463639",
"A  c #483538",
"S  c #423B3D",
"D  c #4C3E3A",
"F  c #5B3D34",
"G  c #62222A",
"H  c #6F392D",
"J  c #7F3825",
"K  c #743B2B",
"L  c #682A3A",
"P  c #7D2D3C",
"I  c #78323D",
"U  c #1F521A",
"Y  c #116214",
"T  c #226E15",
"R  c #2F402B",
"E  c #39542F",
"W  c #3C4A37",
"Q  c #266523",
"!  c #396D2A",
"~  c #4B433B",
"^  c #584938",
"/  c #42523A",
"(  c #6D422F",
")  c #685635",
"_  c #735C32",
"`  c #426834",
"'  c #363F41",
"]  c #422F42",
"[  c #4A3C4A",
"{  c #5A3C50",
"}  c #364042",
"|  c #3C4241",
" . c #424242",
".. c #4E4245",
"X. c #514245",
"o. c #5C4447",
"O. c #4B6840",
"+. c #63755F",
"@. c #5E5762",
"#. c #616161",
"$. c #686366",
"%. c #7F6E7F",
"&. c gray46",
"*. c #7D7577",
"=. c #83222E",
"-. c #873720",
";. c #853925",
":. c #943920",
">. c #842735",
",. c #972E3B",
"<. c #BB4812",
"1. c #986726",
"2. c #D15012",
"3. c #D07607",
"4. c #CA6917",
"5. c #D15631",
"6. c #D37C34",
"7. c #943747",
"8. c #A43845",
"9. c #B43843",
"0. c #85484F",
"q. c #934952",
"w. c #A8414F",
"e. c #A54651",
"r. c #B34453",
"t. c #BB4452",
"y. c #AB616C",
"u. c #C54654",
"i. c #D04D5C",
"p. c #358433",
"a. c #3D8736",
"s. c #4F880F",
"d. c #578D0E",
"f. c #5E9F12",
"g. c #67A612",
"h. c #E0A648",
"j. c #848788",
"k. c #928C8E",
"l. c #908B92",
"z. c gray62",
"x. c #A3918D",
"c. c #A4979C",
"v. c #B29196",
"b. c #AD96A1",
"n. c #BFBBBF",
"m. c #C7B5BA",
"M. c #D0B5B9",
"N. c #EACBAA",
"B. c #C6C9C2",
"V. c #D1CFD1",
"C. c #DBD0D0",
"Z. c #EFD3C0",
"A. c #E4DADB",
"S. c #EDE9E9",
"D. c #F8EFF0",
"F. c #F3F0F0",
/* pixels */
" . . . . . . . . . . . . . . . . . . . . . . . . . . . . . . . . . . . . . . . . . . . . . . . . . .",
"z.z.&.z.z. . .z.z.|  . . . .#.z.z.&.z.z.&.&.z.z.&.&.z.z.z.z.&.z. . . . . . .#.z.z.z.z. . . . . . .z.",
"z.&.&.z.z. .z.z.&.z.[ W  . .#.z.z.&.&.&.&.&.z.&.&.} &.c.&.&.&.z.z. . . . .#.#.&.z.&.&.&.z. . .z.&.z.",
"&.&.&.&.&.&.z.&.&.&.z.[  .#.#.&.&.&.&.&.&.&.&.&.&... .S i S S &.&. . . . .#.#.&.&.&.&.&.z.z.&.&.&.&.",
"&.&.&.&.&.&.&.&.&.&.z.^ ^  .#.&.&.&.&.&.&.&.&.&.0.u.=.k z v z V c.z. . . .#.#.&.&.&.&.&.&.z.&.&.&.&.",
"&.&.&.&.&.&.&.&.&.&.&.i D  .#.#.&.&.&.&.&.&.&.q.=.b k j 1 < 1 k V &. . .#.#.&.&.&.&.&.&.&.&.&.&.&.&.",
"&.&.&.&.&.&.&.&.&.&.' ) _ } #.#.&.&.&.&.&.&.I w.z z z z l p X < j V  . .#.&.&.&.&.&.&.&.&.&.&.&.&.&.",
"&.&.&.&.&.&.&.&.&.z.b.' W #.#.#.&.&.&.&.u o.t.t.v z v g z v p X p z S  .#.#.&.&.&.&.&.&.&.&.&.&.&.&.",
"&.&.&.&.&.&.&.&.&.&.&. . .#.#.&.&.&.&.&.} o.7.7.v z v 1 s z f X B G Z  . .#.&.&.&.&.&.&.&.&.&.&.&.&.",
"&.&.&.&.&.&.&.&.&.&.z. . .#.#.&.&.&.&.&.} o.7.7 8.j s X 1 j ; X ' m Z  . .#.#.&.&.&.&.&.&.&.&.&.&.&.",
"&.&.&.&.&.&.&.&.&.z.z. . .#.~ &.&.&.&. .W o.7.*   - X - 5 v s X > m Z  .#.#.#.&.&.&.&.&.&.&.&.&.&.&.",
"&.&.&.&.&. .&.&.&.&. . . ...<.} &.&.&.| [ q.7.* - X X X 1 v z X : N S  .#.#.&.&.&.&.&.&.&.&.&.&.&.&.",
"&.&.&.&.&. . .&.&.z. . . .| ^ #.&.&.&. .X.r.1 l.n.@.V.[ X d z g X q  . .#.#.&.&.&.&.&.&.&.&.&.&.&.&.",
"&.&.&.&.&. . .&.&.z. . . .D } #.&.&.&. .X.w.  9 0 3 q < X X f l = * t  .#.&.&.&.&.&.&.&.&.&.&.&.&.&.",
"&.&.&.&.&. . .&.&.&. .} F K } #.&.&.&.z.[ w.  . * = X X X X d z = X u  .#.#.&.&.&.&.&.&.&.&.&.&.&.&.",
"&.&.&.&.&.z.z.&.&.&.z.} F ;.J } &.&.&.' 0.t.+ * = = X - * < j z = * 3 i #.#.&.&.&.&. .&.&.&.&.&.&.&.",
"&.&.&.&.&.&.&.&.&.&.c.' ( 4.6.K &.&.&.r e.>.f - = = = * 1 j z 5 = < = t #.&.&.&.&. . .&.&.&.&.&.&.&.",
"&.&.&.&.&.&.&.&.&.&.&.' 1.h.Z.-.&.&. .9 >.=.z 6 = = * 1 j z j X 5 z 5 4 } #.#.&.&. .z.&.&.&.&.&.&.&.",
"&.&.&.&.&.&.&.&.&.&.} H 2.N.3.;.#. .e.8.7 P k v = - 1 j z j < = d z v l A  .#.&.&.z.&.&.&.&.&.&.&.&.",
"&.&.&.&.&.&.&.&.&.&.c.' :.5.<.D #.e i.8.g = s z , 6 d v v f - f z z z v z A #.#.&.&.&.&.&.&.&.&.&.&.",
"#.#.&.&.&.&.#.#.&.&.&.z.i S S W > * L ,.k g , d X k 5 f f X f k 5 j z z v V  .#.#.&.&.&.&.&.&.&.&.&.",
" .#.#.#.#.#.#.#.#.#.@.W $.j.$.w L s 1 d v k k d < z 5 f s s z l X f v v z l i  .#.#.#.&.&.&.&.#.#. .",
" . . .#.#.#.#. . . .| u k.D.C.y.9.b j 6 g z z z X z 5 f v v z z 6 1 6 5 f z i  . . .#.#.#.#.#.#. . .",
" . . . . . . . . . . .u *.A.S.b.{ l v 5 f j z z g z 6 f z z z j 1 < * d s h G  . . . . . . . . . . .",
" . . . . . . . . . . . . .k.c.] = j v 6 s 1 v z z z k z z j f X + c 6 + v z l  . . . . . . . . . . .",
" . . .z.&.z.&.z.z.z.z.&.&.u y p * j z d g 6 g f l z v z j p 5 6 v z z 6 v z x z.z.z.z. . . . . . . .",
" . . .z.&.&.&.&.&.z.z.&.&.&.S d * j v z k 1 5 5 l z k j 6 j v z z z z g z k 5 z.&.&.&.&.z.z.z. . . .",
" . .#.#.&.&.&.&.&.&.&.&.&.&.S s * j d s j X 6 5 z k v v.m.m.%.< z z z v z 6 ; &.&.&.&.&.&.z.z. . . .",
" .#.#.#.&.&.&.&.&.&.&.&.&.&.S d 5 k s s j 1 d 1 v a x.F.F.B.+.X k z z k 5 X - &.&.&.&.&.&.&.&. . . .",
" .#.#.&.&.&.&.&.&.&.&.&.&.&.S s g j 1 d c f j s + @ ^ M.S.k.! o z z z + * ; q &.&.&.&.&.&.&.z.z. . .",
" .#.#.&.&.&.&.&.&.&.&.&.&.&.S s f j = , j k j 5 f $ $ P [ e ` < z z j < = - u &.&.&.&.&.&.&.&.z. . .",
" .#.&.&.&.&.&.&.&.&.&.&.&.&.&.e d j , * s d 5 5 j 6 $ $ o E R X l j 1 - - < u &. .&.&.&.&.&.&.z.z. .",
" .#.&.&.&.&.&.&.&. . . .&.&.&.B < g X - . - d d j 6 c $ U E * 6 j 1 * = X q &.&. . .&.&.&.&.&.&.&. .",
" .#.&.&.&.&.&.&.&. . . .&.&.&.B 1 j s . s g v z l 6 v & Q O.* k d = * = = q &.&. . .&.&.&.&.&.&.z. .",
" .#.&.&.&.&.&.&.&.z.z. . .&.&.B Z y s * < j z z O k & Y U p./ j = = = * 8 &.&.&. . .&.&.&.&.&.z.z. .",
" .#.#.&.&.&.&.&.&.&.&. . .&.&.B Z [ V q ; 1 v f X v % f.s.p./ = = = = . 8 &.&.&.z.z.&.&.&.&.&.&.&. .",
" .#.#.&.&.&.&.&.&.&.&.z.z.&.&.B A i M | 3 O z 5 X d % g.d.! / = * . = X 8 &.&.&.&.&.&.&.&.&.&.z.z. .",
" .#.#.&.&.&.&.&.&.&.&.&.&.&.&.B A i V &.r 1 v 5 s 6 & T T a.W = 2 4 X X 8 &.&.&.&.&.&.&.&.&.&.z.z. .",
" .#.#.&.&.&.&.&.&.&.&.&.&.&.&.B A &.&.&.u 1 j 5 5 6 6 # Q O.- = 3 &.8 = 8 &.&.&.&.&.&.&.&.&.&.&.z. .",
" . .#.&.&.&.&.&.&.&.&.&.&.&.&.Z S &.&.&.u * 5 5 z 6 5 d , * - = 3 &.&.; 8 &.&.&.&.&.&.&.&.&.&.&.z. .",
" . .#.#.&.&.&.&.&.&.&.&.&.&.&.&.&.&.&.&.&.q 5 g l 6 6 d < - - q 8 &.&.; 8 &.&.&.&.&.&.&. .&.&.&.z. .",
" . . .#.&.&.&.&.&.&.&.&.&.&.&.&. . .&.&.&.&.q f z 6 5 d , 8 9 u 3 &.&.; 8 &.&.&.&.&.&.&. . .&.&.&. .",
" .#.#.#.&.&.&.&.&.&.&.&.&.&.&. . .z.&.&.&.&.r ; k 6 C n O 8 &.&.&.&.&.8 &.&.&.&.&.&.&.&. . .&.&.z. .",
" .#.#.&.&.&.&.&.&.&.&.&.&.&.&.z.z.&.&.&.&.&.z.2 5 6 G x 9 3 &.&.&.&.9 3 &.&.&.&.&.&.&.&.z.z.&.z.z. .",
" .#.#.&.&.&.&.&.&.&.&.&.&.&.&.&.&.&.&.&.&.&.&.t - < h l e 3 &.&.&.&.> t &.&.&.&.&.&.&.&.&.&.&.&.&. .",
" .#.&.&.&.&.&.&.&.&.&.&.&.&.#.#.&.&.&.&.&.&.z.z.u u W M m ' &.&.&.&.u &.&.&.&.&.&.&.&.&.&.&.&.z.z. .",
" .#.&.&.&.&.&.&.&.&.&.&.#.#.#.#.#.&.&.&.&.&.#.z. . .[ Z V #.&.&.&.&.#.#.#.#.&.&.&.&.&.&.&.&.&.z.#. .",
" .#.#.#.#.&.#.#.#.#.#.#.#.#.#. .#.#.&.&.#.#.#. . . . .Z #.#.#.#.#.#.#. . .#.#.#.#.&.#.#.#.&.#.#. . .",
" . . .#.#.#.#. . . . .#. . . . . .#.#.#.#. . . . . . . . . . .#.#. . . . . . . .#.#.#.#.#.#.#. . . .",
" . . . . . . . . . . . . . . . . . . . . . . . . . . . . . . . . . . . . . . . . . . . . . . . . . ."
};
