/* XPM */
static char *result[] = {
/* columns rows colors chars-per-pixel */
"50 50 169 2 ",
"   c #0A0112",
".  c #0A0719",
"X  c #13051C",
"o  c #150D1E",
"O  c #180E1F",
"+  c #22051C",
"@  c #240E1E",
"#  c #2C0E1F",
"$  c #38101F",
"%  c #0A380F",
"&  c #212D1B",
"*  c #37271B",
"=  c #263011",
"-  c #160E20",
";  c #1A0F20",
":  c #141021",
">  c #1C1222",
",  c #1E1826",
"<  c #240F20",
"1  c #2C0F20",
"2  c #241121",
"3  c #2B1121",
"4  c #2F1926",
"5  c #221C29",
"6  c #331121",
"7  c #3B1221",
"8  c #361A28",
"9  c #1E2023",
"0  c #282E27",
"q  c #25222C",
"w  c #2A252E",
"e  c #35212C",
"r  c #2C3D2C",
"t  c #242630",
"y  c #292731",
"u  c #2C2C33",
"i  c #3E2C32",
"p  c #332B39",
"a  c #2E3036",
"s  c #323439",
"d  c #35393C",
"f  c #3D3D3F",
"g  c #460C1A",
"h  c #64121E",
"j  c #6C131E",
"k  c #57211C",
"l  c #51281F",
"z  c #400E20",
"x  c #441321",
"c  c #4B1421",
"v  c #421829",
"b  c #531522",
"n  c #5C1622",
"m  c #5C1E24",
"M  c #5D1D29",
"N  c #631622",
"B  c #6B1722",
"V  c #641C25",
"C  c #6D1823",
"Z  c #611B29",
"A  c #701621",
"S  c #711823",
"D  c #7A1F2B",
"F  c #562527",
"G  c #5E242C",
"H  c #57292F",
"J  c #4C2334",
"K  c #4E2F34",
"L  c #542B31",
"P  c #5C2A30",
"I  c #4C3336",
"U  c #473539",
"Y  c #433B3C",
"T  c #4A3E39",
"R  c #573C34",
"E  c #6F3B2D",
"W  c #773B2A",
"Q  c #652634",
"!  c #632838",
"~  c #0F4B16",
"^  c #0A5C15",
"/  c #244418",
"(  c #367C14",
")  c #374B33",
"_  c #337E25",
"`  c #3C6E33",
"'  c #42443F",
"]  c #544D3A",
"[  c #435B3B",
"{  c #426435",
"}  c #456B35",
"|  c #457834",
" . c #353F41",
".. c #383840",
"X. c #543D40",
"o. c #463F53",
"O. c #364142",
"+. c #3C4242",
"@. c #424242",
"#. c #43494A",
"$. c #5A4447",
"%. c #5D4548",
"&. c #524C4C",
"*. c #4F4855",
"=. c #7B464B",
"-. c #645956",
";. c gray38",
":. c #776471",
">. c gray46",
",. c #9C361C",
"<. c #85232F",
"1. c #803726",
"2. c #8B3923",
"3. c #8B2733",
"4. c #912934",
"5. c #A1313D",
"6. c #C93C0F",
"7. c #CC3D1C",
"8. c #BE563A",
"9. c #956928",
"0. c #CF480F",
"q. c #CE6312",
"w. c #D3791C",
"e. c #8C3645",
"r. c #843948",
"t. c #943C49",
"y. c #9A3B4A",
"u. c #A23E4D",
"i. c #B63D4A",
"p. c #89454D",
"a. c #89484F",
"s. c #995241",
"d. c #8B4A53",
"f. c #934952",
"g. c #984B53",
"h. c #905259",
"j. c #B0404E",
"k. c #A64450",
"l. c #B74653",
"z. c #904C60",
"x. c #8F626E",
"c. c #84737D",
"v. c #9F767D",
"b. c #CA4755",
"n. c #D24C5B",
"m. c #E2515F",
"M. c #3C8035",
"N. c #4A8813",
"B. c #599514",
"V. c #619510",
"C. c #77A40F",
"Z. c #58854A",
"A. c #CA9F74",
"S. c #E1A86B",
"D. c #98838B",
"F. c #958F97",
"G. c #9A949B",
"H. c #9E9E9E",
"J. c #A79798",
"K. c #BF9DA5",
"L. c #AEA2A7",
"P. c #BAADB3",
"I. c #E7BFAD",
"U. c #C1C2BD",
"Y. c #D7CACC",
"T. c #E1DCDC",
"R. c #ECE6E7",
"E. c #EFEBEA",
"W. c #F4E9EA",
/* pixels */
"@.@.@.@.@.@.@.@.@.@.@.@.@.@.@.@.@.@.@.@.o.Y @.@.@.@.+.@.@.@.@.@.@.@.@.@.@.@.@.@.@.@.@.@.@.@.@.@.@.@.",
"H.H.>.H.H.@.@.H.H.@.@.@.@.@.;.H.H.>.H.H.>.>.H.H.>.O.O.J.H.H.>.H.@.@.@.@.@.@.;.H.H.H.H.@.@.@.@.@.@.H.",
"H.>.>.H.H.@.H.H.>.H.@.@.@.@.;.H.H.>.>.>.>.>.H.>.>.f.p.H H L H U O.@.@.@.@.;.;.>.H.>.>.>.H.@.@.H.>.H.",
">.>.>.>.>.>.H.>.>.>.H.@.@.;.;.>.>.>.>.>.>.>.>.) a.n.<.j B N B V U @.@.@.@.;.;.>.>.>.>.>.H.H.>.>.>.>.",
">.>.>.>.>.>.>.>.>.>.H.@.@.@.;.>.>.>.>.>.>.>.>.a.n.D C C 7 1 < x V U @.@.) ;.;.>.>.>.>.>.>.H.>.>.>.>.",
">.>.>.>.>.>.>.>.>.>.>.@.@.@.;.;.>.>.>.>.>.o.a.m.b.C C C S N < - x C Y @.;.;.>.>.>.>.>.>.>.>.>.>.>.>.",
">.>.>.>.>.>.>.>.>.>.H.#.@.@.;.;.>.>.>.>.>.$.j.y.3.C C b N S N 3 7 C G @.;.>.>.>.>.>.>.>.>.>.>.>.>.>.",
">.>.>.>.>.>.>.>.>.H.H.1.R  .;.;.>.>.>.>.>.$.e.Q b.C S 7 ; N n ; p U G @.;.;.>.>.>.>.>.>.>.>.>.>.>.>.",
">.>.>.>.>.>.>.>.>.>.>. .9.] ;.>.>.>.>.>.>.%.t.- e.i.c O O b 3 - u ) Q ' ' ;.>.>.>.>.>.>.>.>.>.>.>.>.",
">.>.>.>.>.>.>.>.>.>.J.@.) f ..>.>.>.>.>.>.$.t.. > 2 > > - n n 2 > f M o.o.;.;.>.>.>.>.>.>.>.>.>.>.>.",
">.>.>.>.>.>.>.>.>.H.H.@.+.o.W O.>.>.>.@. .g.u..   -   X O N S x - w I @.-.;.;.>.>.>.>.>.>.>.>.>.>.>.",
">.>.>.>.>.@.>.>.>.>.@.@...9.R  .>.>.>.@. .k.v *.F., G.*.o 7 B N 2 > d @.;.;.>.>.>.>.>.>.>.>.>.>.>.>.",
">.>.>.>.>.@.@.>.>.H.@.@.@.@.;.;.>.>.>.@.O.t.> 5 p > p 5 O : $ S 6 - q @.;.;.>.>.>.>.>.>.>.>.>.>.>.>.",
">.>.>.>.>.@.@.>.>.H.@.@...] ;.;.>.>.>.@.O.f.< - O O > - O : 7 S 7 - 5 @.;.>.>.>.>.>.>.>.>.>.>.>.>.>.",
">.>.>.>.>.@.@.>.>.>.@.O.E W ;.;.>.>.>. .=.l.! o - - O O > 2 b B 6 - , s ;.;.>.>.>.>.>.>.>.>.>.>.>.>.",
">.>.>.>.>.H.H.>.>.>.H.@.' ,.2. .>.>.>. .l.b.M o ; ; > - o b C c - - O u ;.;.>.>.>.>.@.>.>.>.>.>.>.>.",
">.>.>.>.>.>.>.>.>.>.H.O.s.w.q.W  .>.@.y e.b.D x ; - - > n S C 7 > N b 2 d >.>.>.>.+.@.>.>.>.>.>.>.>.",
">.>.>.>.>.>.>.>.>.>.>.R A.S.6.2.O.>.g.y.4 r.i.h 6 - 2 b C N 7 - 6 B B B L ;.;.>.>.O.H.>.>.>.>.>.>.>.",
">.>.>.>.>.>.>.>.>.>.O.2.0.I.7.2. .y b.5.Z 3 Q C $ x 6 S C n - 1 B C C C S L ;.>.>.H.>.>.>.>.>.>.>.>.",
">.>.>.>.>.>.>.>.>.>.J.T ,.8.,.T q - Q 3.S g @ c 7 B c b N 6 6 N c N C C C V X.;.>.>.>.>.>.>.>.>.>.>.",
";.;.>.>.>.>.;.;.>.>.>. .&.-.&.p 8 1 < r.<.j B c 2 B b c x 6 N C 6 < C S C C L O.;.>.>.>.>.>.>.>.>.>.",
"@.;.;.;.;.;.;.;.;.;.;.d J.W.L.r.m.4.n z N B C C 7 B b c S S C C x ; b b b B G  .;.;.;.>.>.>.>.;.;.@.",
"@.@.@.;.;.;.;.@.@.@.+.d J.R.E.K.z.n.C 7 b S C C b C b c S C C C c - - 7 c c V I @.@.;.;.;.;.;.;.@.@.",
"@.@.@.@.@.@.@.@.@.@.@.+.#.P.P.o.5 D C 7 b A C C C C B B C C S c ; n c - N N B L @.@.@.@.@.@.@.@.@.@.",
"@.@.@.@.@.@.@.@.@.@.@.@.@.#.R c : B B 7 m 7 N C C C C C C b 6 3 b C C $ n C A H @.@.@.@.@.@.@.@.@.@.",
"@.@.@.H.>.H.>.H.H.H.H.>.>.O.I c ; B C b n 7 7 N Z C S j g g h C C C C c N A N i H.H.H.@.@.@.@.@.@.@.",
"@.@.@.H.>.>.>.>.>.H.J.>.>.>.U c ; B n n S $ 7 c c C B d.c.v.x.J n C C C C N # t >.>.>.>.H.H.H.@.@.@.",
"@.@.;.;.>.>.>.>.>.>.>.>.>.>.I c > C b c S 3 $ x b C =.Y.R.T.G.s b C C C N 6 O w >.>.>.>.>.H.H.@.@.@.",
"@.;.;.;.>.>.>.>.>.>.>.>.>.>.I c c C c c C 7 c > n j [ Y.E.U.` { b B B B 3 - > u >.>.>.>.>.>.>.@.@.@.",
"@.;.;.>.>.>.>.>.>.>.>.>.>.>.I c b B : c S c c 7 n b = h.D.:.) } b C B $ O O q +.>.>.>.>.>.>.H.H.@.@.",
"@.;.;.>.>.>.>.>.>.>.>.>.>.>.Y e b B : 2 N C N x x c * k # & { 0 b C n < - O q +.>.>.>.>.>.>.>.H.@.@.",
"@.;.>.>.>.>.>.>.>.>.>.>.>.>.>.I $ j > : n N $ c c 3 B * % | q - b C > O > , d >.@.>.>.>.>.>.>.H.H.@.",
"@.;.>.>.>.>.>.>.>.@.@.@.>.>.O.I 7 C 1 - ; ; x b b - C V / r o z B < - - O 2 >.>.@.@.>.>.>.>.>.>.>.@.",
"@.;.>.>.>.>.>.>.>.@.@.@.>.>.O.L 8 H b - 7 c B C B > m / ^ M.) $ b - ; ; O w >.>.@.@.>.>.>.>.>.>.H.@.",
"@.;.>.>.>.>.>.>.>.H.H.@.@.>.O.I I >.M 5 1 B C C c c l ( N._ Z.+ < ; - ; O d >.>.@.@.>.>.>.>.>.H.H.@.",
"@.;.;.>.>.>.>.>.>.>.>.@.@.>.O.K I >.G y - 7 B N $ S l B.C.M.| X - - ; ; O s >.>.H.H.>.>.>.>.>.>.>.@.",
"@.;.;.>.>.>.>.>.>.>.>.L.J.>.O.I I >.G >.5 < C c : n l N.V._ Z.X ; 2 O - O d >.>.>.>.>.>.>.>.>.H.H.@.",
"@.;.;.>.>.>.>.>.>.>.>.>.>.>.O.I I >.K >.y 3 C x 2 ; k ~ ^ _ [ X > >.5 - O d >.>.>.>.>.>.>.>.>.H.H.@.",
"@.;.;.>.>.>.>.>.>.>.>.>.>.>.O.K I >.>.>.>.4 C c 3 > b * 0 r > ; > >. .5 O d >.>.>.>.>.>.>.>.>.>.H.@.",
"@.@.;.>.>.>.>.>.>.>.>.>.>.>.>.>.>.>.>.>.>., 7 c x < b c 3 - - - > >.>.q o d >.>.>.>.>.>.>.>.>.>.H.@.",
"Y ) ;.;.>.>.>.>.>.>.>.>.>.>.>.>.>.>.>.>.>.9 6 n b 2 b c 3 > > q q >.>.q O d >.>.>.>.>.>.@.>.>.>.H.@.",
"@.o.' ;.>.>.>.>.>.>.>.>.>.>.>.>.@.@.>.>.>. .4 n B > b F 1 , s a a >.>.q q d >.>.>.>.>.>.@.@.>.>.>.@.",
"@.;.;.;.>.>.>.>.>.>.>.>.>.>.>.) @.H.>.>.>.>.a < n > Q P 1 , >.>.>.>.>.q s >.>.>.>.>.>.>.@.@.>.>.H.@.",
"@.;.;.>.>.>.>.>.>.>.>.>.>.>.>.H.H.>.>.>.>.>. .q x ; V V i , >.>.>.>.s , s >.>.>.>.>.>.>.H.H.>.H.H.@.",
"@.;.;.>.>.>.>.>.>.>.>.>.>.>.>.>.>.>.>.>.>.>.>.u - O 4 C I y >.>.>.>.s a >.>.>.>.>.>.>.>.>.>.>.>.>.@.",
"@.;.>.>.>.>.>.>.>.>.>.>.>.>.;.;.>.>.>.>.>.>.H.H.p q ;.I B Y >.>.>.>.>.>.>.>.>.>.>.>.>.>.>.>.>.H.H.@.",
"@.;.>.>.>.>.>.>.>.>.>.>.;.;.;.;.;.>.>.>.>.>.;.J.@.@.@.I L ;.>.>.>.>.;.;.;.;.>.>.>.>.>.>.>.>.>.H.;.@.",
"@.;.;.;.;.>.;.;.;.;.;.;.;.;.;.o.;.;.>.>.;.;.;.@.@.@.@.f ;.;.;.;.;.;.;.@.@.;.;.;.;.>.;.;.;.>.;.;.@.@.",
"@.@.@.;.;.;.;.@.@.@.@.;.@.@.@.@.@.;.;.;.;.@.@.@.@.@.@.@.@.@.@.;.;.@.@.@.@.@.@.@.;.;.;.;.;.;.;.@.@.@.",
"@.@.@.@.@.@.@.@.@.@.@.@.@.@.@.@.@.@.@.@.@.@.@.@.@.@.@.@.@.@.@.@.@.@.@.@.@.@.@.@.@.@.@.@.@.@.@.@.@.@."
};
