/* XPM */
static char *result[] = {
/* columns rows colors chars-per-pixel */
"50 50 161 2 ",
"   c #0E0415",
".  c #110718",
"X  c #150C1E",
"o  c #180D1F",
"O  c #210F1F",
"+  c #290E1E",
"@  c #3B0D1C",
"#  c #1B3212",
"$  c #1F351A",
"%  c #382D17",
"&  c #293B17",
"*  c #373B1A",
"=  c #150E20",
"-  c #190F20",
";  c #171121",
":  c #1B1323",
">  c #1F1925",
",  c #230F20",
"<  c #241021",
"1  c #2B1121",
"2  c #221A27",
"3  c #231C29",
"4  c #331121",
"5  c #3B1321",
"6  c #3C1B2B",
"7  c #1E2425",
"8  c #222425",
"9  c #25222D",
"0  c #2B242F",
"q  c #36232D",
"w  c #2B3529",
"e  c #2C2632",
"r  c #262831",
"t  c #2C2B33",
"y  c #332C34",
"u  c #372D38",
"i  c #2F3036",
"p  c #33353A",
"a  c #3C3338",
"s  c #343C3E",
"d  c #3C3D3F",
"f  c #481F1F",
"g  c #59181E",
"h  c #65121E",
"j  c #560F22",
"k  c #441321",
"l  c #4C1421",
"z  c #401925",
"x  c #441D2D",
"c  c #531522",
"v  c #5B1622",
"b  c #561B26",
"n  c #511928",
"m  c #5B1D28",
"M  c #641622",
"N  c #6B1722",
"B  c #641C25",
"V  c #6D1823",
"C  c #641F28",
"Z  c #721623",
"A  c #711823",
"S  c #7C1F2A",
"D  c #5C252D",
"F  c #59282F",
"G  c #432B32",
"H  c #542631",
"J  c #4B3337",
"K  c #45373A",
"L  c #413B3D",
"P  c #4D3D39",
"I  c #533736",
"U  c #593E35",
"Y  c #61222A",
"T  c #6B2B2D",
"R  c #71392B",
"E  c #76392B",
"W  c #6F2932",
"Q  c #762230",
"!  c #095D12",
"~  c #2E6216",
"^  c #366516",
"/  c #367816",
"(  c #2A5726",
")  c #39573A",
"_  c #56503A",
"`  c #585139",
"'  c #655436",
"]  c #46663D",
"[  c #4A7939",
"{  c #363E42",
"}  c #3D3E40",
"|  c #443B49",
" . c #593947",
".. c #364242",
"X. c #3C4242",
"o. c #424242",
"O. c #4A4F51",
"+. c #54555C",
"@. c #6F454A",
"#. c #77464C",
"$. c #7C444B",
"%. c #60535F",
"&. c #634D60",
"*. c #6C5066",
"=. c #5E6568",
"-. c gray38",
";. c gray46",
":. c #7E7677",
">. c #9E3D1E",
",. c #BA2E09",
"<. c #B13E1F",
"1. c #82222D",
"2. c #8B2935",
"3. c #972D39",
"4. c #A94C1A",
"5. c #B75717",
"6. c #8D4A25",
"7. c #A25F21",
"8. c #CB4E12",
"9. c #D06817",
"0. c #823241",
"q. c #973341",
"w. c #A23542",
"e. c #AA3441",
"r. c #B13946",
"t. c #85454D",
"y. c #8A464E",
"u. c #A34651",
"i. c #AF4E5E",
"p. c #B14452",
"a. c #875D66",
"s. c #876770",
"d. c #C74755",
"f. c #D24C5B",
"g. c #32812D",
"h. c #629E12",
"j. c #5B9D41",
"k. c #62A54F",
"l. c #64A951",
"z. c #85B910",
"x. c #C2871A",
"c. c #DC9652",
"v. c #DB8760",
"b. c #E0A566",
"n. c #8A8589",
"m. c #8F8990",
"M. c gray62",
"N. c #AD868E",
"B. c #A58D95",
"V. c #A59693",
"C. c #AFA2A7",
"Z. c #B2ADB2",
"A. c #B8B4B1",
"S. c #F0DCB5",
"D. c #D4C5C6",
"F. c #DDD7D7",
"G. c #E4D2D3",
"H. c #E1DADC",
"J. c #E8E2E2",
"K. c #EEEBEB",
"L. c #F3F1F0",
/* pixels */
"o.o.o.o.o.o.o.o.o.o.o.o.o.o.) | | _ { } o.o.o.o.o.o.o.o.o.o.o.o.o.o.o.o.o.o.o.o.o.o.o.o.o.o.o.o.o.o.",
"M.M.;.M.M.o.o.M.M.o.o.o.o.o.-.M.M.;.M.M.;.;.M.M.{ ............V.o.o.o.o.o.o.-.M.M.M.M.o.o.o.o.o.o.M.",
"M.;.;.M.M.o.M.M.;.M.o.o.o.o.*.M.M.;.;.;.;.;.M.} t.W D Y Y Y F X.M.o.o.o.o.-.-.;.M.;.;.;.M.o.o.M.;.M.",
";.;.;.;.;.;.M.;.;.;.M.o.o.{ =.;.;.;.;.;.;.;.;.$.2.V Z M v v v F d o.o.o.o.-.-.;.;.;.;.;.M.M.;.;.;.;.",
";.;.;.;.;.;.;.;.;.;.M.o.o.` -.;.;.;.;.;.;.;.#.r.V V V c 1 - - v F M.o.o.o.-.-.;.;.;.;.;.;.M.;.;.;.;.",
";.;.;.;.;.;.;.;.;.;.;.{ o.' -.-.;.;.;.;.;.t.f.2.V V V N V l - , v D d o.-.-.;.;.;.;.;.;.;.;.;.;.;.;.",
";.;.;.;.;.;.;.;.;.;.M.{ E U -.-.;.;.;.;.X.u.6 w.V V v 5 V N v 5 N N L o.-.;.;.;.;.;.;.;.;.;.;.;.;.;.",
";.;.;.;.;.;.;.;.;.M.M.} _ -.-.-.;.;.;.;.} u.< w.1.Z l - k M - 9 ..D L o.-.-.;.;.;.;.;.;.;.;.;.;.;.;.",
";.;.;.;.;.;.;.;.;.;.;.' ` { -.;.;.;.;.;.} u.= x 0.n - = k k - 2 s F d o.o.-.;.;.;.;.;.;.;.;.;.;.;.;.",
";.;.;.;.;.;.;.;.;.;.M._ 6.P -.;.;.;.;.;.;.u.= = X - = = k Z k - p Y L o.o.-.-.;.;.;.;.;.;.;.;.;.;.;.",
";.;.;.;.;.;.;.;.;.M.M.{ P P -.;.;.;.;.{ #.p.- u > e e = 5 N N - : a o.o.-.-.-.;.;.;.;.;.;.;.;.;.;.;.",
";.;.;.;.;.o.;.;.;.;.o.X.o.-.-.;.;.;.;.{ y.H 3 Z.| m.m.. - j N l o t o.o.-.-.;.;.;.;.;.;.;.;.;.;.;.;.",
";.;.;.;.;.o.o.;.;.M.o.o.o.o.-.-.;.;.;.{ t.x -   X   . - - - A l - : s o.-.-.;.;.;.;.;.;.;.;.;.;.;.;.",
";.;.;.;.;.o.o.;.;.M.o.o.o.o.-.-.;.;.;.s y.x - - - - - - - - V l o : p o.-.;.;.;.;.;.;.;.;.;.;.;.;.;.",
";.;.;.;.;.o.o.;.;.;.{ R 5.` -.-.;.;.{ @.f.Q - - - - - - - c V l : o 3 X.-.-.;.;.;.;.;.;.;.;.;.;.;.;.",
";.;.;.;.;.M.M.;.;.;.M.L 7.5.P -.;.;.s #.e.M , - - - - - k V N - O < 2 s -.-.;.;.;.;.o.;.;.;.;.;.;.;.",
";.;.;.;.;.;.;.;.;.;.{ R 8.c.5...;.{ I x q.3.M 1 - - - c V V k - k N k q -.;.;.;.;.o.o.;.;.;.;.;.;.;.",
";.;.;.;.;.;.;.;.;.;.K >.9.S.x...;.t.2., 6 d.N l - - l A V k = , M Z Z B J -.-.;.;.o.M.;.;.;.;.;.;.;.",
";.;.;.;.;.;.;.;.;.;.U ,.v.b.4.s r r.1.M 4 x M l k 1 M V M < , v V V V V Y L -.;.;.M.;.;.;.;.;.;.;.;.",
";.;.;.;.;.;.;.;.;.;.M.R <.>.| e = 2 q.S N 4 4 5 c M 5 N 5 1 M l k V V V A J -.-.;.;.;.;.;.;.;.;.;.;.",
"-.-.;.;.;.;.-.-.;.;.;.O.-.-.p x 1 1 x w.M Z N , c M 5 b 1 M V l = c V V A h X.*.-.;.;.;.;.;.;.;.;.;.",
"o.-.-.-.-.-.-.-.&.-.) :.G.H.s.d.1.V k l V V V l l N 5 A A A V v O 4 5 5 m V o.o.-.-.-.;.;.;.;.-.+.X.",
"o.o.o.-.-.-.*.o.o.o.p :.H.L.H.*.i.S c 5 Z V V N V M 4 A V A V c : o 1 N f v Y o.o.o.-.-.-.-.-.-.o.o.",
"o.o.o.o.o.X.X.o.o.o.o.o.n.C.&.: m A c k l v V V V V M V A v c , l v 1 4 N N C o.o.o.o.o.o.o.o.o.o.o.",
"o.o.o.o.o.o.o.o.o.o.o.o.X.o.v - g V c 5 k 5 V A V V V A b k 5 l V V c 1 A V C o.o.o.o.o.o.o.o.o.o.o.",
"o.o.o.M.;.M.;.M.M.M.M.;.;.L M - k V M v v < V l V V V v @ h Z Z V A M l V V z M.M.M.M.o.o.o.o.o.o.o.",
"o.o.o.M.;.;.;.;.;.M.M.;.;.L M - c V l V l < M 5 V N 0.B.B.N. .n V V V A N 5 : M.;.;.;.;.M.M.M.o.o.o.",
"o.o.-.-.;.;.;.;.;.;.;.;.;.L M - c N 5 Z 5 < v 5 V T D.L.K.A.+.5 V V V V 5 - : ;.;.;.;.;.;.M.M.o.o.o.",
"o.-.-.-.;.;.;.;.;.;.;.;.;.L M 4 V c 4 A l v - k A & V.J.F.) j.5 V V N 5 - - 3 ;.;.;.;.;.;.;.;.o.o.o.",
"o.-.-.;.;.;.;.;.;.;.;.;.;.L h 5 Z < 1 A V M - v 5 # T a.%.0 j.5 V V v = - : ;.;.;.;.;.;.;.;.M.M.o.o.",
"o.-.-.;.;.;.;.;.;.;.;.;.;.;.a 4 Z < - k A A v 5 M m % c = [ 8 5 V N 1 - - = { ;.;.;.;.;.;.;.;.M.o.o.",
"o.-.;.;.;.;.;.;.;.;.;.;.;.;.d l c < - 4 v 4 M 5 5 v g # ( w - k M 1 - - - i ;.;.o.;.;.;.;.;.;.M.M.o.",
"o.-.;.;.;.;.;.;.;.o.o.o.;.;._ k g k - - - 4 N c 1 v B & ( 2 < N 5 o o ; - p ;.;.o.o.;.;.;.;.;.;.;._ ",
"o.-.;.;.;.;.;.;.;.o.o.o.;.;.d n G V O 1 k M V Z 4 c * ! g.] O v < : - o 2 d ;.;.o.o.;.;.;.;.;.;.M.L ",
"o.-.;.;.;.;.;.;.;.M.M.o.o.;.a D ..Y q , c V V c z h ~ h./ l.- < o ; - o t ;.;.;.o.o.;.;.;.;.;.M.M.| ",
"o.-.-.;.;.;.;.;.;.;.;.o.o.;.L D ;.Y u : , v V k g V ^ z./ k.- - o - o o r ;.;.;.M.M.;.;.;.;.;.;.;.| ",
"o.-.-.;.;.;.;.;.;.;.;.V.M.;.L D ;.C L t o v M = 5 B ~ h./ k.o o > : o o e ;.;.;.;.;.;.;.;.;.;.M.M.) ",
"o.-.-.;.;.;.;.;.;.;.;.;.;.;.d D ;.J } p 2 v M 4 < c $ ! g.] o o i i : o e ;.;.;.;.;.;.;.;.;.;.M.M.| ",
"o.-.-.;.;.;.;.;.;.;.;.;.;.;.L D ;.;.;.X.e v M - - c 5 f 7 : o X i ;.i X t ;.;.;.;.;.;.;.;.;.;.;.M.} ",
"o.o.-.;.;.;.;.;.;.;.;.;.;.;.;.d ;.;.;.X.9 + M 4 1 g 5 c X o : : t ;.p X r ;.;.;.;.;.;.;.;.;.;.;.M.{ ",
"o.o.-.-.;.;.;.;.;.;.;.;.;.;.;.;.;.;.;.;.i O Z l 4 c @ c ; 3 : r t ;.p X r ;.;.;.;.;.;.;.o.;.;.;.M._ ",
"o.o.o.-.;.;.;.;.;.;.;.;.;.;.;.;.o.o.;.;.;.t k Z 4 c x l ; p e p p ;.p : p ;.;.;.;.;.;.;.o.o.;.;.;.| ",
"o.-.-.-.;.;.;.;.;.;.;.;.;.;.;.o.o.M.;.;.;.s : f 1 b I g ; p ;.;.;.;.i 2 ;.;.;.;.;.;.;.;.o.o.;.;.M.d ",
"o.-.-.;.;.;.;.;.;.;.;.;.;.;.;.M.M.;.;.;.;.;.s 5 4 c N D r p ;.;.;.d : 9 ;.;.;.;.;.;.;.;.M.M.;.M.M.| ",
"o.-.-.;.;.;.;.;.;.;.;.;.;.;.;.;.;.;.;.;.;.;.d > o 2 D Y y s ;.;.;.s r ) ;.;.;.;.;.;.;.;.;.;.;.;.;.) ",
"o.-.;.;.;.;.;.;.;.;.;.;.;.;.-.-.;.;.;.;.;.;.M.s e s d D H ;.;.;.;.;.;.;.;.;.;.;.;.;.;.;.;.;.;.M.C.o.",
"o.-.;.;.;.;.;.;.;.;.;.;.-.-.-.-.-.;.;.;.;.;.-.M.o.o.K D } -.;.;.;.;.&.-.-.-.;.;.;.;.;.;.;.;.;.M.-.o.",
"o.-.-.-.-.;.-.-.-.-.-.-.-.-.-.o.-.-.;.;.-.-.%.o.o.o.o.L -.-.-.-.-.-.-.o.o.-.-.-.-.;.-.-.-.;.-.-.o.o.",
"o.o.o.-.-.-.-.o.o.o.o.-.o.o.o.o.o.-.-.-.-.o.o.o.o.o.o.o.o.o.o.-.-.o.o.o.o.o.o.o.-.-.-.-.-.-.-.o.o.o.",
"o.o.o.o.o.o.o.o.o.o.o.o.o.o.o.o.o.o.o.o.o.o.o.o.o.o.o.o.o.o.o.o.o.o.o.o.o.o.o.o.o.o.o.o.o.o.o.o.o.o."
};
