/* XPM */
static char *result[] = {
/* columns rows colors chars-per-pixel */
"50 50 110 2 ",
"   c gray26",
".  c gray38",
"X  c gray46",
"o  c #9F7100",
"O  c #A17300",
"+  c #A77800",
"@  c #AB7C00",
"#  c #AF8000",
"$  c #B38400",
"%  c #B78800",
"&  c #BC8C00",
"*  c #BE9100",
"=  c #BD9D00",
"-  c #C39400",
";  c #C79800",
":  c #CA9B00",
">  c #C39710",
",  c #CA9E13",
"<  c #C89E1F",
"1  c #C4A300",
"2  c #CDA200",
"3  c #CCAB00",
"4  c #D5A500",
"5  c #D4AB00",
"6  c #DCAC00",
"7  c #CFB900",
"8  c #D4B400",
"9  c #DCB200",
"0  c #D3BC00",
"q  c #DDBB00",
"w  c #E2B200",
"e  c #ECBC00",
"r  c #F0BF00",
"t  c #E9BE1C",
"y  c #C29C33",
"u  c #D0AA2E",
"i  c #C7A231",
"p  c #C9A537",
"a  c #CFA933",
"s  c #C6A23B",
"d  c #D3AD31",
"f  c #DBB635",
"g  c #D7BA3B",
"h  c #E5BF32",
"j  c #D7C400",
"k  c #DEC200",
"l  c #E4C400",
"z  c #E9C600",
"x  c #E3CA00",
"c  c #ECCB00",
"v  c #F3C300",
"b  c #F2CD00",
"n  c #FFCE00",
"m  c #E6DA00",
"M  c #F3D300",
"N  c #FED300",
"B  c #F5DD00",
"V  c #FFDD00",
"C  c #F3E300",
"Z  c #FFE400",
"A  c #F3EE00",
"S  c #FFEB00",
"D  c #FFF300",
"F  c #FFFE00",
"G  c #FFF60E",
"H  c #FFFF15",
"J  c #F0C627",
"K  c #F9DB21",
"L  c #F4D82E",
"P  c #E7C030",
"I  c #EFC931",
"U  c #F2D633",
"Y  c #F3D838",
"T  c #FFE32E",
"R  c #FFEA2E",
"E  c #FFFF27",
"W  c #FFFF32",
"Q  c #FFF43C",
"!  c #FFFE39",
"~  c #C7A543",
"^  c #C9A642",
"/  c #CCA945",
"(  c #D1AF4A",
")  c #CBAC52",
"_  c #D7B751",
"`  c #DABA53",
"'  c #D1B35B",
"]  c #DCBD58",
"[  c #D9BC61",
"{  c #DCC359",
"}  c #E1C35C",
"|  c #FFDF58",
" . c #FFFF4F",
".. c #FFE854",
"X. c #FFE958",
"o. c #DFC263",
"O. c #E4CB6C",
"+. c #FFEC61",
"@. c #FFFF68",
"#. c #FFFC7D",
"$. c gray62",
"%. c #FFEF89",
"&. c #FFFD8B",
"*. c #FFFF99",
"=. c #FFFDA3",
"-. c #FFFFB2",
";. c #FFFFB9",
":. c #FFFFC2",
">. c #FFFFF2",
",. c white",
/* pixels */
"                                                                                                    ",
"$.$.X $.$.    $.$.          . $.$.X $.$.X X $.$.X X $.$.$.$.X $.            . $.$.$.$.            $.",
"$.X X $.$.  $.$.X $.        . $.$.X X X X X $.X X X X $.X X X $.$.        . . X $.X X X $.    $.X $.",
"X X X X X X $.X X X $.    . . X X X X X X.U M V V V V r t | o.X X         . . X X X X X $.$.X X X X ",
"X X X X X X X X X X $.      . X X Y V V V V V V V V V N n n n n J O.      . . X X X X X X $.X X X X ",
"X X X X X X X X X X X       . K V V V D Q =.! F F F D D Z n n n n n v } . . X X X X X X X X X X X X ",
"X X X X X X X X X X $.    L V V Z G =.>.-.R Z S Z Z Z Z Z V Z Z n n n v t X X X X X X X X X X X X X ",
"X X X X X X X X X $.$.  c V V Q :.,.%.T V l 8 8 8 8 8 8 5 n n n N N n n e e _ X X X X X X X X X X X ",
"X X X X X X X X X X { c V S F +...V q 1 = = 1 l z 2 z 3 = o # - n n n n e e e P X X X X X X X X X X ",
"X X X X X X X X X g z V S D Z V q = = z b Z D D k q D D S M 5 @ o - n n e e e e I X X X X X X X X X ",
"X X X X X X X X O.c M S D Z c 1 = z V D &.;.H F j w S Z V n n n e $ O : w w v e e h X X X X X X X X ",
"X X X X X   X X w z S D V c = 8 V S *.,.-.E F B z v 8 V N n n n n n 6 O $ 4 6 e e e / X X X X X X X ",
"X X X X X     6 w B D V z = z V #.,.#.W F S V x Z n - V N n n n n n n e o @ 4 4 w r 6 X X X X X X X ",
"X X X X X   f w w S V z = M V @. .F F S V V V j N n w 5 n n n n n n n n 6 O @ 4 4 w w : X X X X X X ",
"X X X X X   w w z n z = l V F F F F Z V V V 2 F N n w : n n n n n n n n r 4 o ; 4 4 w 4 X X X X X X ",
"X X X X X h w w v n # 8 V D F F D V V V V V 0 D n n w e w n n n n n n v r e - O : 4 6 4 4 X X X X X ",
"X X X X X 6 w w n * o n F F F S V V V V V q F Z N n w z : n n n n n n v e e w @ + : 4 4 4 X X X X X ",
"X X X X ] 6 : w e o 2 Z F F Z V V V V V V k F V n n w e w e n n n n n e e e e ; O % 4 4 4 - X X X X ",
"X X X X : 4 : r $ O N F F Z N N z 4 1 2 5 C F n n n w w n : : : : w e r e e e w @ @ ; 4 2 : X X X X ",
"X X X X 4 4 ; 5 + : ; 0 j 0 k Z D F F F S Z Z n n n w w r n r r e w w 4 - - $ $ & o % 4 : : X X X X ",
". . X X 4 - ; ; O w F 0 A D Z N n n n n n n n n n n w w w w w w w w w w 6 : & w 6 o @ - : : p X X X ",
"  . . o.4 - - # O V F S w m V e n n n n n n n n n v w w w w w w w w w : ; & e e w + @ % : : ; . .   ",
"      - 4 % ; @ o M F V n w m N w w r v n n n n n e w w w w w w w 4 ; - & e e e e % + $ : : ; .     ",
"      : 4 % - @ $ c C n n n e 0 Z e w w w w w w w w w w w w w w 2 $ & 4 e e e e e % O $ - ; :       ",
"      4 4 % & @ % z c e v n n n 3 D w w w w w w w w w 9 w w 4 & @ & 6 e e e e e w $ o $ & : :       ",
"      4 4 $ & @ & l c e e e r v v 2 Z e w w w w w w w w w 4 $ @ & 6 e e e e e w 6 $ o $ & : :       ",
"      4 4 % $ @ $ 8 e e e e z e e e : Z w w w w w w w w w 4 @ - e e e e e e 6 6 4 % O $ $ : :       ",
"    . - 4 $ % @ O 4 6 e e e e e e e 4 Z n w w w w w w w w 4 $ $ e e e e w 6 6 6 4 $ + $ $ : :       ",
"  . . [ 2 - $ @ o 4 4 e e e e e e e 7 V n r w w w w w w w 4 - $ : e e w 6 6 6 6 : + @ $ & : :       ",
"  . . X : - % % O ; 4 6 e e e e e 4 F n n r w w 6 ; : : 6 w : @ - w 6 6 6 6 6 4 : O @ $ & : i $.    ",
"  . . X : ; $ $ + & 4 4 6 e e e e k S n n 6 w 6 ; - ; ; ; : : $ & 4 w 6 6 6 6 : & O $ $ & : X $.    ",
"  . X X ; : $ $ @ O 4 4 4 w e e 9 m Z n e w 6 - @ O @ - ; ; ; - & ; 6 6 6 6 2 : + + $ $ : : X $.$.  ",
"  . X X ( : - $ $ O % : 4 4 6 e 8 F N v w 6 & - 4 w ; @ $ & : ; $ $ 6 6 6 : : - o @ @ & : - X X X   ",
"  . X X X : - @ $ @ O : : : : 4 7 F n w 6 - 4 6 6 6 6 6 - @ $ - $ ; - 6 : : : @ + $ $ - : X X X $.  ",
"  . X X X u : % $ $ + @ : : : & F Z e : ; 6 6 6 6 6 6 6 6 4 & # + - & : : : & O # $ $ : : X X $.$.  ",
"  . . X X X : - $ @ @ O & : : 0 D 8 $ 2 4 6 6 6 6 6 6 6 6 6 4 ; $ & & - : - O @ $ $ * : X X X X X   ",
"  . . X X X a : & $ $ @ O - - ; $ : : : : : : : : : : : : : : : : & & & - o O $ $ $ : - X X X $.$.  ",
"  . . X X X X ; ; $ $ $ @ O $ : : : : : : : : : : : : : : : : : : : : $ o O $ $ $ - : X X X X $.$.  ",
"  . . X X X X X : - $ $ $ @ o @ : : : : : : : : : : : : : : : : : : & O + $ $ $ & : s X X X X X $.  ",
"    . X X X X X ) : - $ $ $ # O o & : : : : : : : : : : : : : : - @ O @ $ $ $ $ : d X X X X X X $.  ",
"    . . X X X X X y : * $ $ $ $ + O O & - : : : : ; : : : : & + O + @ $ $ $ $ : d X X X   X X X $.  ",
"      . X X X X X X ~ : - $ $ $ $ $ + O O o + & & & & $ o o o + $ $ $ $ $ & : d X X X X     X X X   ",
"  . . . X X X X X X X X ; ; $ $ $ $ $ $ $ + + + + O + + + $ $ $ $ $ $ $ & : ^ X X X X X     X X $.  ",
"  . . X X X X X X X X X X u : - $ $ # $ $ $ $ $ $ $ # $ $ $ $ $ $ $ & : , X X X X X X X $.$.X $.$.  ",
"  . . X X X X X X X X X X X X , : - & $ # $ $ $ $ # $ $ $ $ $ $ & : - ' X X X X X X X X X X X X X   ",
"  . X X X X X X X X X X X X . . X a : : : & & & & & & & & - : : < ' X X X X X X X X X X X X X $.$.  ",
"  . X X X X X X X X X X . . . . . X X X ] < - : : : ; ; > ` X X X X . . . . X X X X X X X X X $..   ",
"  . . . . X . . . . . . . . .   . . X X . . .         . . . . . . . .     . . . . X . . . X . .     ",
"      . . . .         .           . . . .                     . .               . . . . . . .       ",
"                                                                                                    "
};
