/* XPM */
static char *result[] = {
/* columns rows colors chars-per-pixel */
"50 50 115 2 ",
"   c gray26",
".  c gray38",
"X  c gray46",
"o  c #A37500",
"O  c #A77900",
"+  c #AB7D00",
"@  c #AF8000",
"#  c #AD810D",
"$  c #B28300",
"%  c #B78900",
"&  c #BC8D00",
"*  c #BE9100",
"=  c #BB9900",
"-  c #AF8725",
";  c #B69137",
":  c #C29300",
">  c #C79800",
",  c #CB9B00",
"<  c #C1940C",
"1  c #C19511",
"2  c #CB9E10",
"3  c #C2981C",
"4  c #C5A500",
"5  c #CDA200",
"6  c #CDAB00",
"7  c #D3A300",
"8  c #D4AB00",
"9  c #DCAC00",
"0  c #D3A80D",
"q  c #CDB300",
"w  c #D5B400",
"e  c #DAB400",
"r  c #D3B900",
"t  c #DBBC00",
"y  c #E0AF00",
"u  c #E2B200",
"i  c #E8B700",
"p  c #E4BC00",
"a  c #ECBC00",
"s  c #F0BF00",
"d  c #D0A720",
"f  c #CBA83D",
"g  c #D5C000",
"h  c #DEC200",
"j  c #DFCF00",
"k  c #E5C500",
"l  c #EAC500",
"z  c #E5CA00",
"x  c #EDC901",
"c  c #F2C200",
"v  c #F8C700",
"b  c #F3CD00",
"n  c #FECD00",
"m  c #EBD100",
"M  c #E7DB00",
"N  c #ECDA01",
"B  c #F5D300",
"V  c #FDD400",
"C  c #F4DB00",
"Z  c #FFDC00",
"A  c #FFD10E",
"S  c #F2D617",
"D  c #FFD213",
"F  c #F5E200",
"G  c #FFE400",
"H  c #FEEB00",
"J  c #FFE809",
"K  c #FFF200",
"L  c #FFFB00",
"P  c #FFFF0B",
"I  c #FFE11D",
"U  c #E5C924",
"Y  c #F6D928",
"T  c #E5C83B",
"R  c #E5D93B",
"E  c #FFE924",
"W  c #FFFF29",
"Q  c #FFE831",
"!  c #FEFB34",
"~  c #FFF33C",
"^  c #FFF93A",
"/  c #C4A44C",
"(  c #C2A357",
")  c #D0B77A",
"_  c #E8C64B",
"`  c #EDD144",
"'  c #E6D846",
"]  c #E8D65C",
"[  c #FFDF5B",
"{  c #FFE646",
"}  c #FFEE48",
"|  c #FFFF44",
" . c #FFF24E",
".. c #FFF052",
"X. c #FFF955",
"o. c #FFF458",
"O. c #FFFE5B",
"+. c #F6DC79",
"@. c #FFFF67",
"#. c #FFE77F",
"$. c #FFEF7D",
"%. c #F9F67E",
"&. c #FFFF7D",
"*. c gray62",
"=. c #F0D984",
"-. c #FFF387",
";. c #FFF885",
":. c #FFFF89",
">. c #FFFA94",
",. c #FFFF9E",
"<. c #FFF4AA",
"1. c #FFF6B3",
"2. c #FFFEB4",
"3. c #ECE1C7",
"4. c #FFF4C7",
/* pixels */
"                                                                                                    ",
"*.*.X *.*.    *.*.          . *.*.X *.*.X X *.*.X X *.*.*.*.X *.            . *.*.*.*.            *.",
"*.X X *.*.  *.*.X *.        . *.*.X X X X X *.X X X X *.X X X *.*.        . . X *.X X X *.    *.X *.",
"X X X X X X *.X X X *.    . . X X X X 2 e u a e p V Z G V c _ X X         . . X X X X X *.*.X X X X ",
"X X X X X X X X X X *.      . +.u i p i p k Z G G J H G Z V V n n 8       . . X X X X X X *.X X X X ",
"X X X X X X X X X X X     #.n V n n V B G J Q ..! P L H G V Z Z V V n u . . X X X X X X X X X X X X ",
"X X X X X X X X X X *.=.7 n n v b V Z I  .@.>.<.o.K H G V G H K V V V n s X X X X X X X X X X X X X ",
"X X X X X X X X X *.;.G Z Z V b l Z E $.1.<.[ k z x l z x l i e c G V n v s , X X X X X X X X X X X ",
"X X X X X X X X X X | | | ! F x G H ~ -.Y x w 4 w w w r r w 4 + , 9 c n n c a 9 X X X X X X X X X X ",
"X X X X X X X X ,.&.&.&.%.] x C H H B k t 6 r z J G m t C G V 7 : @ , 9 l a a s 8 X X X X X X X X X ",
"X X X X X X X X L K L K F w B H H B e 4 t S } X.W L j = k G V n n 9 : + : 9 y i s d X X X X X X X X ",
"X X X X X   X 0 G G G Z m l F H B t 4 z E -.2.:.^ H H B l B V n n n V 7 + % 7 y i i X X X X X X X X ",
"X X X X X     n n n v y u l H B t 4 U  .O.,.X.K H l a n 9 p V n n n n n 7 + & , y a 9 X X X X X X X ",
"X X X X X   c c c c i , i c V t 4 z ~ &.W K H Z Z m x n i c n n n V n n n , O > 7 u y 1 X X X X X X ",
"X X X X X   u u u y 7 u p V l 6 z H L L L H Z Z x N G V s 9 s n n n n n v s : : 7 7 i 7 X X X X X X ",
"X X X X X u u u u 9 , u i v , 5 G L L L J Z G Z T R G n a , i n n n n n s a y + & 5 y 7 3 X X X X X ",
"X X X X X u u u u u 9 y u 8 + e K L L H Z Z Z Q 1.2.{ A a a s v n n n n c a a : O : 7 7 7 X X X X X ",
"X X X X : u y u y 9 7 7 9 % * G L L G Z Z Z Z ` 3.4.[ D l s y a n n n v a a i u + $ 5 7 5 X X X X X ",
"X X X X u u u u 9 7 7 , 9 + > g g t a V G H H m ' { V n s i y i c c c i 9 , , , % + : 7 , & X X X X ",
"X X X X u u u u u 7 7 , , % p 4 q q p B G H H H H V n n a u a a u u u y , : % + : + $ , , , X X X X ",
". . X X u u u u y 7 , , $ & F M H K Z V n n n n V n n n s u u i i u y y 9 7 > > 9 + $ > , , X X X X ",
"  . . < y y u y 9 , : , + = L H B F Z v c n n n n n n v i u y u y y u 9 , 5 7 i a + $ & , , X . .   ",
"      , 5 7 7 , & 5 & , O 6 H G n V H V s l s s s s s i u u u u y y 7 > 7 y a a a $ O $ : , . .     ",
"      : : : : : $ 7 & : + e N v n n V H V i u u u u u y u u u u 9 : : 7 i s a a a & o + , , (       ",
"      : : : : & & 5 & : + u N l v v v V G B i u u u u u u u y 9 : $ 7 u s i a a u > + $ > > -       ",
"      : : & : & $ , $ + + 9 m a i a c v B Z x u u u u u u u u : + , i s i s a u y : O + > , ;       ",
"      : & : : & + 5 % $ + 6 k a a a a a a k k i u u u y u u u : & y i s s u u y y + O + , , )       ",
"    . & : : : : % > % $ O % t i a a a a i k b v i u u u u u u 7 : y s s i y y 9 7 + + + > , *.      ",
"  . . / : & : : : : & % + $ 9 u a a a a 9 h H V s y y 9 7 9 y 7 + : y u y 9 y y 7 O + + > , X       ",
"  . . X : : : : : , : % $ + 7 8 i a a a t h V v a y 9 , > 5 7 , : + 7 y 9 y y 7 , O + % > , *.*.    ",
"  . . X : & & : : , : $ $ + 7 7 9 a a a B G n s u y : + : > > > : : 7 9 9 9 y , : O + % > , X *.    ",
"  . X X : : : : : & : $ $ + & 5 9 u a 9 t H v i 9 , : $ : & : > : : % 7 9 y 7 , + + % + > f X *.*.  ",
"  . X X X : * : & & , & $ + + , , 7 u p M H c 9 : : 7 7 7 % $ & : + $ 7 y 7 , , O + $ : > X X X X   ",
"  . X X X % % % % & , : $ @ + & , , 5 z K V y , , 7 y y 9 5 , & $ % : , 7 , , % + $ $ > , X X X *.  ",
"  . X X X + $ $ @ $ & : % $ + + : , : q F y , 7 9 9 9 9 9 9 9 , : > > % : , % O + $ : , X X X *.*.  ",
"  . . X X X @ $ @ @ % , & $ @ + % , 6 r 6 , , 7 7 7 7 9 9 7 7 7 , , % % > > + + $ $ > > X X X X X   ",
"  . . X X X + $ @ @ $ * > % $ @ + & 5 6 & , , , , , , 7 , , , , , , : : : $ + $ + : > X X X X *.*.  ",
"  . . X X X X + $ $ @ % , * $ $ + O % , , , , , , , , , , , , , , > , , + O + $ + > > X X X X *.*.  ",
"  . . X X X X X @ $ @ $ & , & $ $ + + $ & , , , , , , : , , , , , > & $ + + % $ : > X X X X X X *.  ",
"    . X X X X X / @ $ $ $ & > & $ $ + + + & , , , , , , , , , , > & o O $ $ $ & > X X X X X X X *.  ",
"    . . X X X X X + @ @ $ $ * > & $ $ @ + + + $ & > , , > > % @ $ + + $ + + % > X X X X   X X X *.  ",
"      . X X X X X X # @ @ $ $ * > & $ $ $ + + O O @ @ @ @ @ O O + + $ $ $ : > X X X X X     X X X   ",
"  . . . X X X X X X X X @ @ @ $ & > & $ $ $ $ $ + + + + + @ @ @ % + + + : > X X X X X X     X X *.  ",
"  . . X X X X X X X X X X O O O O % * : & $ $ $ $ $ $ $ $ @ $ @ + % & : : X X X X X X X *.*.X *.*.  ",
"  . . X X X X X X X X X X X X o o o O % > : : % $ $ $ $ $ $ $ * > : > X X X X X X X X X X X X X X   ",
"  . X X X X X X X X X X X X . . X o o o + @ & > : : : : : * : > < X X X X X X X X X X X X X X *.*.  ",
"  . X X X X X X X X X X . . . . . X X X X X . *.      . . . X X X X . . . . X X X X X X X X X *..   ",
"  . . . . X . . . . . . . . .   . . X X . . .         . . . . . . . .     . . . . X . . . X . .     ",
"      . . . .         .           . . . .                     . .               . . . . . . .       ",
"                                                                                                    "
};
