/* XPM */
static char *result[] = {
/* columns rows colors chars-per-pixel */
"50 50 112 2 ",
"   c gray26",
".  c gray38",
"X  c gray46",
"o  c #9F7100",
"O  c #A17300",
"+  c #A67800",
"@  c #AB7C00",
"#  c #AF8101",
"$  c #AE8800",
"%  c #B28300",
"&  c #B68800",
"*  c #BC8D00",
"=  c #B88B0F",
"-  c #B79400",
";  c #BE9200",
":  c #BD9D00",
">  c #BB9938",
",  c #C29300",
"<  c #C69800",
"1  c #CA9B00",
"2  c #C39609",
"3  c #CC9F09",
"4  c #C79D18",
"5  c #C4A400",
"6  c #C5A900",
"7  c #CAAA00",
"8  c #D4A400",
"9  c #D5A900",
"0  c #DDAD00",
"q  c #D4A70F",
"w  c #D6A809",
"e  c #D5B400",
"r  c #D9B100",
"t  c #DDBC00",
"y  c #CEA41F",
"u  c #D1A71D",
"i  c #DDB115",
"p  c #E2B200",
"a  c #E6BB00",
"s  c #ECBC00",
"d  c #E3B50A",
"f  c #F0BF00",
"g  c #C59E2F",
"h  c #C29D39",
"j  c #E0B620",
"k  c #EAC400",
"l  c #E1CE00",
"z  c #ECCB00",
"x  c #F4C300",
"c  c #F8C700",
"v  c #F2CE00",
"b  c #FECD00",
"n  c #E3D400",
"m  c #EADB00",
"M  c #F4D200",
"N  c #FED400",
"B  c #F6DD00",
"V  c #FEDC00",
"C  c #FDD00E",
"Z  c #F3D31B",
"A  c #EDE400",
"S  c #F1E400",
"D  c #FFE400",
"F  c #F5EF00",
"G  c #FFEA00",
"H  c #F7F200",
"J  c #FFF300",
"K  c #FFFD00",
"L  c #FFEE16",
"P  c #FFE019",
"I  c #FFFF12",
"U  c #FFD426",
"Y  c #E4D73C",
"T  c #F1D333",
"R  c #FFD93C",
"E  c #FFE122",
"W  c #FFFF2A",
"Q  c #FFE433",
"!  c #FFFD39",
"~  c #BD9B41",
"^  c #C7A753",
"/  c #D6BD75",
"(  c #E6DA48",
")  c #FFDE56",
"_  c #FFF546",
"`  c #FFFF4A",
"'  c #FFFB52",
"]  c #F2D464",
"[  c #E3C976",
"{  c #F2D977",
"}  c #FFF27F",
"|  c #FFFB79",
" . c gray62",
".. c #E5D397",
"X. c #FFF48E",
"o. c #FFFE8C",
"O. c #FEF39D",
"+. c #FFFF9E",
"@. c #EEDFAE",
"#. c #FFFFA3",
"$. c #FFF4AB",
"%. c #FFFDA9",
"&. c #EDE4B9",
"*. c #FFF4B1",
"=. c #FFFEBE",
"-. c #FFF4C4",
";. c #FFF9D6",
":. c #FFFFD9",
">. c #FFFFE2",
",. c #FFFFEB",
"<. c #FFFCF1",
"1. c #FFFFFC",
/* pixels */
"                                                                                                    ",
" . .X  . .     . .          .  . .X  . .X X  . .X X  . . . .X  .            .  . . . .             .",
" .X X  . .   . .X  .        .  . .X X X b v V V V V V V V V V b b         . . X  .X X X  .     .X  .",
"X X X X X X  .X X X  .    . . X b b b b 9 V V V J ' %.K K K J N b b b b C . . X X X X X  . .X X X X ",
"X X X X X X X X X X  .      b c N b b N V V J o.>.%.G G D D G D V G N b b c ] X X X X X X  .X X X X ",
"X X X X X X X X X X X ( G D G D D B v V D | 1.*.Q V z t t t a v b b D b b c s ] X X X X X X X X X X ",
"X X X X X X X X X X &.` ` ` ` ` ` z V V ! $.E z e : : : 5 5 : - + p c b b c s s { X X X X X X X X X ",
"X X X X X X X X X  .:.:.:.:.:.;.k B D K V V e : 5 t V D z k D D @ + O p N b s s s X X X X X X X X X ",
"X X X X X X X X X K K K K K K l k V K V V : : v V K K K # A K J N b * o ; x s s s s X X X X X X X X ",
"X X X X X X X X W K K K K K m z v K V B 5 5 V J =.,.I K M - V V b b b x O & 9 p s f i X X X X X X X ",
"X X X X X X X X b b b b b b p a J D V 7 7 V X.,.#.I J N c p k N b b N b s O & 8 0 s a [ X X X X X X ",
"X X X X X   X s b b b b b s p a G V 7 7 P } +.W K G V O N s r N b b b b b f O * 8 0 f q X X X X X X ",
"X X X X X     s s s s s s 0 p k V z 5 V L K K K V V B J N s < b b b b b b b p o 8 8 s 8 / X X X X X ",
"X X X X X   j p p p p p 0 p p V N : k J K K K V V V Z K b s 9 c b N b b b c s @ @ 8 8 p w X X X X X ",
"X X X X X   p p p p p p 0 p p b & ; V K K K V V V V > K b x f , b b b b b c s p O , 8 0 8 X X X X X ",
"X X X X X u p p p p p p 9 p s x O k J K K V V V V V Y _ b c f 8 b b b b b f s f @ @ 8 8 8 g X X X X ",
"X X X X X d p p p p p p 9 8 s 1 O V K K V V V V V r ` <.b b p p b b b b b s s s 0 O , 8 8 1 X X X X ",
"X X X X X p p p p p p & 8 8 p + 8 K K D V V V z T O.1.1.1.) d b @ 0 f b c s s s p @ @ 8 8 1 X X X X ",
"X X X X X p p p p p p 8 8 1 8 o N S 5 # & : M J K K ;.<.b x p s c s p 8 % @ @ * p % @ , 8 1 X X X X ",
"X X X X h p p p p p p 8 8 1 , % N 6 K K K G b b N b R <.b s p p c c c s p p 0 < @ w O * 1 1 X X X X ",
". . X X 8 p p p p p 0 8 , , @ % K H n D b b b b b b ) -.b s p p p p p p p p , @ a 0 O % 1 1 * X X X ",
"  . . . p p p p p p 0 8 , , @ % K D a l V s c b b b Z U b s p p p p p p 0 1 @ s f p O % 1 1 1 . .   ",
"      . 8 8 8 8 8 8 8 8 , , + 8 H N b a l x p p x f c c x 0 p p p p p 8 , % s s s p % @ % 1 1 .     ",
"        , , , , , , , 8 , & O 9 A v b b s m s p p p p p p p p p p p 1 @ * s s f s s * + % 1 1       ",
"        , * , , , , , 8 * % O p A s s b b x F s p p p p p p p p p 1 @ , 8 s s s f 0 , O @ 1 1       ",
"       ., , , , , , , 8 , % O 8 A s s s s x 1 S p p p p p p p p , + , 8 s s s s p 8 * O @ 1 1       ",
"       ., , , * , , , 8 , * O 1 z s s f s s s ; N p p p r p p p 1 O 1 s s s s p 0 8 , + * 1 1       ",
"    . . , , , , , , , 8 , @ @ , 9 s s s s s s ; V s p p p p p p 0 o 0 s s s p 0 0 8 @ @ @ 1 ,       ",
"  . . . * , , , , , , 1 , & @ @ 8 a s s s s s S b x p p p p p p 0 % + f s p 0 0 0 1 o @ * 1 ,       ",
"  . . X X , , , , , * < * * @ @ 8 0 s s s s s A b c p p 0 1 8 p p , * p 0 0 0 0 0 1 O % @ 1 2  .    ",
"  . . X X , * , , , , 1 1 @ % + 8 8 p f s s O D b x p p 1 < , 1 1 1 , , 0 0 0 0 8 , + @ * 1 .. .    ",
"  . X X X , , , , , , 1 1 % % O 8 8 8 s s s n V b p p 1 @ + < 1 , 1 @ , 0 0 0 0 1 @ + * @ 1 @. . .  ",
"  . X X X , , * , , , @ 1 * % + @ 8 8 8 s p J V x p 9 1 1 @ % * 1 1 + @ 0 0 0 1 1 + @ , < 1 X X X   ",
"  . X X X 2 , , , , ; , 1 * % % o 1 8 8 p 8 K b a 9 & , p p , @ % 1 < < < p 8 1 , o @ @ 1 1 X X  .  ",
"  . X X X ~ % @ # % @ % , 1 % % O , 1 1 1 $ K c 0 * 0 0 0 0 0 1 , @ , * , 1 1 1 @ @ @ & 1 ^ X  . .  ",
"  . . X X X % % % # % % * 1 % % @ o 1 1 , K K p < 0 0 0 0 0 0 0 0 + @ * & 1 1 1 o @ , & 1 X X X X   ",
"  . . X X X g @ % % # % % 1 , % % O , 1 * K @ 1 1 8 0 0 0 0 0 0 0 1 1 * , 1 1 + @ @ @ 1 3 X X  . .  ",
"  . . X X X X @ % @ % # % * 1 % & @ o , % , 1 1 1 1 1 1 1 8 8 1 1 1 1 < & @ % + , @ , 1 X X X  . .  ",
"  . . X X X X X # % # % % @ 1 * % % + + * 1 1 1 1 1 1 1 1 1 1 1 1 1 1 1 1 % O @ @ @ < y X X X X  .  ",
"    . X X X X X # # % # % % & 1 % % % O + 1 1 1 1 1 1 1 1 1 1 1 1 1 1 1 , O @ @ @ , 1 X X X X X  .  ",
"    . . X X X X X % # % @ % @ < 1 % % % + O , 1 1 1 1 1 1 1 1 1 1 1 1 , O @ @ @ , < X X   X X X  .  ",
"      . X X X X X # % # % % # & 1 & % % % O o * 1 1 1 1 1 1 1 1 1 1 + O @ @ , * , 1 X X     X X X   ",
"  . . . X X X X X X % % % # % # + 1 & % % % @ O + + * 1 1 1 1 % + o o @ @ @ * @ 1 X X X     X X  .  ",
"  . . X X X X X X X X # # % # % @ , 1 * % % % % @ O O O O O O O + @ * @ @ , @ 1 X X X X  . .X  . .  ",
"  . . X X X X X X X X X @ % # % % % * 1 * @ % % % % % % @ @ % % @ @ * @ @ , X X X X X X X X X X X   ",
"  . X X X X X X X X X X X % @ + @ @ @ @ 1 < & % % % % % % % % % * @ @ , , X X X X X X X X X X  . .  ",
"  . X X X X X X X X X X . . = o O o o O + 1 1 , & % % % % % % # @ * 1 1 4 . X X X X X X X X X  ..   ",
"  . . . . X . . . . . . . . .   . o O o o o O 1 1 1 1 1 < < < 2 1 1 1     . . . . X . . . X . .     ",
"      . . . .         .           . . . .                     . .               . . . . . . .       ",
"                                                                                                    "
};
