/* XPM */
static char *result[] = {
/* columns rows colors chars-per-pixel */
"50 50 139 2 ",
"   c gray26",
".  c gray38",
"X  c gray46",
"o  c #A37500",
"O  c #A77900",
"+  c #AC7D00",
"@  c #AE8000",
"#  c #B28300",
"$  c #B78800",
"%  c #BB8D00",
"&  c #BE9101",
"*  c #BD9B00",
"=  c #BC9426",
"-  c #B69130",
";  c #BD993A",
":  c #C29300",
">  c #C79800",
",  c #CA9B00",
"<  c #C99F1A",
"1  c #C1A300",
"2  c #CDA200",
"3  c #C6A800",
"4  c #CEAE00",
"5  c #D3A400",
"6  c #D3AA00",
"7  c #DCAC00",
"8  c #D4B400",
"9  c #DCB400",
"0  c #D2BC00",
"q  c #DCBB00",
"w  c #D5A911",
"e  c #E2B200",
"r  c #EBBB00",
"t  c #E3B60C",
"y  c #F0BF00",
"u  c #E7BB14",
"i  c #E9BC10",
"p  c #C29F3C",
"a  c #DEBA39",
"s  c #DDC000",
"d  c #E5C400",
"f  c #EAC600",
"g  c #E4CB00",
"h  c #EDCB00",
"j  c #F3C200",
"k  c #F8C700",
"l  c #F3CC00",
"z  c #FECE00",
"x  c #EED400",
"c  c #E9D900",
"v  c #F4D400",
"b  c #FED400",
"n  c #F4DA00",
"m  c #FFDD00",
"M  c #FFD30E",
"N  c #ECE200",
"B  c #FEE300",
"V  c #F6EB00",
"C  c #FFEC00",
"Z  c #FEF300",
"A  c #FFFE00",
"S  c #FFF00F",
"D  c #EFE019",
"F  c #FFFC13",
"G  c #FFF51E",
"H  c #F5CB23",
"J  c #F1C92E",
"K  c #FFD523",
"L  c #E9C53D",
"P  c #ECD235",
"I  c #EAD63B",
"U  c #FDDC3D",
"Y  c #FFEE2C",
"T  c #FFFD24",
"R  c #FFFF28",
"E  c #FCE136",
"W  c #FFEC37",
"Q  c #FFE63D",
"!  c #FFEF3E",
"~  c #BD9B41",
"^  c #C4A241",
"/  c #C6A649",
"(  c #D2AF41",
")  c #D4B34A",
"_  c #CAAA53",
"`  c #C7A859",
"'  c #D5B553",
"]  c #DABA54",
"[  c #E2BE41",
"{  c #D6BA69",
"}  c #DEC05E",
"|  c #EFCC44",
" . c #ECCA49",
".. c #FFDD4F",
"X. c #FCDC54",
"o. c #F0D05A",
"O. c #FFEF44",
"+. c #FFF748",
"@. c #FFF94D",
"#. c #FFEC53",
"$. c #FFF254",
"%. c #FFF853",
"&. c #FAF25C",
"*. c #FFF95C",
"=. c #DCC262",
"-. c #E5C764",
";. c #E4CA64",
":. c #EED26E",
">. c #F2DC65",
",. c #F2D76E",
"<. c #EBD175",
"1. c #F0D778",
"2. c #F0D87D",
"3. c #FFEB65",
"4. c #FFE36C",
"5. c #FFED6C",
"6. c #F7F362",
"7. c #FFFF62",
"8. c #FFEA74",
"9. c #FDE47D",
"0. c #FFFE7E",
"q. c gray62",
"w. c #D9C383",
"e. c #F3DC86",
"r. c #E4D797",
"t. c #FDE687",
"y. c #FFEC87",
"u. c #FFF684",
"i. c #FFFF81",
"p. c #FFEB95",
"a. c #FFF790",
"s. c #FFFF97",
"d. c #F7E8B3",
"f. c #F4ECD7",
"g. c #FCF4D7",
"h. c #FFFAD6",
"j. c #FFFAE4",
"k. c #FEFBE9",
"l. c #FFFFFF",
/* pixels */
"                                                                                                    ",
"q.q.X q.q.    q.q.          . q.q.X q.q.X X q.q.X X q.q.q.q.X q.            . q.q.q.q.            q.",
"q.X X q.q.  q.q.X q.        . q.q.X X X X X q.X X X X q.X X X q.q.        . . X q.X X X q.    q.X q.",
"X X X X X X q.X X X q.    . . X X X X t.e.e.<.;.=.;.>.4.>.,.9.t.X         . . X X X X X q.q.X X X X ",
"X X X X X X X X X X q.      . X :.J z k k j j j d v m m m m b k X.q.      . . X X X X X X q.X X X X ",
"X X X X X X X X X X X       . X.j z z z z k l b B O.! C Z C C b z u }   . . X X X X X X X X X X X X ",
"X X X X X X X X X X q.      X.z z k z z z z v B +.u.W C C C B b z z e ' . X X X X X X X X X X X X X ",
"X X X X X X X X X q.q.    ] C C C C C C B b Q a.u.E d q q q 6 r z z k 7 . . X X X X X X X X X X X X ",
"X X X X X X X X X X X     r.s.s.s.s.s.&.m B Y 3.P 8 8 q d d & % r k z j | . X X X X X X X X X X X X ",
"X X X X X X X X X X q.  7.7.7.7.7.7.6.I n Z B h q d c C q g c q , 6 k j r  .. X X X X X X X X X X X ",
"X X X X X X X X X q.q.  A A A A A A V h B V h q n $.@.N * q B b r : 7 r r r . X X X X X X X X X X X ",
"X X X X X   X X X X   U B m m m B v h n C h q n %.0.R 0 > f b z k r : , 7 r [ X X X X X X X X X X X ",
"X X X X X     X X q.  z z z k z z k e l n 4 q #.i.R G D h b b z z b r % , r 7 X X X X X X X X X X X ",
"X X X X X     X X q.a r r r r r r e r v d 8 n T R Z 5.*.B 6 e z z z z % > 7 e { X X X X X X X X X X ",
"X X X X X     X X X 7 e e e e e 5 > f f q n A A Z B y.8.b 5 e b z z z e $ , t w X X X X X X X X X X ",
"X X X X X q.q.X X X e e e e e e 7 5 r e 2 C A Z B b y.h...k k z z z j y # > 7 5 X X   X X X X X X X ",
"X X X X X X X X X p e e e e e e e e r 6 3 A Z B m m u.l.4.k k z z b j r 5 % , 7 X     X X X X X X X ",
"X X X X X X X X X 7 e e e e e e e 7 5 , n A C m b 5.k.l.j.o.: e z k j r e # , 5 <   q.X X X X X X X ",
"X X X X X X X X X e e e e e e 6 % 7 , > B S 8.h.h.k.l.l.l.k.f.g.-.i y r r # $ , : q.X X X X X X X X ",
"X X X X X X X X X e e e e e e 7 , 5 , o 4 Z F T T s.l.l.l.2.H K i e e e 5 + + , , X X X X X X X X X ",
". . X X X X . . X e e e e e e 7 , : $ 1 Z C b b b M p.l.9.i r e e e e 5 e 5 : > , X X X X X X X X X ",
"  . . . . . . . . e e e e e e 7 , $ % q C B B k z z t.l.,.e e e e e 5 + 5 7 + : , . . X X X X . .   ",
"      . . . .     e e e e e e 7 , $ , v C 7 , f r k t.l.,.e e e e 5 : 7 r e + $ >   . . . . . .     ",
"                ` : : : : : : > , $ : f n z h r e e 1.d.L e e e 5 : e r r r : + :                   ",
"                - : : % : : : , , # : 7 r k z B v e t t e e e 5 + o 5 r r e + + >                   ",
"      q.X q.X q.- : : : : : : : , $ % e r r r , 5 f e e e e e $ o 5 y r e 5 + + > q.q.              ",
"      q.X X X X ` % : : : : : , , $ : 7 r r r r , : e e e e e : 5 r r y e , + + > X X X q.q.q.      ",
"    . . X X X X X : : : % : : : , $ : 7 r r r r n B y e e e e $ 5 r r e 7 5 + + : X X X X q.q.      ",
"  . . . X X X X X : : % : % : : : $ $ % 7 y r r m B y e e e e , : 7 e 7 7 5 + $ > X X X X X X       ",
"  . . X X X X X X : : : : : : : : $ + $ 7 r r r r k y 7 , , 7 , + , 7 7 7 > : + > X X X X X q.q.    ",
"  . . X X X X X X % : : : : : : : % + $ 6 7 r , 5 z r 5 : : > , , 5 7 7 , + + + > X X X X X X q.    ",
"  . X X X X X X X : : : % : : % $ : + $ 6 7 r f x j 7 : O : > > : 5 7 7 , + + : : X X X X X X q.q.  ",
"  . X X X X X X X % : : % : : % : : @ # , 5 7 n V j 2 $ , 7 , > + % 5 , , + + > =   X X X X X X X   ",
"  . X X X X X X X ~ % % % % % % & : # + # , 2 s B e , 5 7 7 5 > # + , 5 : $ # >     X X X X X X q.  ",
"  . X X X X X X X q.+ # + # # + $ & $ + @ > % 8 h 7 e 7 7 7 7 > + % , , + + + >     X X X X X q.q.  ",
"  . . X X X X X X X + # # # # # + # : @ # & 2 9 9 5 7 5 7 7 5 6 % $ > : + + : < q.q.X X X X X X X   ",
"  . . X X X X X X X ; @ # @ # @ @ % : # + @ 5 9 , , , , , , , , , $ % + + # > w.X X X X X X X q.q.  ",
"  . . X X X X X X X X # @ # @ # # $ & $ @ O # , , , , , , , , , , , + O + $ : X X X X X X X X q.q.  ",
"  . . X X X X X X X X ^ # @ # @ @ @ $ : # + # : , , , , , , , , , : + + $ : ( X X X X X X X X X q.  ",
"    . X X X X X X X X X @ # @ # # @ $ & $ # + # : > , , , , , , : + + + $ : X X X X X X X X X X q.  ",
"    . . X X X X X X X X / @ # @ @ # @ % : $ # + + $ % : , : % % + + + + : ) X X X X X X   X X X q.  ",
"      . X X X X X X X X X # @ # # @ @ $ : % # # + o + # % $ + o + + $ % ) X X X X X X X     X X X   ",
"  . . . X X X X X X X X X _ # @ @ # @ # $ & $ # # $ + + + o + @ % + % % X X X X X X X X     X X q.  ",
"  . . X X X X X X X X X X X _ # # @ # @ @ $ & % $ # # # # # # # + : % _ X X X X X X X X q.q.X q.q.  ",
"  . . X X X X X X X X X X X X @ @ # @ @ + + + % : % $ # @ # # % : p { X X X X X X X X X X X X X X   ",
"  . X X X X X X X X X X X X . . X + + O o o o + # % : % & & & : ] X X X X X X X X X X X X X X q.q.  ",
"  . X X X X X X X X X X . . . . . X X X X X . q.      . . . X X X X . . . . X X X X X X X X X q..   ",
"  . . . . X . . . . . . . . .   . . X X . . .         . . . . . . . .     . . . . X . . . X . .     ",
"      . . . .         .           . . . .                     . .               . . . . . . .       ",
"                                                                                                    "
};
