/* XPM */
static char *result[] = {
/* columns rows colors chars-per-pixel */
"50 50 82 1 ",
"  c gray26",
". c gray38",
"X c gray46",
"o c #9F7100",
"O c #A27400",
"+ c #A77900",
"@ c #AB7D00",
"# c #A87D14",
"$ c #AE8100",
"% c #AF8800",
"& c #B18300",
"* c #B78A01",
"= c #BB8C00",
"- c #B18409",
"; c #B88B0E",
": c #BD9D00",
"> c #AF8828",
", c #C29300",
"< c #C69800",
"1 c #CA9B00",
"2 c #C6990C",
"3 c #C2A100",
"4 c #C8A500",
"5 c #CCAC00",
"6 c #D3A400",
"7 c #D5AA00",
"8 c #DCAD00",
"9 c #DAAC0B",
"0 c #CDB500",
"q c #D2B200",
"w c #DDB300",
"e c #DBBB00",
"r c #CCA112",
"t c #E2B200",
"y c #E7BB00",
"u c #ECBC00",
"i c #E1B619",
"p c #C39C2A",
"a c #CFA727",
"s c #DCC800",
"d c #E7C300",
"f c #EBC201",
"g c #E1CE00",
"h c #ECCB00",
"j c #F5C500",
"k c #F2CD00",
"l c #FECE00",
"z c #FCCD0A",
"x c #EDD300",
"c c #F3D201",
"v c #FED500",
"b c #FEDC00",
"n c #F0C51A",
"m c #F8D310",
"M c #EAE100",
"N c #F0E300",
"B c #FFE400",
"V c #FFEC00",
"C c #FEF300",
"Z c #FFFE00",
"A c #FFFF17",
"S c #FFE32F",
"D c #FFEC33",
"F c #C09F46",
"G c #CAA848",
"H c #CEAD51",
"J c #D3B459",
"K c #F2D14D",
"L c #FFE540",
"P c #FFFF58",
"I c #E4CE6E",
"U c #FFE961",
"Y c #FFE57B",
"T c #FFF871",
"R c gray62",
"E c #FFFD8D",
"W c #FFFF98",
"Q c #FFFED4",
"! c #FFFAE4",
"~ c #FFFCE8",
"^ c #FCFAF6",
"/ c #FFFFFE",
/* pixels */
"                                                  ",
"RRXRR  RR     .RRXRRi888888dkmJR      .RRRR      R",
"RXXRR RRXR    .RRXXjjjjjjjjbbvlRR    ..XRXXXR  RXR",
"XXXXXXRXXXR  ..XXXzllllllybDCBlzX    ..XXXXXRRXXXX",
"XXXXXXXXXXR   .XXXlllllllbVWCCBlRR   ..XXXXXXRXXXX",
"XXXXXXXXXXX   ..XbbbbbbbvbQLhclvuX  ..XXXXXXXXXXXX",
"XXXXXXXXXXR   ..XAAAAAAA4CS7::&luR  .XXXXXXXXXXXXX",
"XXXXXXXXXRR  ...X//////^hC55eboluX  ..XXXXXXXXXXXX",
"XXXXXXXXXXX  ..XZZZZZZZCBb:V0MvOuu   .XXXXXXXXXXXX",
"XXXXXXXXXXR  ..XZZZZZZZgCqxQ0<lw6u   ..XXXXXXXXXXX",
"XXXXXXXXXRR  ..Xlllllll6V3TPx<llOt  ...XXXXXXXXXXX",
"XXXXX XXXX   ..9lvlllvlybdEVy6ll+66 ..XXXXXXXXXXXX",
"XXXXX  XXR    .jjjjjjj8yxbZB4tllu68 ..XXXXXXXXXXXX",
"XXXXX  XXR    .tttttttty2ZCB6<llu16 .XXXXXXXXXXXXX",
"XXXXX  XXX    .tttttttty3ZBmh1llu@8 ..XXXXXXXXXXXX",
"XXXXXRRXXXR   .ttttttt6e7Zb~!7llu@6 ..XXXX XXXXXXX",
"XXXXXXXXXXRR  .ttttttt=8vVU//Knlu*1 .XXXX  XXXXXXX",
"XXXXXXXXXXXX  .ttttttt1yCvbIYy=lu6, ...XX RXXXXXXX",
"XXXXXXXXXXXR  attttttt1<s5eZvty,11,2  .XXRXXXXXXXX",
"XXXXXXXXXXRR  1ttttttt1=$Cblltjjt@@,  ..XXXXXXXXXX",
"..XXXX..XXXR  8ttttttt<=Zjlllttt1t@,   ..XXXXXXXXX",
" ..........   8ttttttt1*CClllttt@u@1    ...XXXX.. ",
"   ....       t88t8t88<&v+yujtt1,t@1      ......  ",
"              ,,,,,,,=1%fj8tttt@uu*1              ",
"              =,,,,,,=1&ulcytt6*ut@,              ",
"   RXRXRRRRXXR,,,,,=,=1@uu&ttt,,ut,,RXRRRRR       ",
"   RXXXXXRRXXX,,,,,,,,1@uuydtt,uut@,XXXRXXXXRRR   ",
"  ..XXXXXXXXXX,,,=,,,,1@uutftt,utt@,XXXXXXXXXRR   ",
" ...XXXXXXXXXX,,,,,,,,,@yu&ltt1ut8@,XXXXXXXXXXX   ",
" ..XXXXXXXXXXX=,,,,,,,,@7u@l816*86@,XXXXXXXXXXRR  ",
" ..XXXXXXXXXXX-,,,=,,,<&7u=u6<1O81@;XXXXXXXXXXXR  ",
" .XXXXXXXXXXXXH,,,,,,,,@6ucu,=<+81@pXXXX XXXXXXRR ",
" .XXXXXXX   XXX,,,,,,,=&6tNu,+1=8,@XXXXX  XXXXXXX ",
" .XXXXXXX   XXX,=,==,=&@<6x61<@16+@XXXXX  XXXXXXR ",
" .XXXXXXXRR  XX@&@&&@&=&+1u=88+@1+,XXXXX  XXXXXRR ",
" ..XXXXXXXX  XX@&&&&&&=@O1f1886o1+,XXXXXRRXXXXXXX ",
" ..XXXXXXXXRRXX&&&@&&&@,+=11w84O<@,XXXXXXXXXXXXRR ",
" ..XXXXXXXXXXXX&&&&&&&@<&O<1111<&@,XXXXXXXXXXXXRR ",
" ..XXXXXXXXXXXXF&&@&&&&<&O111111+&2XXXXXXXXXXXXXR ",
"  .XXXXXXXXXXXXX&&&&&&&@&O<1111<+@XXXXXXXXXXXXXXR ",
"  ..XXXXXXXXXXXX&&&&&&&**@*1111@@=XXXXXXXXXX XXXR ",
"   .XXXXXXXXXXXX&&@&&&&&1@O<11,+@<XXXXXXXXXX  XXX ",
" ...XXXXXXXXXXX  &@&&@&&1@&+@@+@*-XXXXXXXXXX  XXR ",
" ..XXXXXXXXXXXXRR&&&&&&&@*&@OO&&*XXXXXXXXXXXRRXRR ",
" ..XXXXXXXXXXXXXX@@@@@@@@1*@&&*@1XXXXXXXXXXXXXXXX ",
" .XXXXXXXXXXXX..XX@+@@@+@@,,&&&,XXXXXXXXXXXXXXXRR ",
" .XXXXXXXXXX.....X>OOOoOoo,,@&,2XX....XXXXXXXXXR. ",
" ....X......... ..X#oOoOooo,1<r....  ....X...X..  ",
"   ....    .     ....>>>>>>>pG ..       .......   ",
"                                                  "
};
