/* XPM */
static char *result[] = {
/* columns rows colors chars-per-pixel */
"50 50 55 1 ",
"  c gray26",
". c gray38",
"X c gray46",
"o c #9F7100",
"O c #A07200",
"+ c #AD7F00",
"@ c #AD7F03",
"# c #AF8100",
"$ c #B08200",
"% c #BC8D00",
"& c #AC8320",
"* c #B18922",
"= c #B38A22",
"- c #B48C22",
"; c #B58D22",
": c #BA9022",
"> c #B48F33",
", c #BA9436",
"< c #BC993E",
"1 c #BD993E",
"2 c #BC993F",
"3 c #C19200",
"4 c #E2B200",
"5 c #E3BC04",
"6 c #C29922",
"7 c #C29A22",
"8 c #C89F22",
"9 c #C9A022",
"0 c #CEA522",
"q c #D5AB22",
"w c #DCB322",
"e c #E6BC22",
"r c #E7BD22",
"t c #F8C700",
"y c #FDCD00",
"u c #FFCD00",
"i c #FFCE00",
"p c #FFDA00",
"a c #FFDD00",
"s c #FFDE00",
"d c #FFDF00",
"f c #ECE200",
"g c #FDFC01",
"h c yellow",
"j c #FFFF01",
"k c #ECC221",
"l c #F7D23D",
"z c #B99744",
"x c #C1A35B",
"c c #C1A45E",
"v c #C7AC6C",
"b c gray62",
"n c #CFB984",
"m c #F4EFC3",
"M c #FFFFDD",
/* pixels */
"                                                  ",
"bbXbb  bb     .bbXbbXXbbXXbbbbXb      .bbbb      b",
"bXXbb bbXb    .bbXXXXXbXXXXbXXXbb    ..XbXXXb  bXb",
"XXXXXXbXXXb  ..XXXXXXliiiiiitXXXX    ..XXXXXbbXXXX",
"XXXXXXXXXXb   .XXXXXXkiiiiiiyXXXbb   ..XXXXXXbXXXX",
"XXXXXXXXXXX   ..XXXXX5pppassdXXXbX  ..XXXXXXXXXXXX",
"XXXXXXXXXXb   ..XXXXXfhhhhhhhXXXXb  .XXXXXXXXXXXXX",
"XXXXXXXXXbb  ...XXXXXmMMMMMMMXXXXX  ..XXXXXXXXXXXX",
"XXXXXXXXXXX  ..XXXXXXgjjjjjjjXXXXb   .XXXXXXXXXXXX",
"XXXXXXXXXXb  ..XXXXXXhhhhhhhhXXXbb   ..XXXXXXXXXXX",
"XXXXXXXXXbb  ..XXXX XuuuuuuuuXXXbX  ...XXXXXXXXXXX",
"XXXXX XXXX   ..XXXX  iiiiiiiiXXXXb  ..XXXXXXXXXXXX",
"XXXXX  XXb    ..XXX  tttttttt>XXXb  ..XXXXXXXXXXXX",
"XXXXX  XXb    ..XXX  44444444:XXXb  .XXXXXXXXXXXXX",
"XXXXX  XXX    ..XXXbb444444446XXXX  ..XXXXXXXXXXXX",
"XXXXXbbXXXb   ..XXXXX444444440XXXb  ..XXXX XXXXXXX",
"XXXXXXXXXXbb  .XXXXXX44444444qXXXb  .XXXX  XXXXXXX",
"XXXXXXXXXXXX  .XXXXXX44444444wXXbb  ...XX bXXXXXXX",
"XXXXXXXXXXXb  ...XXXn44444444eXXXb    .XXbXXXXXXXX",
"XXXXXXXXXXbb  ....XXv44444444rXXbb    ..XXXXXXXXXX",
"..XXXX..XXXb    ....c44444444rXXb      ..XXXXXXXXX",
" ..........        .144444444e..        ...XXXX.. ",
"   ....            .144444444e.           ......  ",
"                    ,333333339                    ",
"                    ,333333339                    ",
"   bXbXbbbbXXbbXXbb ,333333339  XbbbbXbbbbb       ",
"   bXXXXXbbXXXbXXXbX,333333339bbXXbXXXXbXXXXbbb   ",
"  ..XXXXXXXXXXXXXXXX,333333339bXXXXXXXXXXXXXXbb   ",
" ...XXXXXXXXXXXXXXXX,333333339XXXXXXXXXXXXXXXXX   ",
" ..XXXXXXXXXXXXXXXXX<333333339XXXXXXXXXXXXXXXXbb  ",
" ..XXXXXXXXXXXXXXXXX2333333339XXXXXXXXXXXXXXXXXb  ",
" .XXXXXXXXXXXXXXXXXXx333333339XXXXXXXXXX XXXXXXbb ",
" .XXXXXXX   XXXXXXXXX333333339XXXXXXXXXX  XXXXXXX ",
" .XXXXXXX   XXXXXXXXX333333338XXXXXXXXXX  XXXXXXb ",
" .XXXXXXXbb  XXXXXXXX%%%%%%%%7XXXXXXXXXX  XXXXXbb ",
" ..XXXXXXXX  XXXXXXXX$$$$$$$$;XXXXXXXXXXbbXXXXXXX ",
" ..XXXXXXXXbbXXXXXXXX$$$$$$$$-XXXXXXXXXXXXXXXXXbb ",
" ..XXXXXXXXXXXXXXXXXX$$$$$$$$=XXXXXXXXXXXXXXXXXbb ",
" ..XXXXXXXXXXXXXXXXXX$$$$$$$$*XXXXXXXXXXXXXXXXXXb ",
"  .XXXXXXXXXXXXXXXXXX$$$$$$$$zXXXXXXXXXXXXXXXXXXb ",
"  ..XXXXXXXXXXXXXXXXX$$$$$$$$.XXXXXXXXXXXXXX XXXb ",
"   .XXXXXXXXXXXX  XXX$$$$$$$$.XXXXXXXXXXXXXX  XXX ",
" ...XXXXXXXXXXX  bXXX$$$$$$$$XXXXXXXXXXXXXXX  XXb ",
" ..XXXXXXXXXXXXbbXXXX#$$$$$$$XXXXXXXXXXXXXXXbbXbb ",
" ..XXXXXXXXXXXXXXXXXX+$$$$$$$XXXXXXXXXXXXXXXXXXXX ",
" .XXXXXXXXXXXX..XXXXX@$$$$$$$XXXXXXXXXXXXXXXXXXbb ",
" .XXXXXXXXXX.....XXXX&OOOOooO.XXXX....XXXXXXXXXb. ",
" ....X......... ..XX...    ........  ....X...X..  ",
"   ....    .     ....          ..       .......   ",
"                                                  "
};
