/* XPM */
static char *result[] = {
/* columns rows colors chars-per-pixel */
"50 50 244 2 ",
"   c gray26",
".  c gray38",
"X  c gray46",
"o  c #9F7100",
"O  c #A07200",
"+  c #A17300",
"@  c #A27400",
"#  c #A37500",
"$  c #A47600",
"%  c #A47700",
"&  c #A57700",
"*  c #A67800",
"=  c #A77900",
"-  c #A77C00",
";  c #A77D00",
":  c #A87A00",
">  c #A97A00",
",  c #A97B00",
"<  c #AA7B00",
"1  c #AB7C00",
"2  c #AB7D00",
"3  c #AC7D00",
"4  c #AC7E00",
"5  c #AD7E00",
"6  c #AD7F00",
"7  c #AE7F00",
"8  c #AB8300",
"9  c #AF8000",
"0  c #B08100",
"q  c #B08200",
"w  c #B18200",
"e  c #B18300",
"r  c #B28300",
"t  c #B38400",
"y  c #B38500",
"u  c #B48500",
"i  c #B58600",
"p  c #B58700",
"a  c #B68600",
"s  c #B68700",
"d  c #B78700",
"f  c #B68800",
"g  c #B78800",
"h  c #B78F00",
"j  c #B88900",
"k  c #B98A00",
"l  c #B98B00",
"z  c #BA8B00",
"x  c #BB8C00",
"c  c #BA8C03",
"v  c #BC8D00",
"b  c #BD8E00",
"n  c #BD8F01",
"m  c #BE8F00",
"M  c #BA8D0C",
"N  c #BF9000",
"B  c #BB9700",
"V  c #BD9D00",
"C  c #B88E18",
"Z  c #BB921F",
"A  c #B79337",
"S  c #C09100",
"D  c #C19200",
"F  c #C29300",
"G  c #C39300",
"H  c #C39400",
"J  c #C49500",
"K  c #C59500",
"L  c #C49600",
"P  c #C59600",
"I  c #C69600",
"U  c #C69700",
"Y  c #C79700",
"T  c #C09A00",
"R  c #C79800",
"E  c #C79C00",
"W  c #C49907",
"Q  c #C89800",
"!  c #C89900",
"~  c #C99900",
"^  c #C99A00",
"/  c #C99B00",
"(  c #CA9B00",
")  c #CB9B00",
"_  c #CB9C00",
"`  c #C89E00",
"'  c #CC9C00",
"]  c #CD9D00",
"[  c #CE9E00",
"{  c #CE9F00",
"}  c #CF9F00",
"|  c #C0A000",
" . c #C3A300",
".. c #C6A600",
"X. c #CFA000",
"o. c #C8AD00",
"O. c #CCAC00",
"+. c #D0A000",
"@. c #D1A100",
"#. c #D2A100",
"$. c #D0A200",
"%. c #D1A200",
"&. c #D3A400",
"*. c #D4A400",
"=. c #D5A500",
"-. c #D5A600",
";. c #D6A600",
":. c #D7A700",
">. c #D3AB00",
",. c #D4A900",
"<. c #D6A800",
"1. c #D5AD00",
"2. c #D8A800",
"3. c #D9A900",
"4. c #DAAA00",
"5. c #DAAB00",
"6. c #DBAB00",
"7. c #DDAD00",
"8. c #DEAE00",
"9. c #DEAF00",
"0. c #DFAF00",
"q. c #CBB100",
"w. c #DAB200",
"e. c #DFB200",
"r. c #DEBB00",
"t. c #E0B000",
"y. c #E1B100",
"u. c #E2B200",
"i. c #E3B300",
"p. c #E3B500",
"a. c #E3B600",
"s. c #E4B400",
"d. c #E5B500",
"f. c #E6B500",
"g. c #E4B600",
"h. c #E6B600",
"j. c #E8B800",
"k. c #E9B900",
"l. c #EAB900",
"z. c #EABA00",
"x. c #EBBB00",
"c. c #ECBB00",
"v. c #ECBC00",
"b. c #EDBD00",
"n. c #EFBD00",
"m. c #EEBE00",
"M. c #F0BF00",
"N. c #CAA63D",
"B. c #E8C400",
"V. c #E9C400",
"C. c #EAC500",
"Z. c #EAC600",
"A. c #EAC900",
"S. c #EDCC00",
"D. c #EECD00",
"F. c #F1C000",
"G. c #F1C100",
"H. c #F2C200",
"J. c #F5C500",
"K. c #F6C700",
"L. c #F7C900",
"P. c #F7CB00",
"I. c #F8C800",
"U. c #FACA00",
"Y. c #FDCC00",
"T. c #FDCD00",
"R. c #FECE00",
"E. c #FFCE00",
"W. c #FDCD03",
"Q. c #E0D000",
"!. c #F1D000",
"~. c #F2D100",
"^. c #F4D000",
"/. c #F4D200",
"(. c #FCD000",
"). c #FFD000",
"_. c #FFD100",
"`. c #FCD300",
"'. c #FFD200",
"]. c #FFD400",
"[. c #FFD500",
"{. c #FED700",
"}. c gold",
"|. c #F7DB00",
" X c #FAD800",
".X c #FCD900",
"XX c #FFD800",
"oX c #FCDA00",
"OX c #FFDB00",
"+X c #FEDC00",
"@X c #FFDD00",
"#X c #FEDE00",
"$X c #FFDE00",
"%X c #FFDE0B",
"&X c #F1D212",
"*X c #EEE600",
"=X c #FDE000",
"-X c #FEE000",
";X c #FFE100",
":X c #FFE300",
">X c #FBE400",
",X c #FFE600",
"<X c #FFE005",
"1X c #FFE900",
"2X c #FFEA00",
"3X c #FFE902",
"4X c #FFEB02",
"5X c #FFEC00",
"6X c #FFE907",
"7X c #F5F000",
"8X c #F7F200",
"9X c #FFF100",
"0X c #FFF300",
"qX c #FFF400",
"wX c #FFF500",
"eX c #FFF600",
"rX c #FFF800",
"tX c #FFF900",
"yX c #FFFB00",
"uX c #FFFE00",
"iX c yellow",
"pX c #FFE719",
"aX c #FFFF19",
"sX c #CDAD4D",
"dX c #D7B858",
"fX c #D6C14A",
"gX c #DEC05D",
"hX c #E7C95D",
"jX c #F7DB5D",
"kX c #DDC979",
"lX c #EBCF68",
"zX c #F3D966",
"xX c #E6D379",
"cX c #F9E360",
"vX c gray62",
"bX c #DAC694",
"nX c #E2CC8A",
"mX c #EEDE80",
"MX c #FFFD8F",
"NX c #FFF3A9",
"BX c #FFFFD9",
"VX c #FFFFDD",
"CX c ivory",
"ZX c #FFFFFC",
/* pixels */
"                                                                                                    ",
"vXvXX vXvX    vXvX          . vXvXX vXvXX X vXvXX X vXvXvXvXX vX            . vXvXvXvX            vX",
"vXX X vXvX  vXvXX vX        . vXvXX X kXcXjXgXhXhXhXhXhXlXbXX vXvX        . . X vXX X X vX    vXX vX",
"X X X X X X vXX X X vX    . . X X X mX+X@X_.i.:.i.i.i.i.i.u.nXX X         . . X X X X X vXvXX X X X ",
"X X X X X X X X X X vX      . X X X @X2X4XOXE.Y.E.E.E.E.E.E.W.X vXvX      . . X X X X X X vXX X X X ",
"X X X X X X X X X X X       . . X r.3XCXwX0XXXE.k.E.E.E.E.E.E.2.vXX     . . X X X X X X X X X X X X ",
"X X X X X X X X X X vX      . . X $XZX%X!.oX].'.j.XXXXXXXX}.}.}.X vX    . X X X X X X X X X X X X X ",
"X X X X X X X X X vXvX    . . . xXpXNX| V V 8.E.v.7XiXiXiXiXiXiXfXX     . . X X X X X X X X X X X X ",
"X X X X X X X X X X X     . . X D.rXA...>.-X$ U.m.zXVXVXVXVXVXVXVXvX      . X X X X X X X X X X X X ",
"X X X X X X X X X X vX    . . X |. X| 6X8 8X.X-.M.w.iXiXiXiXiXiXiXvX      . . X X X X X X X X X X X ",
"X X X X X X X X X vXvX    . . X ;XS.$XCX8 C.E.J d.v.iXiXiXiXiXiXiXX     . . . X X X X X X X X X X X ",
"X X X X X   X X X X       . . W eX .MXaXB.Z.E.U.b v.5.E.E.E.E.E.E.L.    . . X X X X X X X X X X X X ",
"X X X X X     X X vX        . a./.&XBX:XP.^.E.E.9 t.t.E.E.E.E.E.E.E.    . . X X X X X X X X X X X X ",
"X X X X X     X X vX        . V.~.<XuX@XF.<.E.E.P ;.7.j.j.j.j.j.j.j.    . X X X X X X X X X X X X X ",
"X X X X X     X X X         . l.O.uX,X@XH.7 E.E._ Y K u.u.u.u.u.u.u.    . . X X X X X X X X X X X X ",
"X X X X X vXvXX X X vX      . f.h iX@X#X(.3 E.E.x.j #.u.u.u.u.u.u.u.    . . X X X X   X X X X X X X ",
"X X X X X X X X X X vXvX    . e.T yX@X` [.6.E.E.v.w =.u.u.u.u.u.u.u.sX  . X X X X     X X X X X X X ",
"X X X X X X X X X X X X     N.$.{.1X@X& [.K.G.E.v.j *.y.u.u.u.u.u.u.[   . . . X X   vXX X X X X X X ",
"X X X X X X X X X X X vX    c ;.9XI.1.q.].j.] %.v.N @.J u.u.u.u.u.u.s.      . X X vXX X X X X X X X ",
"X X X X X X X X X X vXvX    Q ] - >XiX5X).u.H.h.J o I f u.u.u.u.u.u.u.      . . X X X X X X X X X X ",
". . X X X X . . X X X vX    ) i o.'.E.E.E.u.u.u.~ ^ m ! u.u.u.u.u.u.u.        . . X X X X X X X X X ",
"  . . . . . . . . . .       ( m *X`.E.E.E.u.u.8.z ^ x %.u.u.u.u.u.u.u.          . . . X X X X . .   ",
"      . . . .               ( x qXB u.E.E.u.u.+.( { z %.u.u.u.u.u.u.u.              . . . . . .     ",
"                            ( j =X,.u.u.u.u.u.d v.*.x R D D D D D D D                               ",
"                            ( y n.J.T.u.u.u.} x v.;.j R D D D D D D D                               ",
"      vXX vXX vXvXvXvXX X vX( q v.m.; u.u.u.3 X.v.[ i R D D D D D D D vXvXX vXvXvXvXvX              ",
"      vXX X X X X vXvXX X X ( r v.v.9.g.u.u.5 x.z.[ u R D D D D D D D X X X X vXX X X X vXvXvX      ",
"    . . X X X X X X X X X X ( t v.v.k.p.u.u.5 v.s.R t R D D D D D D D X X X X X X X X X X vXvX      ",
"  . . . X X X X X X X X X X J g u.v.r J.u.u.e b.7.H i R D D D D D D D X X X X X X X X X X X X       ",
"  . . X X X X X X X X X X X F r 3.v.@ R.u.7.r =.7.b g H D D D D D D D X X X X X X X X X X X vXvX    ",
"  . . X X X X X X X X X X X D 9 3.v.% c.' Q m P 7.f z e D D D D D D D X X X X X X X X X X X X vX    ",
"  . X X X X X X X X X X X X b 6 =.v.Q.s.j G Y P 7.f x 5 D D D D D D D X X X X X   X X X X X X vXvX  ",
"  . X X X X X X X       X X C 6 @.y.uXs.4 u Q ' &.g x m D D D D D D b X X X X X     X X X X X X X   ",
"  . X X X X X X X       X X X 0 x ' tX2.0.y F [ X.> x D D D D D D D Z X X X X X     X X X X X X vX  ",
"  . X X X X X X X vXvX    X X r = U +Xp 7.7., = ( : v q q q q q q q X X X X X X     X X X X X vXvX  ",
"  . . X X X X X X X X     X X k = / i.4.7.7.l # L < m q q q q q q q X X X X X X vXvXX X X X X X X   ",
"  . . X X X X X X X X vXvXX X H 3 E 2 ^ 3.3.} # y r N q q q q q q q X X X X X X X X X X X X X vXvX  ",
"  . . X X X X X X X X X X X X J 9 + ( ( ( ( ( y w r S q q q q q q q X X X X X X X X X X X X X vXvX  ",
"  . . X X X X X X X X X X X X n r $ ( ( ( ( ( ( < b * q q q q q q q X X X X X X X X X X X X X X vX  ",
"    . X X X X X X X X X X X X X r o ( ( ( ( ( q 7 b q q q q q q q A X X X X X X X X X X X X X X vX  ",
"    . . X X X X X X X X X X X X g 0 $ ( ( ( ( + r s q q q q q q q X X X X X X X X X X X   X X X vX  ",
"      . X X X X X X X X X X X X U r O R ( ( 5 1 r m q q q q q q q X X X X X X X X X X X     X X X   ",
"  . . . X X X X X X X X X X X   a r r + : @ < r b 6 q q q q q q 2 X X X X X X X X X X X     X X vX  ",
"  . . X X X X X X X X X X X X vXvXS r w 5 5 r r k q q q q q q q X X X X X X X X X X X X vXvXX vXvX  ",
"  . . X X X X X X X X X X X X X X ^ r r r r r v l q q q q q q q X X X X X X X X X X X X X X X X X   ",
"  . X X X X X X X X X X X X . . X X H r r r r N O O O O O O O X X X X X X X X X X X X X X X X vXvX  ",
"  . X X X X X X X X X X . . . . . X M R m m ^ : O O O O O O X X X X . . . . X X X X X X X X X vX.   ",
"  . . . . X . . . . . . . . .   . . X dX( H = O O O O O O . . . . . .     . . . . X . . . X . .     ",
"      . . . .         .           . . . .                     . .               . . . . . . .       ",
"                                                                                                    "
};
