/* XPM */
static char *result[] = {
/* columns rows colors chars-per-pixel */
"50 50 91 1 ",
"  c gray26",
". c gray38",
"X c gray46",
"o c #9F7100",
"O c #A27300",
"+ c #A77800",
"@ c #AC7D00",
"# c #A97D11",
"$ c #AF8200",
"% c #B18300",
"& c #B68900",
"* c #BB8C00",
"= c #B79200",
"- c #BD9C00",
"; c #AC8219",
": c #B28C2C",
"> c #C29300",
", c #C69901",
"< c #CA9B00",
"1 c #C3960A",
"2 c #C3A300",
"3 c #CCAC00",
"4 c #D4A400",
"5 c #D4AE00",
"6 c #DCAC00",
"7 c #D9B200",
"8 c #D1BB00",
"9 c #DBBA00",
"0 c #D0A418",
"q c #E2B200",
"w c #E4BD01",
"e c #EBBB00",
"r c #F0BF00",
"t c #CAA122",
"y c #DFC000",
"u c #DFCF00",
"i c #E7C500",
"p c #EBC400",
"a c #EDCC00",
"s c #F5C500",
"d c #F8C700",
"f c #F6CD00",
"g c #FECD00",
"h c #E4D400",
"j c #EDD200",
"k c #F3D200",
"l c #FCD401",
"z c #FFDD00",
"x c #F8D60D",
"c c #EDCB18",
"v c #F2E400",
"b c #FFE200",
"n c #F3EA00",
"m c #FEED00",
"M c #FEF300",
"N c #FFFE00",
"B c #FFE114",
"V c #FFFF10",
"C c #EFD023",
"Z c #FFE122",
"A c #FFF328",
"S c #BE9C43",
"D c #CBAA49",
"F c #DCBB4D",
"G c #D2B45C",
"H c #D4B763",
"J c #D4B863",
"K c #ECCD59",
"L c #E9D252",
"P c #FFEE47",
"I c #FFFF47",
"U c #FFF74F",
"Y c #FFFF4F",
"T c #FFFF59",
"R c #E4C763",
"E c #E5C966",
"W c #FFE67F",
"Q c #FFFF7D",
"! c gray62",
"~ c #FFE785",
"^ c #F7F48D",
"/ c #FFF199",
"( c #FFF4A7",
") c #FFFFA1",
"_ c #FFF5B6",
"` c #FFF7BE",
"' c #FFF6C0",
"] c #FFFFC2",
"[ c #FFFFDD",
"{ c #FFFFEA",
"} c white",
/* pixels */
"                                                  ",
"!!X!!  !!     .!!X!!XX!!XX!!!!X!      .!!!!      !",
"!XX!! !!X!    .!!azzzzgl46eweeeeK    ..X!XXX!  !X!",
"XXXXXX!XXX!  ..Czzzbzzlgggggdggddr   ..XXXXX!!XXXX",
"XXXXXXXXXX!   kzbA[NNNNgggd&ggggggg  ..XXXXXX!XXXX",
"XXXXXXXXXXX  lzM[]BbzbblMggw>glggggx..XXXXXXXXXXXX",
"XXXXXXXXXX! yzm{/z93333fgzggemMMMMMMmXXXXXXXXXXXXX",
"XXXXXXXXX!!LzMPZi--9,i2o*gggeq^)))))).XXXXXXXXXXXX",
"XXXXXXXXXXXazMz3-ibMOmMq&&ggeeJ^QQQQQQXXXXXXXXXXXX",
"XXXXXXXXXX!kNb33zAYMrnbgg&@qeeeNNNNNNNNXXXXXXXXXXX",
"XXXXXXXXX!pbza3zU{Vvdpzggg*+4eeammmmmmmXXXXXXXXXXX",
"XXXXX XXXtwMz-f({NMkg+zgggg@<4e6ggggggldXXXXXXXXXX",
"XXXXX  XXqaz-k`TNMz$g6gggggrO46qrdgggdddXXXXXXXXXX",
"XXXXX  XXqkk-zNNmzzndreggggd&>4w>qqqqqqqXXXXXXXXXX",
"XXXXX  X0qg&jNNmzzcMgwsggggdeO464qqqqqqq6XXXXXXXXX",
"XXXXX!!Xq6s@zNNzzz'Ngq%glgdeeO>44<qqqqqqqX XXXXXXX",
"XXXXXXXX6w6@NNbzB_}}~w4dggdre4+444qqqqqqq  XXXXXXX",
"XXXXXXXE4e@fNmzzzx]Wdwdqggdeeq+<4>qqqqqqqR!XXXXXXX",
"XXXXXXXF>qOfhqpp--Iggqd>%4e44q+&4<qqqqqqq<XXXXXXXX",
"XXXXXXX<,<%=NNNMMmgggqqdgwqq6%@%<<6qq6qqqqXXXXXXXX",
"..XXXX.4>,*Mnlgggggggwqqqqq6>e4@><>qqqqqqqXXXXXXXX",
" ......4&@&Ndnegggggdqqqqq6<%r4@><>qqqqqqq.XXXX.. ",
"   ....4&@-Mg&lqegggdqqqq6,@ee6O><<q6q6qqq......  ",
"       4&$5vgg3pqqqqqqqq6>>qerqo@<<>>>>>>>        ",
"       4%@7asgejeqqqqqqq>%4eer6o@<<>>>>>>>        ",
"   !X!X4*@7reed4sqqqqqq<@>eeeq4o&<<>>>>>>>!       ",
"   !XXX4&@4eeeee3eqqqqq<@eeee6<O@<<>>>>>>>XX!!!   ",
"  ..XXX4&@&eeeee9sqqqqq<Orre6q<O@<<>>>>>>>XXX!!   ",
" ...XXX4&@@6eeee8gqqqqq4@rr666<+@<>>>>>>>>XXXXX   ",
" ..XXXX<&@@4eeeewgqq4<q<>>666q<@&<%>>>>>>>XXXX!!  ",
" ..XXXX>>&%46ee>bgq6<<<<%>6664@@@<%>>>>>>>XXXXX!  ",
" .XXXXXD*%O44ep,bdq<@>,,%>q66<+@%<>>>*>>>&XXXXX!! ",
" .XXXXXX>%+446rjzr6><%><,%q64<O&>>>>>>>>> XXXXXXX ",
" .XXXXXX<%@+<<wudq<<q>@%<@<6<<+@>>>>><>>> XXXXXX! ",
" .XXXXXX<&@+<<>Mr4>6q64@@>@<<+@><>@@&@@&@ XXXXX!! ",
" ..XXXXX1>%+,<+N4>6q666q&&><<O@@<@@@@@&@@!XXXXXXX ",
" ..XXXXXX>%%O<h2<<646666<@><>o&>>@@&@&&@SXXXXXX!! ",
" ..XXXXXX<%%O>O<<<<<<<<<<<+<O@@>>&@&@@@&XXXXXXX!! ",
" ..XXXXXX*>%%O<<<<<<<<<<<<<OO@&4@&@@&@@@XXXXXXXX! ",
"  .XXXXXXX<%%O+<<<<<<<<<<<>+@&<@@@@&@&&XXXXXXXXX! ",
"  ..XXXXXX,>@%+@<<<<<<<<<>O@%%<%&@@&@@@XXXXX XXX! ",
"   .XXXXXXX,%%@O@><<<<<<%O@%%>*%@&@@&&XXXXXX  XXX ",
" ...XXXXXXXt,@%%@O+>>&&OO@%%%<%@@&@&@&XXXXXX  XX! ",
" ..XXXXXXXXX<>%%@@O+ooO@%%%%<@%%&@&@@XXXXXXX!!X!! ",
" ..XXXXXXXXXX<>@%%%@%%%%%%%<*%@%@@&@XXXXXXXXXXXXX ",
" .XXXXXXXXXXXX<>%%%&%%%%%&<>@%%%@&&@XXXXXXXXXXX!! ",
" .XXXXXXXXXX...,<>@@%%@&,<+O@%%@%@@...XXXXXXXXX!. ",
" ....X......... G<<<,<<,*+OOOOOO++.  ....X...X..  ",
"   ....    .     ...HHD:###;   ..       .......   ",
"                                                  "
};
