/* XPM */
static char *result[] = {
/* columns rows colors chars-per-pixel */
"50 50 102 2 ",
"   c gray26",
".  c gray38",
"X  c gray46",
"o  c #9F7100",
"O  c #A17300",
"+  c #A67801",
"@  c #AB7D00",
"#  c #AB7F15",
"$  c #AF8000",
"%  c #B28300",
"&  c #B68900",
"*  c #BB8C00",
"=  c #BF9000",
"-  c #BD9D00",
";  c #B28615",
":  c #B88C15",
">  c #C29300",
",  c #C79900",
"<  c #CA9B00",
"1  c #C99C0C",
"2  c #C19511",
"3  c #C3A200",
"4  c #CBA500",
"5  c #CCAB00",
"6  c #D5A500",
"7  c #D4A900",
"8  c #DCAC00",
"9  c #D0A30E",
"0  c #DFB100",
"q  c #D4BF00",
"w  c #DEBA00",
"e  c #CEA214",
"r  c #E2B200",
"t  c #E8B700",
"y  c #ECBC00",
"u  c #E4B714",
"i  c #E5BA1F",
"p  c #D1A823",
"a  c #D0BA3A",
"s  c #D9C100",
"d  c #DECD00",
"f  c #ECC302",
"g  c #ECCB00",
"h  c #F3C400",
"j  c #F8C700",
"k  c #F1CE00",
"l  c #FFCE00",
"z  c #E4D400",
"x  c #ECD700",
"c  c #F5D400",
"v  c #FED500",
"b  c #F7DC00",
"n  c #FFDD00",
"m  c #FFDF0C",
"M  c #F2C619",
"N  c #FFDF11",
"B  c #FFD31C",
"V  c #EBE100",
"C  c #F2E400",
"Z  c #FFE300",
"A  c #F4EA00",
"S  c #FEEC00",
"D  c #F6F000",
"F  c #FFF500",
"G  c #FFFD00",
"H  c #FFFB0A",
"J  c #FFE014",
"K  c #FFFF16",
"L  c #FFD724",
"P  c #FFE121",
"I  c #FFFF22",
"U  c #FFFD2A",
"Y  c #FFFF36",
"T  c #D1AE42",
"R  c #CDAE50",
"E  c #C7AA5F",
"W  c #CEB15D",
"Q  c #D1B35B",
"!  c #ECCC57",
"~  c #ECCD5C",
"^  c #FFFE46",
"/  c #FFF161",
"(  c #FFE475",
")  c gray62",
"_  c #FFFF80",
"`  c #FFFC88",
"'  c #FFF19B",
"]  c #FEECA5",
"[  c #FCECAC",
"{  c #FFFFA4",
"}  c #FFF4AB",
"|  c #FFF5B6",
" . c #FFFEB2",
".. c #FEFEBB",
"X. c #F8ECC1",
"o. c #FEFEC2",
"O. c #FFFFD2",
"+. c #FFFDDD",
"@. c #FFFDE5",
"#. c #FFFBE8",
"$. c #FFFDF2",
"%. c #FFFFFE",
/* pixels */
"                                                                                                    ",
") ) X ) )     ) )           . ) ) X ) ) X X ) ) X X ) ) ) ) X )             . ) ) ) )             ) ",
") X X ) )   ) ) X )         . ) ) X X X X X ) X X X X ) X X X ) )         . . X ) X X X )     ) X ) ",
"X X X X X X ) X X X )     . . X X X X n n n n l l @ r r r r r % X         . . X X X X X ) ) X X X X ",
"X X X X X X X X X X )       . X X n n n n n Z n l l l l j l l l l l       . . X X X X X X ) X X X X ",
"X X X X X X X X X X X       n n n S I +.G G G F l l l l l % l l l l l r . . X X X X X X X X X X X X ",
"X X X X X X X X X X )     n n Z Y %.O.S n n n n v S n l l l y j l v l l l X X X X X X X X X X X X X ",
"X X X X X X X X X ) )   n n U $.#.m n g - 3 - - v l l l l v y y D G G G G F X X X X X X X X X X X X ",
"X X X X X X X X X X X k n G / J c 3 - - - 3 3 - - O O l l l f y y ..o.o.o.o.o.X X X X X X X X X X X ",
"X X X X X X X X X X g n G n n 3 - 5 c Z G O G F F h O O j l y y y u K K K K K K X X X X X X X X X X ",
"X X X X X X X X X ) k F n n 3 4 c F  ...G c C Z n v l h O > 8 y y y C G G G G G a X X X X X X X X X ",
"X X X X X   X X X g Z Z Z 3 3 n U $.{ ^ b l O n l l l l h O > 6 t y r h v v v v l X X X X X X X X X ",
"X X X X X     X X y F Z 3 5 Z +.@.I F +.$ v 8 n l l l l l y O 6 6 t y * l l l l j M X X X X X X X X ",
"X X X X X     X 0 g n g 5 m ` U G F n %.C l r g l l l l l l 0 o 6 6 y 6 y l l j j l X X X X X X X X ",
"X X X X X     r 0 v k - c F G G Z n n %.G v r + l l l l l l y @ @ 6 6 8 * r 0 r r r p X X X X X X X ",
"X X X X X ) ) r r v & 5 Z G G Z n n N %.F l r r l l l l l l y t o 6 6 6 6 r r r r r r X X X X X X X ",
"X X X X X X 9 8 y y o v G G Z n n n P %.#.l r l y l l l l l y y @ @ 6 6 6 8 r r r r r X X X X X X X ",
"X X X X X X 6 8 y * * S G F Z n n J $.%.%.] y t O l l l l y y y 6 o < 6 < > r 8 r r r e X X X X X X ",
"X X X X X X 6 < 0 O h G H L ' } | %.%.%.%.%.%.X.[ ] y l v y y y t @ @ 6 < < t r r r r r X X X X X X ",
"X X X X X X 6 > 8 O , c x d d z ^ _ %.%.%.$.! r l h t 6 < < < r > > @ < < < 8 r r r r r X X X X X X ",
". . X X X 2 4 > % = C s F Z n c l l ( %.$.l 0 r t y y y r r 6 , < 8 O > < < 6 r r 8 r r X X X X X X ",
"  . . . . 6 < > $ * G C q l l l l l B %.#.l r r r r r r r 6 , < y 8 O @ < < 8 r r r r r X X X . .   ",
"      . . 6 < * @ 7 G l j s y t h l l %.[ l 0 r r r r r 6 , , y y y @ @ < > 8 r r t r t T . . .     ",
"          6 < & o w A l l y A y r r r %.f r r r r r r < % * y y y y @ @ > < > < < < < < >           ",
"          6 < & o w x y l l 7 F t r 8 %.r r r r r r < % % y y y y t + @ > < & > > > > > %           ",
"      ) X 6 , & o 8 x y y j j 4 v r r ~ r r r r r < @ % y y y y t 8 + @ @ < @ > > * > > *           ",
"      ) X 6 , % O 6 f y y y y y , v r i r r r r r + % y y y y t 8 8 @ @ % < & > > * > > & ) )       ",
"    . . X 6 < & @ < 8 y y y y y r n r u r r r r r , @ y y y r 8 8 6 @ @ % < > > > > > > : ) )       ",
"  . . . X < , % $ % 8 y y y y y & l j r r r r r r < > y y t 8 8 8 < + % @ < > > > > > > X X X       ",
"  . . X X > , % @ % 6 r y y y t V v l r r 6 < 6 r > + 8 r 8 8 8 8 < + @ % < > > > * * > X X ) )     ",
"  . . X X R < @ % @ 6 7 y y y r F l j r r < < < < > + O 8 8 8 r < < + % , < @ > > > > > X X X )     ",
"  . X X X X < % % O 6 6 8 y y 3 F l r 0 < @ @ < < < < < 8 8 8 8 < + @ @ , < > > > * > > X X X ) )   ",
"  . X X X X < > @ + % 6 6 t t 7 v j r 6 & > > @ > , , , 8 8 8 < < + @ @ > > > > > > > > X X X X X   ",
"  . X X X X < , @ @ @ < < 6 6 G j t 8 * t 8 8 % + * > & + 8 < < > O @ & < < > @ > > > X X X X X )   ",
"  . X X X X Q < & @ + > < < 4 G y 6 @ 8 8 8 8 8 8 > @ O > > < < @ @ > > < @ @ & @ @ & X X X X ) )   ",
"  . . X X X X < > @ @ @ < < , D < 8 r 8 8 8 r 8 8 8 @ @ < > < > O & @ > < @ & @ @ @ @ X X X X X X   ",
"  . . X X X X 1 > % % O $ > V $ < < < < 8 8 6 8 6 < < < > @ < + @ @ @ < & @ & @ @ @ X X X X X ) )   ",
"  . . X X X X X < & % @ o = < < < < < < < < < < < < < < < @ + + @ > < > & @ @ & @ X X X X X X ) )   ",
"  . . X X X X X 1 , % % @ O , < < < < < < < < < < < < < < O O @ @ @ < > @ @ @ @ & X X X X X X X )   ",
"    . X X X X X X < & % & @ o , < < < < < < < < < < < < + O @ & > > < @ @ > @ & X X X X X X X X )   ",
"    . . X X X X X W < % % % @ O + < < < < < < < < < < + O & & @ * < @ % @ & @ X X X X X   X X X )   ",
"      . X X X X X X 1 , % % % % O O O < > < < < > O O @ @ & @ & < & & @ & @ % X X X X X     X X X   ",
"  . . . X X X X X X X 1 , % % % % % O O O + O + O + @ @ & @ % < @ @ @ & @ & X X X X X X     X X )   ",
"  . . X X X X X X X X X < < % % % & @ % @ % @ % @ @ @ > @ & < @ % % % % @ + X X X X X X ) ) X ) )   ",
"  . . X X X X X X X X X X * < , @ & % % % & @ & > & @ & , > @ @ @ @ + + X X X X X X X X X X X X X   ",
"  . X X X X X X X X X X X X . < < < % % % @ & @ @ @ < < , O + O O O O X X X X X X X X X X X X ) )   ",
"  . X X X X X X X X X X . . . . . < < < < < 6 < < < > + O O o o O X . . . . X X X X X X X X X ) .   ",
"  . . . . X . . . . . . . . .   . . X X E ; # # # # # # # . . . . . .     . . . . X . . . X . .     ",
"      . . . .         .           . . . .                     . .               . . . . . . .       ",
"                                                                                                    "
};
