/* XPM */
static char *result[] = {
/* columns rows colors chars-per-pixel */
"50 50 83 1 ",
"  c gray26",
". c gray38",
"X c gray46",
"o c #9F7100",
"O c #A17300",
"+ c #A67901",
"@ c #AB7C00",
"# c #A77B0E",
"$ c #A97E14",
"% c #AF8000",
"& c #B28300",
"* c #B78800",
"= c #BC8D00",
"- c #B78B0E",
"; c #B98C0E",
": c #BF9100",
"> c #BD9D00",
", c #C29300",
"< c #C79900",
"1 c #CA9B00",
"2 c #C49C0A",
"3 c #C1961D",
"4 c #C4A500",
"5 c #CFA200",
"6 c #C5A900",
"7 c #CAAF00",
"8 c #D4A400",
"9 c #D5AC00",
"0 c #DDAD00",
"q c #CCB100",
"w c #D1B200",
"e c #DFB005",
"r c #DBBA00",
"t c #E2B200",
"y c #E6BC00",
"u c #ECBC00",
"i c #E0B311",
"p c #C29C2F",
"a c #C09C39",
"s c #C5A323",
"d c #C9A333",
"f c #CDA93D",
"g c #E4C200",
"h c #ECC400",
"j c #EDCB00",
"k c #F4C300",
"l c #F3CC00",
"z c #FFCE00",
"x c #E2D400",
"c c #ECD400",
"v c #EBD800",
"b c #F4D200",
"n c #FED400",
"m c #FFDD00",
"M c #FFD21C",
"N c #F2E400",
"B c #FFE400",
"V c #F5ED00",
"C c #FEEB00",
"Z c #F6F200",
"A c #FDF400",
"S c #FFFE00",
"D c #FFFC0E",
"F c #FFFF11",
"G c #FFD528",
"H c #FFFE35",
"J c #CFAF41",
"K c #F3DA4A",
"L c #FFFF47",
"P c #FFFF77",
"I c gray62",
"U c #F1DF83",
"Y c #FFFB8F",
"T c #F3EE96",
"R c #FFF7A1",
"E c #FFF0B6",
"W c #FFFFBC",
"Q c #FFF6C0",
"! c #FFF7C8",
"~ c #FFFFD6",
"^ c #FFFDE1",
"/ c #FFFFF3",
"( c #FFFFFC",
/* pixels */
"                                                  ",
"IIXII  II     .IIXIIXXIIXXIIIIXI      .IIII      I",
"IXXII IIXI    .IIXXXXXIXXXXIXXXII    ..XIXXXI  IXI",
"XXXXXXIXXXI  ..XXUbmmmmmnzu00tttd    ..XXXXXIIXXXX",
"XXXXXXXXXXI   .bmmmmmBmmmzzzzukzzzz  ..XXXXXXIXXXX",
"XXXXXXXXXXX  mmmBHL~FSSSSmmzzzzkknzzz.XXXXXXXXXXXX",
"XXXXXXXXXXI mmBH^(RBmmmmmnnAnzznutzzzz=XXXXXXXXXXX",
"XXXXXXXXXI4mmB/^!mbj>>>>>yuzzzzzuy1SSSSSXXXXXXXXXX",
"XXXXXXXXX4lmSSmmg>>44rlr4<OO,kzzuuui(/(((XXXXXXXXX",
"XXXXXXXXsjmSBmn>4bBmSS+SSSn0+Okzkuuu=SSSSAXXXXXXXX",
"XXXXXXXXjnSmm>>bmDW/S4n9mmzzztO@tuuuuxSSSS2XXXXXXX",
"XXXXX XtjAmm>>mm~(PSANzymnzzzzz+@88uuuzzzzzXXXXXXX",
"XXXXX 8tcBB>>mC(^SSmmvz,mnzzzzzzO@88uu8nzzzzXXXXXX",
"XXXXX ttAmw>mYFSSBmm:Bzt9zzzzzzzuo@88u8ukkkufXXXXX",
"XXXXXetynb>nBSSSBmmMxBnt,zzzzzzzutO88988tttttXXXXX",
"XXXXXttgz+rmSSSmmBBJAnzuutznzzzzuu1+88880ttttXXXXX",
"XXXX3t1z,@nSSSmmmmmTSzzuktzzzzzzuutO*888<tttt0XXXX",
"XXXX88tkotASSmmmmmm(Szzuu1zzzzzuuuu1O<8810ttttXXXX",
"XXXX85t,OnSSnnmmK!(((QGutz&,kzzuuuu8O*8810ttttXXXX",
"XXXX8=t&&,ncxxvVASH(nzzutkkkt081581=O+111*tttt8XXX",
"..X,8=1OtS4SBmmznzz(zzztttuuuutt01@u5o*111tttttXXX",
" ..88=1OnSB6CuzzzzzEzzztttttttt5<&uu8o&111ttttt.. ",
"   81,&olSzz6CtuuzzMzzuttttttt1,*uuu0O&,118tttt.  ",
"   81:&+hVzzz7Cttttuhutttttt0,=*uuuuuo&&11,1<<<   ",
"   81*&@hcuzzzqCttttttttttt8***uuuuu8O&&11=,,=:   ",
"   81*@@0uuuukzwmtttttttt08@*,uuuuu00O&&11,,,,,   ",
"   81*&@9uuuuuuu8ltttttttt,@,uuuuut05o&&11:,,=,   ",
"  .81*@+9tuuuuuu&nut0ttttt1@<uuuu0001o@&,1*,,,:   ",
" ..11**o98uuuuuuxnzttttttt8*,uut00001O&&11:,,,:   ",
" ..<1**o88uuuuuuVzzttt110t8*=ut00008,O&&11,,:,,I  ",
" ..a1&&+@88uuuu+Azztt8<<<151@*000t01*O&&1*:,,:,I  ",
" .XX1,&@+888uuuZmzut8,@*<<<<&1000981O&&=1=,:,:XII ",
" .XX1,@*O1588uuCnzt0@*1*+,<<*,80088<O@,11,,,,,XXX ",
" .XX<1*@++1118+Szt0,8t00,*@,,<@t81<o+@@1,,,,*,XXI ",
" .XXX1,*@o<11<ASut@0000000@,*@<111,O,@*1@*@*@XXII ",
" ..XX1,@*@O11,Sn@800t0000001@@,<11OO@@11@@*@@XXXX ",
" ..XXX1*&&OO1+l,1111800t08111,,@1@+@@,1+&@@*XXXII ",
" ..XXX1<&&&o=o111111<1111111111o,O*@@18@&&&@XXXII ",
" ..XXXX1=&&&o*11111111111111111,O@*@*1@@&&*+XXXXI ",
"  .XXXX*1&&&&OO111111111111111OO@*@,11@*@&@XXXXXI ",
"  ..XXXX11&&&&OO,<1111111111,OO&&&&11&@&&&XX XXXI ",
"   .XXXXX1,&&&&&O++<11111<++o@&&*&,<@&&&&XXX  XXX ",
" ...XXXXXX11&&&&*@++oOO+ooO@&&&&&,<%&%&&XXXX  XXI ",
" ..XXXXXXXX11*&&@*@@@@@@&@&&&&&*,<%%%&&XXXXXIIXII ",
" ..XXXXXXXXXa1,&@*@***@**@**&&<1&%@@++XXXXXXXXXXX ",
" .XXXXXXXXXXXX21<,*@@@*@@*@,,1,+OOOOXXXXXXXXXXXII ",
" .XXXXXXXXXX....p1111,,,<111&+oOo$....XXXXXXXXXI. ",
" ....X......... ..XX.3;--;$#$......  ....X...X..  ",
"   ....    .     ....          ..       .......   ",
"                                                  "
};
