/* XPM */
static char *result[] = {
/* columns rows colors chars-per-pixel */
"50 50 241 2 ",
"   c #39241E",
".  c #2C2E31",
"X  c #372E32",
"o  c #343334",
"O  c #38383A",
"+  c #4D1E02",
"@  c #770A0A",
"#  c #7B1817",
"$  c #542F0D",
"%  c #792E08",
"&  c #493D2C",
"*  c #4A3B39",
"=  c #513E3C",
"-  c #772E2D",
";  c #7E3735",
":  c #674A17",
">  c #6A541A",
",  c #4F4527",
"<  c #514624",
"1  c #58492A",
"2  c #5E532F",
"3  c #474138",
"4  c #574736",
"5  c #55413E",
"6  c #5A533A",
"7  c #654D29",
"8  c #64532C",
"9  c #6A562C",
"0  c #6E4A34",
"q  c #625432",
"w  c #695838",
"e  c #785839",
"r  c #6A653A",
"t  c #79603A",
"y  c #0F395D",
"u  c #3C3D41",
"i  c #384351",
"p  c #34516C",
"a  c #424242",
"s  c #4A4949",
"d  c #554341",
"f  c #5A4543",
"g  c #5C4947",
"h  c #5B4E4B",
"j  c #575348",
"k  c #4D5058",
"l  c #545455",
"z  c #5B585A",
"x  c #654D46",
"c  c #634D4B",
"v  c #7A4B49",
"b  c #685945",
"n  c #65504E",
"m  c #6A524E",
"M  c #775B4B",
"N  c #635351",
"B  c #6C5552",
"V  c #695B5A",
"C  c #725957",
"Z  c #775854",
"A  c #755D5A",
"S  c #6B634B",
"D  c #6E6448",
"F  c #796846",
"G  c #6F6A57",
"H  c #6D605E",
"J  c #756A55",
"K  c #7A625E",
"L  c #7A7153",
"P  c #475668",
"I  c #4A596C",
"U  c #675F60",
"Y  c #4E657E",
"T  c #616161",
"R  c #6B6365",
"E  c #6C6A6C",
"W  c #726462",
"Q  c #7D6561",
"!  c #716C6D",
"~  c #7B6C68",
"^  c #787367",
"/  c #697177",
"(  c #757575",
")  c #7B7779",
"_  c #921313",
"`  c #A40A0A",
"'  c #A3201E",
"]  c #8C3231",
"[  c #B13939",
"{  c #D40C0D",
"}  c #FA1D1E",
"|  c #FB1F20",
" . c #8D4F12",
".. c #91750D",
"X. c #8E6E34",
"o. c #B47935",
"O. c #875C47",
"+. c #855C56",
"@. c #8A6745",
"#. c #91744A",
"$. c #9E724E",
"%. c #866258",
"&. c #976C55",
"*. c #8C7051",
"=. c #9A7455",
"-. c #AC7058",
";. c #A37A5B",
":. c #A77A5A",
">. c #816764",
",. c #826965",
"<. c #8A6B66",
"1. c #866E6A",
"2. c #976D62",
"3. c #857769",
"4. c #8B736E",
"5. c #947367",
"6. c #8E7671",
"7. c #877875",
"8. c #837A7A",
"9. c #917A74",
"0. c #9E7E75",
"q. c #957E79",
"w. c #AB7867",
"e. c #D57860",
"r. c #B29015",
"t. c #B0AF1E",
"y. c #98902C",
"u. c #B19723",
"i. c #BDA227",
"p. c #BAB626",
"a. c #C49D10",
"s. c #CBB310",
"d. c #E1BA2A",
"f. c #DBCA12",
"g. c #F6CF1A",
"h. c #E3DF16",
"j. c #F4D317",
"k. c #E7E01E",
"l. c #DEEB20",
"z. c #969D5B",
"x. c #AA805E",
"c. c #B7835C",
"v. c #878367",
"b. c #95926E",
"n. c #8B8478",
"m. c #968477",
"M. c #9A827D",
"N. c #B48A68",
"B. c #B08E6D",
"V. c #A58872",
"C. c #B0A46F",
"Z. c #C28541",
"A. c #C98C67",
"S. c #D09268",
"D. c #D89874",
"F. c #FE9C7C",
"G. c #CBA770",
"H. c #DBA57A",
"J. c #E4A47B",
"K. c #9ECA5D",
"L. c #EECC53",
"P. c #19598D",
"I. c #215683",
"U. c #1A6296",
"Y. c #316891",
"T. c #2871A4",
"R. c #3A79A7",
"E. c #506A8C",
"W. c #757882",
"Q. c #097FD4",
"!. c #2F87BA",
"~. c #6E8593",
"^. c #7095B4",
"/. c #1888D7",
"(. c #2A89C6",
"). c #2891CA",
"_. c #6BB1DC",
"`. c #878789",
"'. c #9E8681",
"]. c #948885",
"[. c #9A9889",
"{. c #8F8F92",
"}. c #959395",
"|. c #9E9E9E",
" X c #A38B85",
".X c #A68F89",
"XX c #AA938D",
"oX c #B69B85",
"OX c #A79A97",
"+X c #B29B94",
"@X c #B6A58D",
"#X c #A7A398",
"$X c #B6A69A",
"%X c #9F9FA1",
"&X c #97BEBA",
"*X c #A8A6A7",
"=X c #B0ADAB",
"-X c #B8B5A7",
";X c #ACABB1",
":X c #B3B3B4",
">X c #B8B4B6",
",X c #BBBABC",
"<X c #CCB38F",
"1X c #E7AA84",
"2X c #E8B48A",
"3X c #F6B38D",
"4X c #E4BB95",
"5X c #ECBE94",
"6X c #D5C692",
"7X c #E9C389",
"8X c #F4C699",
"9X c #F5C89B",
"0X c #C8C5BB",
"qX c #D8C8B3",
"wX c #F0D1AD",
"eX c #F9DBAB",
"rX c #FDDFAD",
"tX c #F5E1AC",
"yX c #FFE1AF",
"uX c #FFE4B1",
"iX c #FEEBB8",
"pX c #95AEC5",
"aX c #A4BCCE",
"sX c #BDBEC2",
"dX c #A8D0E5",
"fX c #C2C2C5",
"gX c #C7C7CB",
"hX c #CACACD",
"jX c #D7D2C8",
"kX c #CFCED5",
"lX c #D7D7D9",
"zX c #E1DDD7",
"xX c #F6E6D3",
"cX c #DCDDE1",
"vX c #D4E3EF",
"bX c #E8E8E6",
"nX c #ECECED",
"mX c #F8F6EF",
"MX c #F5F4F4",
"NX c #FAF8F5",
"BX c #FDFDFD",
/* pixels */
"a a a a a a a a a a a a a a a a a a a a i 3 3 a a a a a a a a a a a a a a a a a a a a a a a a a a a ",
"|.|.( |.|.a a |.|.a a a a a T |.|.( |.|.( ( %X|.( ( |.|.|.|.( |.a a a a a a T %X%X%X|.a a a a a a |.",
"|.( ( |.|.a |.|.( |.a a a a T H V W V W ( ( |.( :XV V W V ) ( |.%Xu a a a T T ( |.( ( ( |.a a |.( |.",
"( ( ( ( ( ( |.( ( ( |.a a T T ( g c A c 7.( ( ( q.4.W B g d ].OXOXOXOX}.a T T ( ( ( ( ( |.|.( ( ( ( ",
"( ( ( ( ( ( ( ( ( ( %Xa a a T ( H C 4.K m f 5 c q.XX6.C x f g f = = = f ( T U ( ( ( ( ( ( |.( ( ( ( ",
"( ( ( ( ( ( ( ( ( ( ( f d g g g = f A 4.6.,.C .X.X4.Z f c 6.6.Q c = = M.U T ( ( ( ( ( ( ( ( ( ( ( ( ",
"( ( ( ( ( ( ( ( ( ( OX-Xg g C Q B d 5 C '..X1.M.6.A >.A 6.XXq.6.>.c = N 8.~ ( ( ( ( ( ( ( ( ( ( ( ( ",
"( ( ( ( ( ( ( ( ( %X%Xi g f B 1.Q C c A M.XX X9.>.Q 6. XXX.X4.A W 6.C B B n 7.( ( ( ( ( ( ( ( ( ( ( ",
"( ( ( ( ( ( ( ( ( ( *X5 5 = f C 6.M.9.9.4.M.+Xq.4.6.6.XXXX4.C f V +Xq.4.1.C c 7.( ( ( ( ( ( ( ( ( ( ",
"( ( ( ( ( ( ( ( ( ].g C 1.1.1.4.XX+X+X9.6.9.9.6.6.6.6.9.9.6.4.'.XXq.>.c = 5 *X( ( ( ( ( ( ( ( ( ( ( ",
"( ( ( ( ( ( ( ( ( B c x A 4.9.9.'. X'.6.6.6.6. XM.6.q..X X4.6.'.'.K Q Q C c ~ ( ( ( ( ( ( ( ( ( ( ( ",
"( ( ( ( ( a ( ( 5 c c = C 6.q.6.6.4.6.M.9.9.'.+XXX<.+.0..Xq.9.7.1.A ,.6.9.>.m V ( ( ( ( ( ( ( ( ( ( ",
"( ( ( ( ( a a 5 d = f C 4..XXX9.6.6.9.+XM.M.+X$X XZ @ - 6.+Xq.6.6.6.A K 6.6.>.m g ( ( ( ( ( ( ( ( ( ",
"( ( ( ( ( a a ( ( W n 6.XX.Xq.6.6.'.XX'.Q 7.+X.X7.v ` @ ; '.q.; ] XXq.Q C g K 1.B N ( ( ( ( ( ( ( ( ",
"( ( ( ( ( a a ( ( A C q.XX6.Q 6.1.q..X9.v v  XM.O._ { ` # ~ 8.- _ [.XX9.m f m C c ( ( ( ( ( ( ( ( ( ",
"( ( ( ( ( |.|.( 5 B ,.6.4.Q Q 4.v Z 7.4.# _ 6.7.] { | { ' v 4.] @ 4.XXq.B C f = W ( a ( ( ( ( ( ( ( ",
"( ( ( ( ( ( ( ( = Q q.6.A Q 9.4.# ] 7.A ' ' 4.K [ } | | { ` 5.] @ C 7.1.C 4.B R ) a a ) ( ( ( ( ( ( ",
"( ( ( ( ( ( ( 7.Q >.>.A Q 4.4.K w.-.1.<XJ.w.A oX1XF.F.3XF.e.<.2.-.B 1.>.B K >.Q ].a %X( ( ( ( ( ( ( ",
"( ( ( ( ( ( ( c >.m x C 6.4.,.5.B.=.m C.eX6XV.wXiXiXiX6XG.C.w B.4X&.>.2.+.c K >.= %X( ( ( ( ( ( ( ( ",
"( ( ( ( ( ( ( = n 1 q C 6.H 5.2X*., < q <XiXtXuXuXuXtXv., < 1 B.3XD.%.2.A.x g m d ( ( ( ( ( ( ( ( ( ",
"z T ( ( ( ( T h ( L q A 4.A 5.5XqX! * *XwXyXuXyXyXyXuXqX) X OXqX2XD.%.2.S.7 3 f d ( ( ( ( ( ( ( ( ( ",
"a T T T T T T T T 3.4 x K %.;.5XmX`.X ;XwXyXyXyXyXyXyXjXW.* fXxXJ.c.+.F @.2 7.8.= T T ( ( ( ( T T a ",
"a a a T T T T a a ) 4 1 n +.c.5XmXOX  K 6XuXyXyXyXuXrXXXf * jXxXH.-.M x & 5 a a E a U U T T T T a a ",
"a a a a a a a a a ~ x m B @.c.5XmX@X+ $ G.xXyXyXyXuXrXX.+ : zXxXH.$.M B m f a a a a a a u a a a a a ",
"a a a a a a a a i 3 n Z f 1 @.J.eXS.% % G.iXyXyXyXuXrXo.%  .4XwXA.9 4 c C f a a a a a a a a a a a a ",
"a a a |.( |.( |.|.|.W n h d w $.G.S.Z.Z.7XiXyXyXuXuXrXG.o.o.J.A.@.6 j c n 8.%X%X|.|.|.a a a a a a a ",
"a a a |.( ( ( ( ( |.%Xh ! W.^ 2 -.D.5XeXrXrXtXyXyXyXrXrX9X1XS.@.j ) W.T N ( ( OX( ( ( ( |.|.|.a a a ",
"a a T T ( ( ( ( ( ( >Xs / |.:X|.w X.N.D.3X8X8X8X8X8X8X1XD.:.7 3.;X;X`.T l ( ( ( ( ( ( ( ( |.|.a a a ",
"a T T T ( ( ( ( ( ( ~.) }.;XgXkX[.D 7 O.@.#.#.#.#.#.@.X.9 7 L :XlXsX%X`.( {.( ( ( ( ( ( ( ( ( a a a ",
"a T T ( ( ( ( ( ( E W #XfXsX>XfXkX#XF F D S b 6 6 b S L L 3.,XkXgX:XfXsX{.l ( ( ( ( ( ( ( ( |.|.a a ",
"a T T ( ( ( ( ( ( ( l `.hX:X{.`.sXnXNXMXbXhX=X8.{.,XlXnXNXNXcX*X`.}.hX:XE s ( ( ( ( ( ( ( ( ( |.a a ",
"a T ( ( ( ( ( ( ( ! O k ( / V a Y.pXMXBXBXiXd.u.a.L.mXBXBXlX^.p s T ( T s u ( ( a ( ( ( ( ( ( |.|.a ",
"a T ( ( ( ( ( ( ( ^ j V z k 3 . y R.aXMXvX&Xz.f.s.z.dXMXnX^.U.y . s k V V & ( ( a a ( ( ( ( ( ( ( a ",
"a T ( ( ( ( ( ( ( L F V.8.l O o p P.R.vX_.Q.).l.K././.dXaXU.I.u X u T ].m.w ( ( a a ( ( ( ( ( ( |.a ",
"a T ( ( ( ( ( ( w e &.V.+XH . . 0 I U.T.(./.).k.K././.!.T.I.V 4 . o ].oX;.@.9 v.a a ( ( ( ( ( |.|.a ",
"a T T ( ( ( ( ( 1 @.:.x.w.h . u p P z V U W.~.b.n.~./ T V z p i O o %.w.x.;.e J |.|.( ( ( ( ( ( ( a ",
"a T T ( ( ( ( ( 1 #.:.=.e & o u p p T E E ( n.z.b.W.! ! E U p p u . 1 O.;.:.t L ( ( ( ( ( ( ( |.|.a ",
"a T T ( ( ( ( ( 9 M O.O.8 & O s l Y T.(.).R.v.l.p./ (.).T.Y.P g 3 o , e O.O.q v.( ( ( ( ( ( ( |.|.a ",
"a T T ( ( ( ( ( ( L < 9 0Xn.: r.D P I E.E.v.h.y.p.l.E.E.E.p P X..., -X#X$ 1 @X( ( ( ( ( ( ( ( ( |.a ",
"a a T ( ( ( ( ( ( n.L -XBX#X2 ....y.i.i.p.p.y.j D t.p.p.i.u.y.....S cXnX[.G 0X( ( ( ( ( ( ( ( ( |.a ",
"a a T T ( ( ( ( ( }.sXBXBX:XT 6 ..s.g.g.j.p.3 a O r k.j.j.j.a.> j 8.lXBXMX{.fX( ( ( ( ( a ( ( ( |.a ",
"a a a T ( ( ( ( ( }.:XBXBX:X/ ( 8 F B.<XoX=.< < < q V.oXC.V.9 S ( ~.lXBXnX{.fX( ( ( ( ( a a ( ( ( a ",
"a T T T ( ( ( ( ( ( >X>XBXfX`.hXD w 2.V.3.B q -Xb.2 +.0.w.+.2 [.fXn.bXnX*XhXnX( ( ( ( ( a a ( ( |.a ",
"a T T ( ( ( ( ( ( ( ( *XgX:XgX#XL e &.x.&.e r zX$X2 M =.:.&.9 $XMX;XfX:X;XNX( ( ( ( ( ( |.|.( %X|.a ",
"a T T ( ( ( ( ( ( ( ( ( {.gX( ( v.F ;.=.&.e L bX-Xr O.=.:.=.r -X( MX*X;XBX( ( ( ( ( ( ( ( ( ( ( ( a ",
"a T ( ( ( ( ( ( ( ( ( ( ( ( T T ( @X9 8 2 *.lXBXNX0Xw 7 8 r 0XNX( ( nXnX( ( ( ( ( ( ( ( ( ( ( |.|.a ",
"a T ( ( ( ( ( ( ( ( ( ( T T T T }.^ 3 , n.jXBXBXlXn.4 & & 6 bX( ( ( T T T T ( ( ( ( ( ( ( ( ( |.T a ",
"a T T T T ( T T T T T T T T T a T T ( ( T H T a 3 3 i T T T T T T T T a a T T T T ( T T T ( T T a a ",
"a a a T T T T a a a a T a a a a a T T T T a a a a a a a a a a T T a a a a a a a T T T T T T T a a a ",
"a a a a a a a a a a a a a a a a a a a a a a a a a a a a a a a a a a a a a a a a a a a a a a a a a a "
};
