/* XPM */
static char *result[] = {
/* columns rows colors chars-per-pixel */
"50 50 217 2 ",
"   c #750303",
".  c #7C0202",
"X  c #740A0A",
"o  c #6F1413",
"O  c #751212",
"+  c #731F1E",
"@  c #443937",
"#  c #4B3937",
"$  c #4E3B39",
"%  c #523E3C",
"&  c #722524",
"*  c #7C2221",
"=  c #722B2A",
"-  c #6D3837",
";  c #723333",
":  c #723C3A",
">  c #7D3B39",
",  c #584A25",
"<  c #574C2B",
"1  c #5D522D",
"2  c #454036",
"3  c #4A413D",
"4  c #54413E",
"5  c #7C413F",
"6  c #675A3B",
"7  c #7C593A",
"8  c #3C3D40",
"9  c #3E4043",
"0  c gray26",
"q  c #4E4240",
"w  c #4D4C4D",
"e  c #554442",
"r  c #5B4543",
"t  c #5D4946",
"y  c #564A49",
"u  c #5C4B4A",
"i  c #535252",
"p  c #5C5757",
"a  c #604947",
"s  c #644D4B",
"d  c #6C4E4B",
"f  c #744745",
"g  c #7A4341",
"h  c #724C4A",
"j  c #695F40",
"k  c #64514E",
"l  c #6B514F",
"z  c #645352",
"x  c #6D5452",
"c  c #605956",
"v  c #6C5957",
"b  c #6C5C5A",
"n  c #715654",
"m  c #795552",
"M  c #725956",
"N  c #755D5A",
"B  c #795E5B",
"V  c #746247",
"C  c #746A4D",
"Z  c #6C625E",
"A  c #756D54",
"S  c #76605D",
"D  c #7A625E",
"F  c #616161",
"G  c #666567",
"H  c #6B6B6B",
"J  c #736462",
"K  c #7D6662",
"L  c #7D6865",
"P  c #756A69",
"I  c #7C6E6C",
"U  c #6F6F70",
"Y  c #716F71",
"T  c #757575",
"R  c #767779",
"E  c #7B7A7C",
"W  c #820202",
"Q  c #8D0202",
"!  c #950202",
"~  c #9C0303",
"^  c #9C0A0A",
"/  c #861515",
"(  c #971A19",
")  c #A50404",
"_  c #AE0101",
"`  c #AA0A0B",
"'  c #B20202",
"]  c #BC1010",
"[  c #832322",
"{  c #872A29",
"}  c #842D2D",
"|  c #942221",
" . c #833534",
".. c #913938",
"X. c #A33231",
"o. c #C80A0A",
"O. c #D50D0E",
"+. c #D91414",
"@. c #FF0506",
"#. c #E51516",
"$. c #EB191A",
"%. c #FF1415",
"&. c #FF1D1E",
"*. c #FF1F20",
"=. c #F52627",
"-. c #FE2425",
";. c #FE2728",
":. c #F32B2C",
">. c #FD2A2B",
",. c #FC3233",
"<. c #FB3536",
"1. c #82593D",
"2. c #844E4D",
"3. c #9D4847",
"4. c #895449",
"5. c #AE5250",
"6. c #80614B",
"7. c #816755",
"8. c #896254",
"9. c #85645A",
"0. c #806663",
"q. c #826965",
"w. c #896F67",
"e. c #856D69",
"r. c #837B65",
"t. c #85726E",
"y. c #8A726E",
"u. c #8E7671",
"i. c #857874",
"p. c #857977",
"a. c #8E7873",
"s. c #857A7B",
"d. c #907773",
"f. c #917974",
"g. c #967E79",
"h. c #AD7779",
"j. c #C15C58",
"k. c #F9494B",
"l. c #C26B6D",
"z. c #FF6162",
"x. c #FE797A",
"c. c #88816B",
"v. c #89817D",
"b. c #928B73",
"n. c #978078",
"m. c #9B837D",
"M. c #96907F",
"N. c #9C957E",
"B. c #7F7F81",
"V. c #838385",
"C. c #8A8585",
"Z. c #8B8B8D",
"A. c #918684",
"S. c #9E8781",
"D. c #948A8B",
"F. c #9F9881",
"G. c #8E8E91",
"H. c #939294",
"J. c #979697",
"K. c #969699",
"L. c #9E9E9E",
"P. c #A18A84",
"I. c #A78F89",
"U. c #A79089",
"Y. c #AB938D",
"T. c #AE9790",
"R. c #AF9891",
"E. c #B29B94",
"W. c #B69F98",
"Q. c #BAA39B",
"!. c #9C9EA1",
"~. c #A2A2A5",
"^. c #A5A5A9",
"/. c #A4AAAD",
"(. c #AAAAAD",
"). c #ADADB1",
"_. c #B2B2B5",
"`. c #B5B5B9",
"'. c #B7B8BC",
"]. c #B9B9BD",
"[. c #D78486",
"{. c #D19699",
"}. c #E4989A",
"|. c #D09FA3",
" X c #D5AAAE",
".X c #E4A2A5",
"XX c #FDB5B6",
"oX c #FFBCBC",
"OX c #B2BDC1",
"+X c #BDBEC2",
"@X c #DFBEC2",
"#X c #C1C1C5",
"$X c #C6C6CA",
"%X c #C7CBCF",
"&X c #C9CACE",
"*X c #C7CFD4",
"=X c #CECED2",
"-X c #D1D1D5",
";X c #D5D5D9",
":X c #DADADD",
">X c #E4C3C6",
",X c #FFC8C8",
"<X c #F6D5D6",
"1X c #FFDDDD",
"2X c #DEDEE1",
"3X c #DDEDF1",
"4X c #E3E2E5",
"5X c #E5E5E9",
"6X c #E4E8EB",
"7X c #EBEBED",
"8X c #FEECEC",
"9X c #EFEFF0",
"0X c #E9F2F4",
"qX c #F3F3F4",
"wX c #FEF3F3",
"eX c #F7F7F8",
"rX c #FEFEFE",
/* pixels */
"0 0 0 0 0 0 0 0 9 9 0 0 0 0 9 0 0 0 0 0 0 r.< , j 8 9 0 0 0 0 0 0 0 0 0 0 0 9 9 0 0 0 0 0 0 0 0 0 0 ",
"L.L.T L.L.0 0 L.!.9 0 0 0 0 Z L.L.T H.u s e $ 4 R R L.L.L.v u u u e 0 0 0 0 Z ~.L.L.L.0 0 0 0 0 0 L.",
"L.T T L.L.0 L.L.T L.0 0 0 A.A.A.A.v.k 4 s N q.g.A.D.D.D.t.s S N e 9 0 0 0 F F T L.T T T L.0 0 L.T L.",
"T T T T T T L.T R R E.0 e 4 3 4 t a t t s D n.E.t.s r k v S y.L r 0 0 9 0 F F T T T T T L.L.T T T T ",
"T T T T T T T T T T L.0 A.% $ t B y.d.K 4 t D u.T.P.n m.Y.d.D l % 4 r r r e r T T T T T T L.T T T T ",
"T T T T T T T T T T s.A.z % t D y.f.U.P.S D 0.S f.m.e.m.m.D t % a N K x t p T T T T T T T T T T T T ",
"T T T T T T T T T I s k t s B K q.t.m.R.P.g.y.N q.d.d.d.y.L M l B e.q.x 4 b T T T T T T T T T T T T ",
"T T T T T T T T z s N y.u.u.u.k 4 l w.m.E.P.y.y.a.a.u.y.g.R.Q.Y.u.K s $ $ % y T T T T T T T T T T T ",
"T T T T T T T T T t.t s n q.f.q.N q.y.f.m.g.u.f.q.B B e.g.m.P.I.Y.g.K S D S x N T T T T T T T T T T ",
"T T T T T T T T T p.r r x D q.u.f.u.u.u.g.g.u.a.9.M N L y.y.y.g.Y.S.u.u.u.q.l s v T T T T T T T T T ",
"T T T T T T T T v l N t.u.e.N q.f.u.u.m.E.S.y.u.u.a.a.D D y.u.u.f.u.d.u.0.d % s x T T T T T T T T T ",
"T T T T T 0 T P t D u.f.q.K m.n.u.u.m.T.Q.P.y.u.S.U.u.q.u.U.m.y.u.u.g.Y.f.N t t r 4 z T T T T T T T ",
"T T T T T 0 I d D K q.e.q.u.Y.m.e.u.Y.Q.T.m.u.u.Y.W.S.y.d.Y.I.g.f.u.g.Y.U.f.K r e I P T T T T T T T ",
"T T T T T 0 a S y.x % x m.T.g.D N y.U.E.f.u.u.u.U.Q.W.y.B y.Y.Y.f.y.u.f.Y.T.u.l J T T T T T T T T T ",
"T T T T T 0 L s k s t x y.P.d.B N u.m.m.f.q.K a.T.W.P.9.M y.R.Y.q.e.y.B f.P.f.N v T T T T T T T T T ",
"T T T T T L.L.Z # k B n q.u.y.N N y.u.u.t.N v e.P.U.u.S N u.U.m.M 0.y.B K t.f.e.x % 0 T T T T T T T ",
"T T T T T T T T y K y.n q.w.n x N y.f.y.M n n x q.f.f.B N y.f.y.M L f.u.D N u.f.q.e 0 T T T T T T T ",
"T T T T T T T p.K q.B n J m & - B u.t.m & / ( ( 4.g.a.> = B a.e.N q.g.a.> & B K q.K I T T T T T T T ",
"T T T T T T T s y.B s n h &   = J e.m = . ! _ o.5.v.t.*   - K 0.5 M a.u.[ X d s x q.x J T T T T T T ",
"T T T T T T T r x r q x &     ; N x & . _ W ! =.j.t.M &     - 5 X ; L u.* O x t $ 4 4 I T T T T T T ",
"F F T T T T F % t $ % x h &   X = x / _ $.^ Q ;.5.N | W   ! / o     = m h : n t b T v Z T T T T T T ",
"0 F F F F F F q I z 4 x N h + O + ; ( o.$.` Q +.X.{ ~ Q Q _ ~ .   X & x b M x a I F F T T T T F F 0 ",
"0 0 0 F F F F N 0 0 r x M n x n 5 X ! ' ` ' ~ . ~ ) . ! ' _ _ ~   ; x x n M n t P 0 F F F F F F 0 0 ",
"0 0 0 0 0 0 0 0 0 0 e x M l t z l - > { ) O.+.! [ } ! o.+.' | > : h v r l M x t P 0 0 0 0 0 0 0 0 0 ",
"0 0 9 9 0 0 0 0 0 0 r n x t # a M b Z g ` #.*.O.2.f o.*.$.' > Z v M s $ r x M s A 0 9 9 0 0 3 9 0 0 ",
"0 0 9 E.R !.T L.L.L.a n r # # s n n b 5 ) +.>.=.3.2.=.;.$._  .v M n l $ # e x s T L.~.3 0 9 9 9 0 0 ",
"0 0 0 L.T T T T T L.L.s q @ # a M n b 5 ) #.>.*.3.4.>.;.$._  .v v M d # @ q r D.T T T T L.L.~.3 0 0 ",
"0 0 F F T T T T T T T y w i y t s n z ; ] $.>.*...g :.;.*.o.} s x l t u w w $ R T T T T R L.L.0 0 0 ",
"0 F F F T T T T T T T i G R T p e l y ; :.*.=.;. .- =.;.=.=...q l r u Y E H w T T T T T T T T 0 0 0 ",
"0 F F T T T T T T T T B.!.!.R C.s.e Y h.,.*.*.=.h.m.>.*.;.;.l.E 4 P Z.R K.^.V.T T T T T T T L.L.0 0 ",
"0 F F T T T T T T B.F G.^.~.Z._._.G !.|.,.*.*.*.}. X>.*.*.*.[./.H ~.+XG.L./.K.H F T T T T T T L.0 0 ",
"0 F T T T T T T T Z.i Y R V._.=X-XOXOX{.,.*.=.*..X@X,.*.*.;.[.OX`.=X;X'.Z.T T p U T T T T T T L.L.0 ",
"0 F T T T T T T T V.8 w F V.`.-X;X+X*X X-.%.-.-.XX<X,.%.k.}.>X%X+X=X;X].D.G w 9 G 0 T T T T T T T 0 ",
"0 F T T T T T T T C.2 z G B._.=X=X].*X>Xx.<.%.&.XX1X;.@.k.4X3X%X'.%X;X].Z.H c 3 G 0 T T T T T T L.0 ",
"0 F T T T T T T T b.6 n.v.V._.=X-X].&X6X8Xx.&.;.oX1X<.&.z.wX0X-X].=X;X].G.E m.V A 2 T T T T T L.L.0 ",
"0 F F T T T T T b.V 6.i.H.).%X7X7X-X4XeXrX1XXXoX8XwX,XXX,XrXeX7X=X5X7X-X`.J.V.7.7 c.T T T T T T T 0 ",
"0 F F T T T T T 1 7 8.Y !.#X;XeXrX7XqXrXrXrXrXrXrXrXrXrXrXrXrXeX7XeXeX2X&X/.R 9.1.1 T T T T T L.L.0 ",
"0 F F T T T T T 1 7 8.T !.#X;XqXrXrXrXrXrXrXrXrXrXrXrXrXrXrXrXrXrXrXeX2X$X^.R 9.1., T T T T T L.L.0 ",
"0 F F T T T T T 1 7 8.Y K.$X9XrXeX7XqXrXrXrXrXrXrXrXrXrXrXrXrXeX7XeXrXqX-X~.R 9.1., T T T T T T L.0 ",
"0 0 F T T T T T b.7.w.Z./.;XeXrX5X=X7XrXrXrXrXrXrXrXrXrXrXrXrXqX=X2XeXrX:X_.G.y.7.c.T T T T T T L.0 ",
"0 0 F F T T T T T (.Z.).%X5XrX7X=X'.2XrXrXrXrXrXrXrXrXrXrXrXrX7X+X$X5XrX6X-X'.H.H.T T T 3 T T T L.0 ",
"0 0 0 F T T T T T T Z.`.=X5XrX7X=X'.=X7XrXrXrXrXrXrXrXrXrXrX9X;X].$X5XrX7X-X+XJ.J.T T T 9 3 T T T 0 ",
"0 F F F T T T T T T D.`.-X4XqX2X$X].$X2XrXrXrXrXrXrXrXrXrXrX6X=X].#X:X9X7X-X+XJ.G.T T T 9 9 T T L.0 ",
"0 F F T T T T T T T Z.).=X:X:X$X`.`.%X5XeXrXrXrXrXrXrXrXrXrX7X=X]._.#X;X:X-XOXH.J.T T T L.L.T L.L.0 ",
"0 F F T T T T T T T T G.K.~.+X#X).G.].5X5XeXrXrXrXrXrXrXrX6X5X$XG.~.#X#X/.K.H.`.T T T T R T T T T 0 ",
"0 F T T T T T T T T T ^.L.L.~.).K.E L.#X=X4X7X7X9X7X9X9X5X-X$X^.E H.(.^.!.L.~.T T T T T T T T L.L.0 ",
"0 F T T T T T T T T T T F F Z.B.V.B.T V.).'._.+X+X#X+X'._._.G.T B.V.v.V.F F T T T T T T T T T L.F 0 ",
"0 F F F F T F F F F F F F F F 0 F F c.6 C C r.0 0 0 0 M.C C j A F F F 0 3 F F F F T F F F T F F 0 0 ",
"0 0 0 F F F F 0 0 0 0 F 0 0 0 0 0 F F N.F.N.0 0 0 0 0 0 N.F.N.F F 9 0 0 0 0 0 0 F F F F F F F 0 0 0 ",
"0 0 0 0 0 0 0 0 0 0 0 0 0 0 0 0 0 0 0 0 0 0 0 0 0 0 0 0 0 0 0 0 0 0 0 0 0 0 0 0 0 0 0 0 0 0 0 0 0 0 "
};
