/* XPM */
static char *result[] = {
/* columns rows colors chars-per-pixel */
"50 50 236 2 ",
"   c #3E1E08",
".  c #392D33",
"X  c #6F0B0B",
"o  c #731B1A",
"O  c #592402",
"+  c #483E35",
"@  c #4C3C3A",
"#  c #563F37",
"$  c #523E3C",
"%  c #762524",
"&  c #6C3D3C",
"*  c #4F421D",
"=  c #7C6718",
"-  c #554722",
";  c #564922",
":  c #584926",
">  c #564B30",
",  c #54433A",
"<  c #6C552F",
"1  c #685738",
"2  c #7A5C3B",
"3  c #736535",
"4  c #7E633D",
"5  c #483D47",
"6  c #33566F",
"7  c #326376",
"8  c gray26",
"9  c #4B4641",
"0  c #554442",
"q  c #5A4543",
"w  c #5D4946",
"e  c #5C4C4A",
"r  c #4E5A55",
"t  c #5A575B",
"y  c #684845",
"u  c #634D4B",
"i  c #794947",
"p  c #625842",
"a  c #64514E",
"s  c #6A524F",
"d  c #795748",
"f  c #684F50",
"g  c #645352",
"h  c #6C5452",
"j  c #6A5957",
"k  c #6C5C5A",
"l  c #725553",
"z  c #725956",
"x  c #7C5952",
"c  c #755C5A",
"v  c #7A5D5A",
"b  c #4D605D",
"n  c #686348",
"m  c #6B625B",
"M  c #776459",
"N  c #7A625E",
"B  c #7A7255",
"V  c #4F5A6D",
"C  c #635A60",
"Z  c #58687A",
"A  c gray38",
"S  c #6D6865",
"D  c #746562",
"F  c #7C6461",
"G  c #7B6C69",
"H  c #76726E",
"J  c #757575",
"K  c #7B7879",
"L  c #860707",
"P  c #8C0405",
"I  c #980404",
"U  c #851717",
"Y  c #971212",
"T  c #AC0505",
"R  c #B40303",
"E  c #B90808",
"W  c #A91615",
"Q  c #823D02",
"!  c #B61D20",
"~  c #882A29",
"^  c #8C2B2B",
"/  c #972827",
"(  c #873634",
")  c #993938",
"_  c #AC2D2C",
"`  c #CA0708",
"'  c #D41111",
"]  c #EC0609",
"[  c #E41819",
"{  c #ED1B1C",
"}  c #F61B1C",
"|  c #CF3D3C",
" . c #FD2526",
".. c #FE2728",
"X. c #E43030",
"o. c #FB3A36",
"O. c #927613",
"+. c #89732E",
"@. c #AD7738",
"#. c #C1403E",
"$. c #854B49",
"%. c #8E534E",
"&. c #845B4B",
"*. c #A94645",
"=. c #B3504F",
"-. c #BA5755",
";. c #886944",
":. c #98694A",
">. c #97714D",
",. c #866459",
"<. c #976859",
"1. c #857452",
"2. c #9B7354",
"3. c #AF7752",
"4. c #A87A59",
"5. c #826A66",
"6. c #876A67",
"7. c #866E6A",
"8. c #986661",
"9. c #817A60",
"0. c #8F7D61",
"q. c #84716D",
"w. c #8B726D",
"e. c #97786B",
"r. c #837572",
"t. c #8E7671",
"y. c #8D7A74",
"u. c #897C78",
"i. c #937773",
"p. c #927A74",
"a. c #947E79",
"s. c #A77365",
"d. c #D84641",
"f. c #5B876E",
"g. c #778268",
"h. c #AC8D11",
"j. c #A5952A",
"k. c #B38A36",
"l. c #BDB92B",
"z. c #CA9F01",
"x. c #D2A907",
"c. c #C5B031",
"v. c #E1BE32",
"b. c #EBC80C",
"n. c #F9EE0E",
"m. c #938453",
"M. c #B1895A",
"N. c #898372",
"B. c #988475",
"V. c #9B837D",
"C. c #B68664",
"Z. c #BB966B",
"A. c #A68675",
"S. c #B99879",
"D. c #BDA77B",
"F. c #C79452",
"G. c #CA8765",
"H. c #CA9473",
"J. c #D79975",
"K. c #E09471",
"L. c #D0AD75",
"P. c #E7AA7E",
"I. c #1E598C",
"U. c #356C94",
"Y. c #287BB9",
"T. c #4A7B9D",
"R. c #7E7E80",
"E. c #807F82",
"W. c #7B96AA",
"Q. c #2D8ECE",
"!. c #4F99D0",
"~. c #58AADD",
"^. c #888586",
"/. c #8B8B8D",
"(. c #9E8681",
"). c #998A86",
"_. c #989588",
"`. c #918F92",
"'. c #8F9093",
"]. c #929294",
"[. c #9B9894",
"{. c #979799",
"}. c #9E9E9E",
"|. c #A38B85",
" X c #A78A86",
".X c #A69588",
"XX c #AA938C",
"oX c #B49481",
"OX c #AE9993",
"+X c #B39C95",
"@X c #B5A89C",
"#X c #9F9FA1",
"$X c #A6A5A7",
"%X c #B3B3AD",
"&X c #ADAEB2",
"*X c #B4B4B7",
"=X c #B5B5B9",
"-X c #B9B9BE",
";X c #C79F82",
":X c #C2A88E",
">X c #D9B187",
",X c #D0B18E",
"<X c #C8AD91",
"1X c #E7B68B",
"2X c #EFB48E",
"3X c #F7BC94",
"4X c #CCAFA7",
"5X c #B2C097",
"6X c #E6C69A",
"7X c #F6C69B",
"8X c #DBCAAC",
"9X c #EFD0A7",
"0X c #FBD3A4",
"qX c #FDDCAA",
"wX c #FFE2AD",
"eX c #FFE5B1",
"rX c #FEE9B7",
"tX c #95BED8",
"yX c #BDBEC2",
"uX c #BEC1C3",
"iX c #A6C5DB",
"pX c #BFD7F1",
"aX c #C6C6C8",
"sX c #CDCDD1",
"dX c #D8D7D9",
"fX c #E0DED9",
"gX c #F8EACA",
"hX c #FFF4D6",
"jX c #DDDDE1",
"kX c #D7E9F6",
"lX c #E2E4E7",
"zX c #E5E6E9",
"xX c #EAE9EC",
"cX c #F2EDE2",
"vX c #F4F4F5",
"bX c #FDFDFD",
/* pixels */
"8 8 8 8 8 8 8 8 8 8 8 8 8 8 8 8 8 8 8 8 8 8 8 8 8 8 8 8 8 8 8 8 8 8 8 8 8 8 8 8 8 8 8 8 8 8 8 8 8 8 ",
"}.}.J }.}.8 8 }.OX8 8 8 8 8 A }.0 h F j j J #X}.J J }.F v g $ 0 8 8 8 8 8 8 A }.}.}.}.8 8 8 8 8 8 }.",
"}.J J }.}.8 }.}.J #X8 8 8 8 A #Xe a 5.F c a w q u h F 7.N u h h g f 8 8 q A A J OXJ J J }.8 8 #XJ }.",
"J J J J J J }.J J J g e t g g e $ @ q F t.w.v z 7.t.w.N u 0 y.XXt.w.7.z u $ A J J J J J }.#XJ J J J ",
"J J J J J J J J J J $Xg q u z F t.m q z 7.i.7.7.XXa.N N 5.t.(.(.7.5.v u $ @ r.J J J J J J #XJ J J J ",
"J J J J J J J J J J J 5., h F a.+X|.N z N t.a.(.+Xa.z 7.(.+X(.5.z z z q 0 q q D J J J J J J J J J J ",
"J J J J J J J J J J D $ @ $ u N i. XXXi.7.t. XOXa.i.w.w.i.V.i.w.w.7.w.7.w.7.c u J J J J J J J J J J ",
"J J J J J J J J J H u g h h z F 7.V.XXV.w.t.(.|.i.w.y.y.t.t.(.(.i.y.t.7.F z h j J J J J J J J J J J ",
"J J J J J J J J k u z 7.y.t.i.a.i.t.t.t.i.i.i.i.i.t.t.t.w.t.XX+XV.y.w.v u @ $ G J J J J J J J J J J ",
"J J J J J J J D a F w.F N w.|.XXi.u.i.w.E. Xa.i.t.p.t.t.5.v w.|.XX|.t.w.5.F h h H J J J J J J J J J ",
"J J J J J J S 0 u z N v 5.V. XXXE.8.%.6. X:XOXi.7.7.i.V.p.v F y.XXV.5.5.y.p.w.z u u.J J J J J J J J ",
"J J J J J j 0 0 $ @ 0 N V.+X|.y.u.( o $.|.+X@X XN N a.OXXXt.c z t.5.h h F w.y.7.z w D J J J J J J J ",
"J J J J J 8 8 J e e c N i.@X Xw.G ^ P i r.E.:XOXD c a.+XOXi.( ~ N H 5.% U / i k 7.F f D J J J J J J ",
"J J J J J 8 , J k z 7.z N XX X6.f / E ^ x w.XX X$.x a.XX.Xt.! E ( F 6.U I E o 0 F N f g J J J J J J ",
"J J J J J 8 $Xj h z z , u y.V.6.o W } E / w.E.<.W ) y.a.a.t.d.[ T ( l Y ` } Y X $ q k J J J J J J J ",
"J J J J J $X}.q z h u # , z r.,.P ` } ] ! ,.r.8.' _ G t.q.6.X.} ` L % L E ' I X q 0 k J J J J J J J ",
"J J J J J J J u s g e ; : v G 8.W [ o...#.1.r.s.o._ j 7.G l | { E L X X P R P o i a j J J J J J J J ",
"J J J J J J J J u r.J B ;.;Xe.,.G.2X3X3X7X6XB.,.2XH.f z z l $.%.<.$.& & ) [ E U l j h J J J J J J J ",
"J J J J J J J J J J J N.;.6X;Xe.6X6X:XL.,XD.A.oXrX<Xc h h f g C r.r.D k *. .` T ( i h J J J J J J J ",
"J J J J J J J J J J }.H +.1X3X7XrXD.; * * ; D.rXrX<Xw.c l z h v w.a.w.k *. .` R T ( h q J J J J J J ",
"A A J J J J A A J J J 9.+.>X0XqXeX8X[.+ , _.9XrXeX<Xw.F e.;X,X:Xa.w.y.q.=. .} ' R U 9 0 J J J J J J ",
"8 A A A A A A A A A A 9.B 1XqXwXwXgXyX5 t dXgXwXeX<Xt.a.S.>XqX9XV.w.i.u.-. . .{ R o @ , /.J J A A 8 ",
"8 8 8 A A A A 8 8 8 8 9.;.1XqXeXeX8X^.. C lXhXwXeX<Xi.,XJ.3.1X9XA.r.t.u.-. . .{ R o , 0 ).A A A 8 8 ",
"8 8 8 8 8 8 8 8 8 8 8 9.2 P.7XrXrXD.>   N xXhXwXeX:XV.6X>X>.>X6Xw.F y.y.-. . .{ R % e '.8 8 8 8 8 8 ",
"8 8 8 8 8 8 8 8 8 8 8 9.4 G.7XwXrXZ.O O >.cXhXwXeX:Xa.9X1X4.H.S.v v i.r.-. . .{ R % A 8 8 8 8 8 8 8 ",
"8 8 8 }.J }.J }.}.}.}.B < 2.J.0XrXF.Q Q @.eXrXwXeX:Xp.>X1XG.;.1 s 5.t.D *... .{ R % S 8 8 8 8 8 8 8 ",
"8 8 8 }.J J J J J }.}.J 1.4 C.3X0XP.M.k.L.0XwXwXeX,XoX>X2XJ.+.# h F G k ) [  .{ R U i J }.}.}.8 8 8 ",
"8 8 A A J J J J J J J J J 3 >.J.1X0XqXqXqXwXwXwXeX0X2XJ.G.G.8.f h h l h ( T [ { R P ^ J J }.}.8 8 8 ",
"8 A A A J J J J J J J J J J 0.;.M.J.2X2X2X0X0X0X0X3XP.K.G.3.,.l 0 u h e % T { { R I ~ J J J J 8 8 8 ",
"8 A A J J J J J J J J J J J J B 2 :.3.3.M.Z.Z.Z.H.3.3.C.s.>.s y 0 u h H $.T  .{ T P / J J J }.}.8 8 ",
"8 A A J J J J J J J J J J J J J 3 ; * * ; ; ; ; ; * ; m K J q 0 S C g J J R { [ P X ~ J J J J }.8 8 ",
"8 A J J J J J J J J J J J J J J J J N.)._._.}.@X@X@X%XaXyX&X`./.#XE.H J J I E T P ) 4XJ J J J }.}.8 ",
"8 A J J J J J J J 8 8 8 J J J J V..X8XfXlXlXvXbXbXbXbXvXvXjXaXyXyX$X'.J K J ~ ~ ^ 4XJ J J J J J J 8 ",
"8 A J J J J J J J 8 8 8 J J J < h.x.v.gXbXbXbXbXxXdXaXaXsXdXaXyX-X=X&X'.$XJ J J 8 5 J J J J J J }.8 ",
"8 A J J J J J J J #X}.8 8 J J m.O.z.b.5XpXbXbXlXtXW.^./.$X=X$X{.{.&X*X/.$XJ J J 8 8 J J J J J }.}.8 ",
"8 A A J J J J J J J J 8 8 J J fXn h.b.f.!.kXzXiXQ.I.9 S /.{.^.J J #X=X'.#XJ J J #X#XJ J J J J J J 8 ",
"8 A A J J J J J J J J #X#XJ J J r h.b.f.Q.~.~.!.Q.U.> B.OXOX|.u.J #XsX*X#X#XJ J J J J J J J J #X}.8 ",
"8 A A J J J J J J J J J J J J J t m.c.g.U.U.U.T.W.b : 2.oXS.A.w.J *XzXdX&XK J J J J J J J J J }.}.8 ",
"8 A A J J J J J J J J J J J J J t S N.G d &.d ;.p 1 * d <.4.<.M J yXbXzX=XR.J J J J J J J J J J }.8 ",
"8 8 A J J J J J J J J J J J J J t r Z V V Z U.W.T.b ; ;.4.4.:.x H yXbXzXaX#X#XJ J J J J J J J J }.8 ",
"8 8 A A J J J J J J J J J J J J r p n 6 I.U.Y.Q.Q.7 - >.C.4.:.x H yXbXzXsXyX{.{.J J J J 8 J J J }.8 ",
"8 8 8 A J J J J J J J J J J J J 1 O.h.n V Z Z Z Z r - <.C.4.;.z H yXbXzXsX=X].{.J J J J 8 8 J J J 8 ",
"8 A A A J J J J J J J J J J J 8 8 m.O.O.j.l.l.c.c.z.h.+.d n < p H yXbXzXsX*X'.{.J J J J 8 8 J J }.8 ",
"8 A A J J J J J J J J J J J J #X#XJ 3 h.x.b.b.n.n.n.b.= : ; < n J yXbXzXsX*X].{.J J J J }.}.J }.}.8 ",
"8 A A J J J J J J J J J J J J J J J J 4 = = M.L.L.L.Z.N.M > J J ^.uXbXzXsXyX{.].J J J J J J J J J 8 ",
"8 A J J J J J J J J J J J J A A J J J J n > 1. X.X).i.p.1.1 J J ^.sXbXlXuX#X#XJ J J J J J J J #X#X8 ",
"8 A J J J J J J J J J J A A A A A J J J J 1 2 <.4.<.;.&.1 1 J J ].aXvXaX#X^.J J J J J J J J J }.A 8 ",
"8 A A A A J A A A A A A A A A 8 A A J J A 1 ;.4.C.2.&.x 1 A A A A *X&X$X}.A A A A J A A A J A A 8 8 ",
"8 8 8 A A A A 8 8 8 8 A 8 8 8 8 8 A A A A 8 1.2.>.;.d n 8 8 8 A A 8 './.8 8 8 8 m A A A A A A 8 8 8 ",
"8 8 8 8 8 8 8 8 8 8 8 8 8 8 8 8 8 8 8 8 8 8 8 8 8 8 , 8 8 8 8 8 8 8 8 8 8 8 8 8 8 8 8 8 8 8 8 8 8 8 "
};
