/* XPM */
static char *result[] = {
/* columns rows colors chars-per-pixel */
"50 50 232 2 ",
"   c #3E1E08",
".  c #392D33",
"X  c #6F0B0B",
"o  c #731B1A",
"O  c #592402",
"+  c #782910",
"@  c #483E35",
"#  c #4C3C3A",
"$  c #563F37",
"%  c #523E3C",
"&  c #762524",
"*  c #6C3D3C",
"=  c #4F421D",
"-  c #7C6718",
";  c #554722",
":  c #564922",
">  c #584926",
",  c #564B30",
"<  c #54433A",
"1  c #6C552F",
"2  c #685738",
"3  c #7A5C3B",
"4  c #736535",
"5  c #7E633D",
"6  c #33566F",
"7  c #326376",
"8  c gray26",
"9  c #554442",
"0  c #5A4543",
"q  c #5D4946",
"w  c #5C4C4A",
"e  c #4E5A55",
"r  c #5A575B",
"t  c #684845",
"y  c #634D4B",
"u  c #794947",
"i  c #625842",
"p  c #64514E",
"a  c #6A524F",
"s  c #795748",
"d  c #684F50",
"f  c #645352",
"g  c #6C5452",
"h  c #6A5957",
"j  c #6C5C5A",
"k  c #725553",
"l  c #725956",
"z  c #7C5952",
"x  c #755C5A",
"c  c #7A5D5A",
"v  c #4D605D",
"b  c #686348",
"n  c #6B625B",
"m  c #776459",
"M  c #7A625E",
"N  c #7A7255",
"B  c #4F5A6D",
"V  c #635A60",
"C  c #58687A",
"Z  c gray38",
"A  c #6D6865",
"S  c #746562",
"D  c #7C6461",
"F  c #7B6C69",
"G  c #76726E",
"H  c #757575",
"J  c #7B7879",
"K  c #860707",
"L  c #8C0405",
"P  c #980404",
"I  c #851717",
"U  c #971212",
"Y  c #AC0505",
"T  c #B40303",
"R  c #B90808",
"E  c #A91615",
"W  c #B61D20",
"Q  c #882A29",
"!  c #8C2B2B",
"~  c #972827",
"^  c #873634",
"/  c #993938",
"(  c #AC2D2C",
")  c #CA0708",
"_  c #D41111",
"`  c #EC0609",
"'  c #E41819",
"]  c #ED1B1C",
"[  c #F61B1C",
"{  c #CF3D3C",
"}  c #FD2526",
"|  c #FE2728",
" . c #FB3A36",
".. c #927613",
"X. c #89732E",
"o. c #AD7738",
"O. c #C1403E",
"+. c #854B49",
"@. c #8E534E",
"#. c #845B4B",
"$. c #A94645",
"%. c #B3504F",
"&. c #BA5755",
"*. c #886944",
"=. c #98694A",
"-. c #97714D",
";. c #866459",
":. c #976859",
">. c #857452",
",. c #9B7354",
"<. c #AF7752",
"1. c #A87A59",
"2. c #826A66",
"3. c #876A67",
"4. c #866E6A",
"5. c #986661",
"6. c #817A60",
"7. c #8F7D61",
"8. c #84716D",
"9. c #8B726D",
"0. c #97786B",
"q. c #837572",
"w. c #8E7671",
"e. c #8D7A74",
"r. c #897C78",
"t. c #937773",
"y. c #927A74",
"u. c #947E79",
"i. c #A77365",
"p. c #D84641",
"a. c #5B876E",
"s. c #778268",
"d. c #AC8D11",
"f. c #A5952A",
"g. c #B38A36",
"h. c #BDB92B",
"j. c #CA9F01",
"k. c #D2A907",
"l. c #C5B031",
"z. c #E1BE32",
"x. c #EBC80C",
"c. c #F9EE0E",
"v. c #938453",
"b. c #B1895A",
"n. c #898372",
"m. c #988475",
"M. c #9B837D",
"N. c #B68664",
"B. c #BB966B",
"V. c #A68675",
"C. c #B99879",
"Z. c #BDA77B",
"A. c #C79452",
"S. c #CA8765",
"D. c #CA9473",
"F. c #D79975",
"G. c #E09471",
"H. c #D0AD75",
"J. c #E7AA7E",
"K. c #1E598C",
"L. c #356C94",
"P. c #287BB9",
"I. c #7E7E80",
"U. c #497DA0",
"Y. c #807F82",
"T. c #7B96AA",
"R. c #2D8ECE",
"E. c #4F99D0",
"W. c #58AADD",
"Q. c #888586",
"!. c #8B8B8D",
"~. c #9E8681",
"^. c #998A86",
"/. c #989588",
"(. c #918F92",
"). c #8F9093",
"_. c #929294",
"`. c #979799",
"'. c #9E9E9E",
"]. c #A38B85",
"[. c #A78A86",
"{. c #A69588",
"}. c #AA938C",
"|. c #B49481",
" X c #AE9993",
".X c #B39C95",
"XX c #B2AB8A",
"oX c #B5A89C",
"OX c #9F9FA1",
"+X c #A6A5A7",
"@X c #B3B3AD",
"#X c #ADAEB2",
"$X c #B4B4B7",
"%X c #B5B5B9",
"&X c #B9B9BE",
"*X c #C79F82",
"=X c #C2A88E",
"-X c #D9B187",
";X c #D0B18E",
":X c #C8AD91",
">X c #E7B68B",
",X c #EFB48E",
"<X c #F7BC94",
"1X c #CCAFA7",
"2X c #B2C097",
"3X c #E6C69A",
"4X c #F6C69B",
"5X c #DBCAAC",
"6X c #EFD0A7",
"7X c #FBD3A4",
"8X c #FDDCAA",
"9X c #FFE2AD",
"0X c #FFE5B1",
"qX c #FEE9B7",
"wX c #95BED8",
"eX c #BDBEC2",
"rX c #BEC1C3",
"tX c #A6C5DB",
"yX c #C6C6C8",
"uX c #CDCDD1",
"iX c #D8D7D9",
"pX c #E0DED9",
"aX c #F8EACA",
"sX c #FFF4D6",
"dX c #DDDDE1",
"fX c #D7E9F6",
"gX c #E2E4E7",
"hX c #E5E6E9",
"jX c #EAE9EC",
"kX c #F2EDE2",
"lX c #F4F4F5",
"zX c #FDFDFD",
/* pixels */
"8 8 8 8 8 8 8 8 8 8 8 8 8 8 8 8 8 8 8 8 8 8 8 8 8 8 8 8 8 8 8 8 8 8 8 8 8 8 8 8 8 8 8 8 8 8 8 8 8 8 ",
"'.'.H '.'.8 8 '.'.8 8 8 8 8 Z '.'.H 9 % d c D '.H H '.OX'.h l D f 0 8 8 8 8 Z '.'.'.'.8 8 8 8 8 8 '.",
"'.H H '.'.8 '.'.H '.8 8 8 0 V '.p p h g y M 4.2.g y 0 q f x 2.D p w 8 8 8 Z Z H '.H H H '.8 8 '.H OX",
"H H H H H H '.H H H '.8 9 y l 4.9.w.}.w.9 y c 9.w.4.l x 9.w.D 0 # # y f f f w f H H H H '.'.H H H H ",
"H H H H H H H H H H OXJ # % y D D 3.~.~.w.F D c m.[.4.4.t.4.l 0 x w.D l y 0 f +XH H H H H '.H H H H ",
"H H H H H H H H H H A 0 0 9 0 g l x 2.~..X].4.l u..X~.y.w.c l D ~..Xu.D d 0 F H H H H H H H H H H H ",
"H H H H H H H H H H y x 4.4.4.4.9.9.9.y.m.y.w.9.w.M. X[.w.4.y.}.}.t.M y % # % n H H H H H H H H H H ",
"H H H H H H H H H  Xh g x D 4.t.w.t.~.M.w.w.w.y.w.w.[.~.w.w.u.}.M.4.D l a g g y q.H H H H H H H H H ",
"H H H H H H H H H H F < # y M 9.w.u. X}.w.w.w.w.w.t.t.t.t.t.t.w.w.w.y.w.w.y.4.x w j H H H H H H H H ",
"H H H H H H H H H G g g D 2.9.w.]. X].w.c 2.w.t.w.w.0.Y.}.u.w.y.w.u.}.}.9.D D 9.M p S H H H H H H H ",
"H H H H H H H H r.y x 4.u.w.2.2.u.}.w.S c w.u.t.9.4.u.}.oX~.3.@.2.u.}.}.M.2.x x l y 9 S H H H H H H ",
"H H H H H 8 H S q l 4.t.w.M g k 3.w.c x w.}. Xu.M x }.oX.X^.@.X ^ e.w.]..XM.M 9 # < w 9 h H H H H H ",
"H H H H H 8 F y M 4.x u ~ I & 2.F x Q ^ t. X.Xu.x S  X.X~.q.u L Q F 8.]..Xt.M x q f H H H H H H H H ",
"H H H H H 8 f p D D $ o ) P I 3.2.^ R W t.].}.u.z +.[.}.w.k ! R ~ a 4.].}.D l 4.l j H H H H H H H H ",
"H H H H H 8 8 h 9 % o U ] ) U k ^ T ' p.t.t.u.e./ E 5.u.w.~ ) ] Y o 3.M.e.y < x l g h +XH H H H H H ",
"H H H H H +X'.j 9 % X L _ T K & K ) [ { 3.q.q.D ( _ 5.J ;.W ` [ ) L ;.q.x < @ t k l q H H H H H H H ",
"H H H H H H H h d a o L T L X X K R ] O.k 2.4.h (  .i.F ;.p. . ._ E :.q.z , , w a a w H H H H H H H ",
"H H H H H H H g h a U ) ] / * * +.:.@.+.k x l g D.<X;.n.3X4X<X<X,XS.M 0.*XX.N H q.p '.H H H H H H H ",
"H H H H H H H g u ^ P ) } $.j S q.r.j f d d a x :XqX|.V.H.XX=XH.3X3XV.C.>X>.n.H H '.H H H H H H H H ",
"H H H H H H 0 f ! T Y ) } $.j w.t.9.M k l g z 4.:XqXqXZ., = = : C.0X4X<X>X*.N Z H H H H H H H H H H ",
"Z Z H H H H 9 9 & T _ [ } %.G w.w.y.XX-X*Xt.2.9.:X0XqX6X/.< < /.5X0X8X7X-X*.6.Z Z H H H H H H H H H ",
"8 Z Z Z Z Q.9 # o R ] } | &.e.e.9.M.6X8X-XD.u.w.:X0X0XaXiXr 8 rXaX9X0X8X>X*.6.8 Z Z Z H H H H Z Z 8 ",
"8 8 8 Z Z ^.9 < o T ] } | &.w.e.9.M.6X3X1.D.;Xt.:X0X9XsXgXV . !.5XqX0X8X>X*.6.8 8 8 Z Z Z Z Z Z 8 8 ",
"8 8 8 8 8 8 (.w o T ] } | &.n.t.D w.>X-X1.-X3Xu.:X0X9XsXjX;.  < D.qXqX7XH.5 6.8 8 8 8 8 8 8 8 8 8 8 ",
"8 8 8 8 8 8 8 n o T ] } } &.q.e.D c C.D.1.>X6Xu.XX0X9XsXkX-.O O B.qXqX,XS.3 6.8 8 8 8 8 8 8 8 8 8 8 ",
"8 8 8 '.H '.H Z & T ] } } $.S w.2.d 2 X.S.,X-Xt.=X0X0XqX0Xo.+ + A.qX7XH.,.1 N OX'.'.'.8 8 8 8 8 8 8 ",
"8 8 8 OXH H H u I T ] [ ' / h 2.;.d < *.F.J.F.|.;X0X0XqX7XH.g.A.J.8X<XS.X.>.H OXH H H H '.'.'.8 8 8 ",
"8 8 Z Z H H H ! L R ] ] T ^ f h g g f :.S.G.G.>X8X0X0X8X8X9X8X8X4X>XF.-.i H H H H H H H H '.'.8 8 8 ",
"8 Z Z Z H H H ! P T ] ] T & w l y 9 d ;.<.S.G.J.<X7X7X7X4X4X>X,XF.b.*.7.H H H H H H H H H H H < 8 8 ",
"8 Z Z H H H H ! L T ] [ T +.G f y 9 t a ;.V.N.<.b.B.B.B.A.b.<.<.-.4 b H H H H H H H H H H H '.'.8 8 ",
"8 Z V H H H H ! X L ' [ T H H f V A 9 w H J N : = ; : : ; ; = = : 4 H H H H H H H H H H H H H '.8 8 ",
"8 Z H H H H H 1X/ X E R P H H G Y.OXQ.(.#XrXrX@XoXoXoX X/././.n.H H H H H H H H 8 H H H H H H '.'.8 ",
"8 Z H H H H H H 1X! Q Q H H H (.OXeXeXyXdXlXlXzXzXzXzXlXgXhXiX5X/.n.J H H H H H 8 8 H H H H H H H 8 ",
"8 Z H H H H H H J 8 8 8 H +X_.+X$XeXeXrXdXuXyXuXiXjXzXzXzXzXaXz.k.d.1 H H H H H 8 8 H H H H H H '.8 ",
"8 Z H H H H H H J '.'.8 8 +X(.$X#XOX`.+XeXOX!.Y.T.wXhXzXzXfX2Xx.j...v.J H H H H 8 8 H H H H H '.'.8 ",
"8 Z Z H H H H H H H H 8 8 +X(.%XOXH H Q._.!.A 8 L.R.tXjXfXE.a.x.d.i pXH H H H H '.'.H H H H H H H 8 ",
"8 Z Z H H H H H H H H OXOXOX#XuX+XH r.~. X.Xy.> 7 R.W.W.W.P.a.x.d.v H H H H H H H H H H H H H '.'.8 ",
"8 Z Z H H H H H H H H H I.#XiXhX$XG 9.V.|.C.0.> 6 U.L.L.L.L.s.l.v.B H H H H H H H H H H H H J '.'.8 ",
"8 Z Z H H H H H H H H H I.%XhXzX&XH m :.1.:.3 ; 2 a z m m z ;.n.n r G H H H H H H H H H H H H H '.8 ",
"8 8 Z H H H H H H H H OXOXyXhXzXeXG #.=.1.1.*.; v T.T.7 C B B C e Z H H H H H H H H H H H H H H '.8 ",
"8 8 Z Z H H H H H H _.`.eXuXgXzXeXG z :.1.N.-.; 7 R.R.P.L.K.6 i 2 v H H H H H H H H H H 8 H H H '.8 ",
"8 8 8 Z H H H H H H `._.$XuXhXzXeXG l *.1.N.:.> e H C C C B b d...2 H H H H H H H H H H 8 8 H H H 8 ",
"8 Z Z Z H H H H H H `._.$XuXhXzXeXG i 2 s b X.d.j.h.h.l.h.f.X.d.v.H H H H H H H H H H H 8 8 H H '.8 ",
"8 Z Z H H H H H H H `._.$XuXhXzXyXG b , : = - x.c.c.c.x.x.j.d.4 H H H H H H H H H H H H '.'.H '.'.8 ",
"8 Z Z H H H H H H H )._.eXuXjXzXyXn.H H > N m.B.Z.H.H.A.- - 5 H H H H H H H H H H H H H H H H H H 8 ",
"8 Z H H H H H H H H H OXOXeXgXzXuX!.H H 2 ;.0.t.M.}.{.N ; b H H H H H H H H H H H H H H H H H '.'.8 ",
"8 Z H H H H H H H H H H !.OXuXlXyX_.H H 2 2 #.;.,.0.,.3 2 Z H H H H Z Z Z Z H H H H H H H H H '.Z 8 ",
"8 Z Z Z Z H Z Z Z Z Z Z Z OX X#X$XZ H H Z 2 s @.,.b.b.s 2 Z Z Z Z Z Z 8 8 Z Z Z Z H Z Z Z J Z Z 8 8 ",
"8 8 8 Z Z Z Z 8 8 8 8 Z 8 8 ).).8 Z Z Z Z 8 s s *.-.,.>.8 8 8 Z Z 8 8 8 8 8 8 8 Z Z Z Z Z Z Z 8 8 8 ",
"8 8 8 8 8 8 8 8 8 8 8 8 8 8 8 8 8 8 8 8 8 8 8 8 8 8 8 8 8 8 8 8 8 8 8 8 8 8 8 8 8 8 8 8 8 8 8 8 8 8 "
};
