/* XPM */
static char *result[] = {
/* columns rows colors chars-per-pixel */
"50 50 46 1 ",
"  c gray26",
". c #4D4D4D",
"X c #50504F",
"o c #555555",
"O c #585857",
"+ c #5C5C5C",
"@ c #5F5F60",
"# c #616161",
"$ c #6C6C6C",
"% c #747474",
"& c #797979",
"* c #7F7F80",
"= c #858686",
"- c #8A8A8B",
"; c #929292",
": c #9D9D9D",
"> c #9F9FA0",
", c #A0A1A1",
"< c #AAABAC",
"1 c #AEAFB0",
"2 c #AFB0B1",
"3 c #B2B3B4",
"4 c #B7B7B8",
"5 c #B7B8B9",
"6 c #BCBDBD",
"7 c #BEBFC0",
"8 c #BFC0C0",
"9 c #C2C3C3",
"0 c #C7C7C8",
"q c #C7C8C9",
"w c #CBCBCC",
"e c #CFD0D1",
"r c #D4D4D5",
"t c #D7D7D8",
"y c #D7D8D8",
"u c #DEDEDE",
"i c #E0DFDF",
"p c #DFE0DF",
"a c #E0E0DF",
"s c #DFDFE0",
"d c #E2E2E2",
"f c #EBEBEB",
"g c #EFF0F0",
"h c #F3F3F3",
"j c #F7F8F8",
"k c #FDFDFD",
/* pixels */
"                                                  ",
"::&::  :,     #,,%,:%%,:%%::::%,      #,,:,      :",
":%&::,::,,,,,,,,,,,,,,,,,,,,,,,,,,,,,,,,:::%:  ,%:",
"&&%%;#+++++++#+++++++#++#++#+#++++++++@++++*,:%%%&",
"%%&<&++OoXoooooOOooXooooooooooooooooooooo++#:,&%&%",
"&&=#OOO...............XX....X............oOo#&%%%%",
"%%$+OO@$%$$%$$%$$$%%$$%$$%%$%$$$$%$%$$%$%#++++%%%%",
"&%$OoO=<9886686886668666666668686866668w5;#X++%&%&",
"%&$O.+:dkkjjjjjjjjjjjjjjjjjjjjjkjjjjjkkkg3$Xo@&%%%",
"%%%O.O:fkkkkkkkkkkkkkkkkkkkkkkkkkkkkkkkkd,#Xo@%%%&",
"&%$O.O:fkkkkkkkkkkkkkkkkkkkkkkkkkkkkkkjy5-@XO@&%%&",
"%%%O.O:dkkkkkjjjjkjkjkjjjjkjkjjkjkjjjjf9<*@XO@%%%%",
"%%%O.O:dkkkjffffffgfffffffffffffgggfar96,*@oO@%&%&",
"%&$O.+:dkkkhduuiduiidiuiuiuuuduuaaauw313<=@XO@%%%%",
"%%$O.+:dkkkhuuffiwwruuuuuuutdffuwwyy0<<2<=@oO@%%%%",
"%&%O.O:dkkkhddhjd66wuiuuuuuufjjy65ruw3<3<=@XO@&%&%",
"%%%O.O:dkkkhddhfr22wudduduuudfgr23wuw3<3<=@oO@%&%&",
"%%$O.O:dkkkhdtrw5<2wudupiuduurq5<3euw313<=@XO@%%%%",
"%&$O.O;fkkkhfr62<<5edduuuuddr71<<6ryw313<=@oO@%%%&",
"%%%O.+:dkkkhdr06670ruudududuy96660tuw413<=@XO@&&%%",
"##%O.O:fkkkjdurrrruuuuuduupsuyrrruuuw313<=@XO@%%%&",
" #%O.O:dkkkhduidddduuuududuuusddddduw4<3<=@oO@&@# ",
"  %o.O:dkkkhduuasduduudududuudddidiu0313,=@XO@##  ",
"  $O.O:fkkkhduuuussuuauuiuupuupuiiduw3<3<=@oO@    ",
"  $O.+:dkkkhduuuuuupsuupudaudsudpddu03<4<=@XO+    ",
"  %O.O>dkkkjduuududuuuduuuuuuuuussduq313<=@oO@    ",
"  %O.O:dkkkhduuuuduududusduduuuasdduw3<3<=+oO#>   ",
"  %o.O:dkkkhduuuudddiuuipuuuuuuudddyq313,=@oO#:   ",
" @%o.O>dkkkhduuduuuuuiuudussidduuudyw313<=@oO@%   ",
" @%o.+>dkkkhdifguewrudduuiuudffuewuuw313<=@XO#>:  ",
" @%o.O:dkkkgddjjd66wudsuupyufkku66ruw3<3<=@oO#&:  ",
" @%O.O:dkkkgddffr23wudduduuudgfe22wuw312<=+oO+%:: ",
" #%O.O:dkkkhdte04<1wsdssuusaur05<2euw413<=@oO#%%% ",
" #%o.+:dkkkjfr8<<15esdssspddr6<<<6ruw3<3<=+oO+%&> ",
" @%o.O:fkkkjftw878qtsddddaddrw769wuuw513<=+oO+%:: ",
" @%o.+;dkkkjduutytssdddsdddduuuruusuw3<3<=+oO@%&% ",
" @%o.O:dkjfdtrttstttrrrrrrrrurrurryr9313<=+oO@&:> ",
" #%O.@>fkfw96888877777777686679999974333<=+oO#%:: ",
" #%O.O>fkr1<11111111211111112111<<2<<233<=+oO@&%: ",
"  $O.O;eu01<12212222222222223122323233451=@oO#%%> ",
"  $OX+*296222222123223123132222221322245<-@oo@%%> ",
"  $+oO%-:::>>>>>>>>>>>>>>>>>>>>>>>>>>>>,:&+o+@%%% ",
" #$@+o#$%%%%%%%%%%%%%%%%%%%%%%%%%%%%%%%%%#+O@O%%> ",
" #%++ooooOoooOooooooooooooooooooooooOoooooOO+$%>> ",
" ##-#++oooooooooooooooooooXoooooooooOoooOO++*&%%% ",
" #%%=@@+o++++++oO+O++OO+O@@OO+O+++OOO+O++++%%%%>> ",
" #%&%%%%%&%&&&%&&&&&&&&&&&%&&&&%&&&&%&&&%%%%%&%># ",
" ####%######### ##%%@@@    @#####@@  ####%###%##  ",
"   ####    #     ##@#          #@       #####@#   ",
"                                                  "
};

