/* XPM */
static char *result[] = {
/* columns rows colors chars-per-pixel */
"50 50 46 1 ",
"  c #3D0E05",
". c #3D1B03",
"X c #3B140E",
"o c #400F04",
"O c #4B0F09",
"+ c #441105",
"@ c #4B1305",
"# c #441804",
"$ c #4B1E05",
"% c #451E08",
"& c #531606",
"* c #551807",
"= c #5B1A06",
"- c #561709",
"; c #541909",
": c #5C1B09",
"> c #641E07",
", c #6B1F06",
"< c #621D09",
"1 c #691F09",
"2 c #4C240B",
"3 c #552204",
"4 c #5B2106",
"5 c #5F2F06",
"6 c #452B10",
"7 c #492F11",
"8 c #662306",
"9 c #692107",
"0 c #642806",
"q c #6D2807",
"w c #66220A",
"e c #6B2209",
"r c #662B0A",
"t c #6E2A0A",
"y c #722407",
"u c #71240A",
"i c #63320A",
"p c #613B0C",
"a c #703E13",
"s c #57450E",
"d c #5F4413",
"f c #6A4011",
"g c gray26",
"h c gray38",
"j c gray46",
"k c gray62",
/* pixels */
"gggggggggggggggggggggggggggggggggggggggggggggggggg",
"kkjkkggkkggggghkkjkkjjkkjjkkkkjkgggggghkkkkggggggk",
"kjjkkgkkjkgggghkkjjjjjkjjjjkjjjkkgggghhjkjjjkggkjk",
"jjjjjjkjjjkgghhjjjjjjjjjjjjjjjjjjgggghhjjjjjkkjjjj",
"jjjjjjjjjjkggghjjjjjjjjjjjjjjjjjkkggghhjjjjjjkjjjj",
"jjjjjjjjjjjggghhjjjjjjjjjggjjjjjkjgghhjjjjjjjjjjjj",
"jjjjjjjjjjkggghhjjjjjjjjjgggjjjjjkgghjjjjjjjjjjjjj",
"jjjjjjjjjkkgghhhjjjjjjjjjkkgjjjjjjgghhjjjjjjjjjjjj",
"jjjjjjjjjjjgghhjjjjjjjjjjjjkjjjjjkggghjjjjjjjjjjjj",
"jjjjjjjjjjkgghhjjjjjjjjjjjjjjjjjkkggghhjjjjjjjjjjj",
"jjjjjjjjjkkgghhjjjjgjjjjjjjjjjjjkjgghhhjjjjjjjjjjj",
"jjjjjgjjjjggghhjjjjggjjjjjjjjjjjjkgghhjjjjjjjjjjjj",
"jjjjjggjjkgggghhjjjgggjjjjjjjjjjjkgghhjjjjjjjjjjjj",
"jjjjjggjjkgggghhjjjggkjjjjjjjjjjjkgghjjjjjjjjjjjjj",
"jjjjjggjjjgggghhjjjkkjjjjjjjjjjjjjgghhjjjjjjjjjjjj",
"jjjjjkkjjjkggghhjjjjjjjjjjjjjjjjjkgghhjjjjgjjjjjjj",
"jjjjjjjjjjkkgghjjjjjjjjjjjjjjjjjjkgghjjjjggjjjjjjj",
"jjjjjjjjjjjjgghjjjjjjjjjjjjjjjjjkkgghhhjjgkjjjjjjj",
"jjjjjjjjjjjkgghhhjjjjjjjjjjjjjjjjkgggghjjkjjjjjjjj",
"jjjjjjjjjjkkgghhhhjjjjjjjjjjjjjjkkgggghhjjjjjjjjjj",
"hhjjjjhhjjjkgggghhhhjjjjjjjjjjjjkgggggghhjjjjjjjjj",
"ghhhhhhhhhs30tqqqe<,881<wweeeuuuyrp34ggghhhjjjjhhg",
"ggghhhhgggr=wueuu1:<191>8eeeuuuuue,:<riifghhhhhhgg",
"gggggguu1e,:1,uuue<<181>1e1uuuuee9e<<89,84gggggggg",
"ggggguuueee>19uuue:1e8>8ww9uueue118><191<98wgggggg",
"gggfuuuue9e8we,11:&*-:;*==::w<<:====:,,119e,,0gggg",
"ggueyyuuu9w*&=====#&***@&;*===-=&==@&=1w<e981195gg",
"gghhtyuue<-@;===:-@&;;=@&;&&*&;;&=&@@&&<=8,1889ggg",
"ghhhjjja8=;+;=:==*++@@@+@@o@@%oooo$@@&-&&9818jjggg",
"ghhjjjjjd&@ +@@@@@ +o++ oooOooooooooooooo99jjjkkgg",
"ghhjjjjjjjXX+@@@+@  oo  ooooooooooooooo9918jjjjkgg",
"ghjjjjjjjjjj.2+@ooo oo76ooooooooooooooo gjjjjjjkkg",
"ghjjjjjjjgggjjjooo +j oooooo + ooooojjjjggjjjjjjjg",
"ghjjjjjjjgggjjjjjjjjjjjkggghhjjjjjjjjjjjggjjjjjjkg",
"ghjjjjjjjkkggjjjjjjjjjjjggghhjjjjjjjjjjjggjjjjjkkg",
"ghhjjjjjjjjggjjjjjjjjjjjggghhjjjjjjjjjjjkkjjjjjjjg",
"ghhjjjjjjjjkkjjjjjjjjjkggghhhjjjjjjjjjjjjjjjjjjkkg",
"ghhjjjjjjjjjjjjjjjjjjjkggghhjjjjjjjjjjjjjjjjjjjkkg",
"ghhjjjjjjjjjjjjjjjjjjjkgggghjjjjjjjjjjjjjjjjjjjjkg",
"gghjjjjjjjjjjjjjjjjjjjjkggghhjjjjjjjjjjjjjjjjjjjkg",
"gghhjjjjjjjjjjjjjjjjjjjkgggghhjjjjjjjjjjjjjjgjjjkg",
"ggghjjjjjjjjjjjjggjjjjjjgggghhjjjjjjjjjjjjjjggjjjg",
"ghhhjjjjjjjjjjjggkjjjjjkgggghjjjjjjjjjjjjjjjggjjkg",
"ghhjjjjjjjjjjjjkkjjjjjkkggghhjjjjjjjjjjjjjjjkkjkkg",
"ghhjjjjjjjjjjjjjjjjjjjjkgghhjjjjjjjjjjjjjjjjjjjjjg",
"ghjjjjjjjjjjjjhhjjjjjjkkgghhhjjjjjjjjjjjjjjjjjjkkg",
"ghjjjjjjjjjjhhhhhjjjjjhkggghhhjjjjhhhhjjjjjjjjjkhg",
"ghhhhjhhhhhhhhhghhjjhhhgggghhhhhhhhgghhhhjhhhjhhgg",
"ggghhhhgggghggggghhhhgggggggggghhggggggghhhhhhhggg",
"gggggggggggggggggggggggggggggggggggggggggggggggggg"
};
